<svg width="65" height="90" fill="none" xmlns="http://www.w3.org/2000/svg">
    <path d="M54.993 46.021H10.29c-.97 0-1.758.777-1.758 1.735v.867c0 .958.787 1.735 1.758 1.735h44.703c.97 0 1.758-.777 1.758-1.735v-.867c0-.958-.787-1.735-1.758-1.735ZM54.993 21.626H10.29c-.97 0-1.758.776-1.758 1.734v.896c0 .957.787 1.734 1.758 1.734h44.703c.97 0 1.758-.776 1.758-1.734v-.896c0-.958-.787-1.734-1.758-1.734ZM32.627 70.388v4.533M1.559 81.495h23.953M39.488 81.495H63.44M39.46 81.691a6.707 6.707 0 0 0-1.157-3.761 6.841 6.841 0 0 0-3.078-2.494 6.945 6.945 0 0 0-3.964-.385 6.89 6.89 0 0 0-3.512 1.853 6.744 6.744 0 0 0-1.878 3.466 6.688 6.688 0 0 0 .39 3.912 6.79 6.79 0 0 0 2.527 3.038 6.925 6.925 0 0 0 3.811 1.141c1.82 0 3.565-.713 4.851-1.983a6.726 6.726 0 0 0 2.01-4.787Z" stroke="#434D5B" stroke-width="3" stroke-linecap="round" stroke-linejoin="round"/>
    <path d="M61.201 50.358H4.054c-.369 0-.722.144-.983.401-.26.257-.406.606-.406.97v17.289c0 .363.146.712.406.97.26.256.614.4.983.4H61.2a1.405 1.405 0 0 0 .983-.4 1.37 1.37 0 0 0 .406-.97v-17.29a1.354 1.354 0 0 0-.406-.969 1.39 1.39 0 0 0-.983-.401Zm-9.553 13.988c-.779 0-1.54-.228-2.189-.656a3.9 3.9 0 0 1-1.45-1.745 3.841 3.841 0 0 1-.225-2.247 3.874 3.874 0 0 1 1.078-1.99 3.957 3.957 0 0 1 2.018-1.065 3.988 3.988 0 0 1 2.276.221 3.93 3.93 0 0 1 1.769 1.433c.433.639.664 1.39.664 2.16a3.845 3.845 0 0 1-.267 1.523 3.882 3.882 0 0 1-.847 1.3c-.367.372-.806.669-1.292.871a3.987 3.987 0 0 1-1.535.307v-.112ZM61.201 25.934H4.054c-.369 0-.722.144-.983.402-.26.257-.406.605-.406.969v17.317a1.327 1.327 0 0 0 .408.96 1.363 1.363 0 0 0 .98.383h57.148a1.378 1.378 0 0 0 .98-.383 1.343 1.343 0 0 0 .41-.96V27.305a1.354 1.354 0 0 0-.407-.97 1.388 1.388 0 0 0-.983-.4Zm-9.553 13.82a4.006 4.006 0 0 1-2.215-.648 3.929 3.929 0 0 1-1.474-1.756 3.869 3.869 0 0 1-.233-2.27 3.901 3.901 0 0 1 1.088-2.012 3.986 3.986 0 0 1 2.039-1.073 4.018 4.018 0 0 1 2.299.23c.726.3 1.346.806 1.78 1.454a3.88 3.88 0 0 1 .657 2.187c0 1.031-.416 2.02-1.154 2.75a3.967 3.967 0 0 1-2.787 1.138v0ZM61.201 1.595H4.054c-.369 0-.722.144-.983.401-.26.257-.406.606-.406.97v17.289c0 .364.146.712.406.97.26.256.614.4.983.4H61.2a1.405 1.405 0 0 0 .983-.4 1.37 1.37 0 0 0 .406-.97V2.965a1.354 1.354 0 0 0-.406-.969 1.39 1.39 0 0 0-.983-.401Zm-9.553 13.988a4.007 4.007 0 0 1-2.215-.649 3.93 3.93 0 0 1-1.474-1.756 3.869 3.869 0 0 1-.233-2.269 3.9 3.9 0 0 1 1.088-2.012 3.985 3.985 0 0 1 2.039-1.074 4.017 4.017 0 0 1 2.299.23c.726.3 1.346.806 1.78 1.455a3.88 3.88 0 0 1 .657 2.186c0 1.031-.416 2.02-1.154 2.75a3.967 3.967 0 0 1-2.787 1.139v0Z" stroke="#434D5B" stroke-width="3" stroke-linecap="round" stroke-linejoin="round"/>
    <path d="M21.658 12.31h.992v-.98h-.992v.98ZM11.99 12.31h.993v-.98h-.992v.98ZM21.658 36.65h.992v-.98h-.992v.98ZM11.99 36.65h.993v-.98h-.992v.98ZM21.658 61.436h.992v-.979h-.992v.98ZM11.99 61.436h.993v-.979h-.992v.98Z" fill="#9BD2FA" stroke="#434D5B" stroke-width="3" stroke-miterlimit="10" stroke-linecap="round"/>
</svg>
