<svg width="16" height="9" viewBox="0 0 16 9" fill="none" xmlns="http://www.w3.org/2000/svg">
<g clip-path="url(#clip0_8054_122444)">
<path d="M4.50845 3.26874C4.50433 3.41914 4.52405 3.56929 4.56698 3.71423C4.61426 3.83817 4.67119 3.95867 4.73732 4.07474C4.76099 4.10907 4.7739 4.14897 4.77458 4.18988C4.77458 4.23992 4.74264 4.29002 4.67347 4.34003L4.33824 4.55028C4.29779 4.57768 4.2497 4.59333 4.1999 4.59531C4.13929 4.59139 4.08239 4.56642 4.04026 4.52524C3.96854 4.45277 3.90437 4.37399 3.84863 4.28999C3.79543 4.2049 3.74217 4.10974 3.68368 3.99466C3.26862 4.45508 2.74712 4.6853 2.11917 4.6853C1.67203 4.6853 1.31566 4.56513 1.05492 4.32478C0.79418 4.08444 0.661133 3.76427 0.661133 3.36384C0.661133 2.93838 0.820765 2.593 1.14538 2.33272C1.47 2.07243 1.90099 1.94228 2.44908 1.94228C2.63785 1.94373 2.82629 1.95711 3.01315 1.98233C3.21004 2.00737 3.41226 2.0474 3.62509 2.09246V1.72706C3.62509 1.34651 3.53992 1.08137 3.375 0.926173C3.20466 0.771009 2.91737 0.695931 2.50761 0.695931C2.31396 0.695923 2.12101 0.717767 1.9329 0.760995C1.73728 0.804832 1.54522 0.861704 1.35818 0.93118C1.29767 0.956648 1.23546 0.978382 1.17194 0.996244C1.14438 1.00479 1.11574 1.00984 1.08677 1.01127C1.01227 1.01127 0.975013 0.961223 0.975013 0.856102V0.610838C0.975013 0.530724 0.985659 0.470638 1.01227 0.435646C1.05243 0.39002 1.10351 0.353995 1.16132 0.330525C1.37475 0.231189 1.59977 0.155601 1.83182 0.10529C2.10297 0.039844 2.38202 0.00787321 2.66195 0.0101827C3.2953 0.0101827 3.75814 0.145318 4.05614 0.415617C4.34882 0.685916 4.49781 1.09636 4.49781 1.64697V3.26874H4.50845ZM2.34801 4.02956C2.53469 4.02763 2.71979 3.9972 2.8961 3.93946C3.09142 3.87591 3.26568 3.76544 3.40161 3.61901C3.48739 3.52675 3.54932 3.41707 3.58254 3.29855C3.6191 3.15598 3.63697 3.00973 3.63574 2.86307V2.65306C3.4744 2.61612 3.31098 2.58771 3.14626 2.56797C2.98032 2.5482 2.81324 2.53821 2.64598 2.53807C2.28945 2.53807 2.02871 2.60313 1.85311 2.73835C1.67751 2.87357 1.59237 3.0637 1.59237 3.31397C1.59237 3.54922 1.65625 3.72442 1.78926 3.84456C1.91702 3.96971 2.10324 4.02976 2.34801 4.02976V4.02956ZM6.62102 4.57016C6.52524 4.57016 6.46139 4.55514 6.41881 4.52012C6.37622 4.49008 6.33899 4.41998 6.30705 4.3249L5.05649 0.455674C5.03225 0.390906 5.01618 0.323684 5.00861 0.255389C5.00861 0.175275 5.0512 0.130239 5.13637 0.130239H5.65785C5.75896 0.130239 5.82819 0.145261 5.86539 0.180282C5.90797 0.210325 5.93988 0.280425 5.97185 0.375503L6.86582 3.68911L7.69592 0.375589C7.72254 0.275446 7.75445 0.210411 7.79703 0.180368C7.83962 0.150325 7.91411 0.130325 8.00996 0.130325H8.4358C8.53691 0.130325 8.60614 0.145347 8.64873 0.180368C8.69131 0.210411 8.72854 0.280511 8.74984 0.375589L9.59061 3.72925L10.5109 0.375589C10.5428 0.275446 10.5801 0.210411 10.6174 0.180368C10.6599 0.150325 10.7291 0.130325 10.8249 0.130325H11.3198C11.405 0.130325 11.4528 0.170382 11.4528 0.255475C11.4516 0.282406 11.448 0.309199 11.4422 0.335589C11.4339 0.378287 11.4214 0.420178 11.4049 0.460739L10.1225 4.32996C10.0906 4.43007 10.0533 4.49514 10.0107 4.52518C9.95058 4.56141 9.87984 4.57891 9.80852 4.57523H9.35086C9.24975 4.57523 9.18052 4.56021 9.13793 4.52518C9.09535 4.49016 9.05812 4.42504 9.03683 4.3249L8.21208 1.09636L7.39257 4.31989C7.36595 4.42003 7.33404 4.48507 7.29146 4.52018C7.24888 4.55528 7.17438 4.57022 7.07854 4.57022L6.62102 4.57016ZM13.4589 4.7053C13.183 4.70557 12.9079 4.67533 12.6394 4.6152C12.3734 4.55511 12.1658 4.49005 12.0275 4.41491C11.9423 4.36988 11.8838 4.31981 11.8625 4.27471C11.8418 4.23052 11.8309 4.18281 11.8306 4.13451V3.87941C11.8306 3.77429 11.8732 3.72424 11.953 3.72424C11.9856 3.72435 12.0179 3.72942 12.0488 3.73927C12.0807 3.74928 12.1286 3.76931 12.1818 3.78931C12.3698 3.86707 12.566 3.9258 12.7672 3.9645C12.9756 4.0043 13.1877 4.02443 13.4004 4.02459C13.7357 4.02459 13.9964 3.96954 14.1774 3.85941C14.264 3.81021 14.3353 3.74029 14.3839 3.65677C14.4326 3.57325 14.4568 3.4791 14.4542 3.3839C14.456 3.31946 14.4443 3.25532 14.4196 3.19517C14.395 3.13503 14.3579 3.08008 14.3105 3.03352C14.2147 2.93841 14.0337 2.85326 13.773 2.77315L13.0013 2.54794C12.6128 2.43283 12.3255 2.26265 12.1499 2.03736C11.9786 1.82962 11.885 1.57446 11.8838 1.31155C11.8795 1.11774 11.929 0.926224 12.0275 0.75593C12.1226 0.594895 12.2533 0.454929 12.4108 0.345489C12.5766 0.227381 12.7642 0.139109 12.9642 0.085118C13.182 0.0261396 13.4079 -0.00248122 13.6345 0.000168458C13.7537 -0.000644276 13.8728 0.00604685 13.991 0.020197C14.1134 0.0352184 14.2253 0.0552469 14.3369 0.0752468C14.4434 0.100282 14.5445 0.125289 14.6403 0.155361C14.7179 0.177954 14.7928 0.208153 14.8638 0.245461C14.9264 0.275182 14.981 0.31799 15.0234 0.37061C15.058 0.419319 15.0748 0.477299 15.0713 0.535788V0.771038C15.0713 0.876159 15.0287 0.931266 14.9489 0.931266C14.9063 0.931266 14.8371 0.911237 14.7467 0.87118C14.4433 0.741033 14.1028 0.675959 13.725 0.675959C13.4216 0.675959 13.1822 0.720995 13.0172 0.816159C12.8523 0.911323 12.7671 1.0565 12.7671 1.26165C12.7657 1.32812 12.7791 1.39413 12.8066 1.45536C12.8342 1.5166 12.8751 1.5717 12.9268 1.61704C13.0332 1.71215 13.2301 1.80726 13.5121 1.89235L14.2678 2.11747C14.651 2.2326 14.9276 2.39278 15.0926 2.59798C15.255 2.79934 15.3412 3.04602 15.3373 3.29875C15.3401 3.4998 15.2927 3.69866 15.199 3.87938C15.1046 4.0507 14.9721 4.20092 14.8105 4.31986C14.6348 4.4485 14.4342 4.54374 14.2198 4.60026C13.9734 4.67157 13.7168 4.70702 13.4589 4.70538L13.4589 4.7053Z" fill="#0E0E0E"/>
<path d="M14.465 7.13831C12.7143 8.35464 10.1707 9.00033 7.98365 9.00033C4.91855 9.00045 2.15677 7.93427 0.0708794 6.16235C-0.0940758 6.02215 0.0549101 5.83199 0.251804 5.94203C2.50804 7.17339 5.2911 7.91914 8.16992 7.91914C10.1122 7.91914 12.246 7.53859 14.2096 6.75785C14.5023 6.6327 14.7524 6.93811 14.4651 7.13839L14.465 7.13831Z" fill="#FF9900"/>
<path d="M15.1941 6.35751C14.9706 6.08721 13.7148 6.22739 13.1454 6.29245C12.975 6.31248 12.9485 6.17228 13.1028 6.06722C14.1032 5.4065 15.7475 5.59669 15.9391 5.81694C16.1307 6.04218 15.8859 7.58887 14.9493 8.32969C14.8056 8.44483 14.6673 8.38474 14.7311 8.23459C14.944 7.73902 15.4176 6.62281 15.1941 6.35751Z" fill="#FF9900"/>
</g>
<defs>
<clipPath id="clip0_8054_122444">
<rect width="15.9997" height="8.99982" fill="white"/>
</clipPath>
</defs>
</svg>
