<svg width="14" height="14" viewBox="0 0 14 14" fill="none" xmlns="http://www.w3.org/2000/svg">
<g clip-path="url(#clip0_13092_69201)">
<path d="M5.70212 8.48941C5.83687 8.20066 5.90453 8.05599 5.99728 8.01107C6.03708 7.99168 6.08077 7.98161 6.12503 7.98161C6.1693 7.98161 6.21299 7.99168 6.25278 8.01107C6.34612 8.05599 6.4132 8.20066 6.54795 8.48941L7.02745 9.51782C7.05428 9.57499 7.0677 9.60299 7.08578 9.62749C7.10227 9.64915 7.12171 9.66839 7.14354 9.68466C7.16804 9.70332 7.19603 9.71674 7.2532 9.74299L8.28162 10.2231C8.57037 10.3578 8.71503 10.4255 8.75995 10.5182C8.77934 10.558 8.78942 10.6017 8.78942 10.646C8.78942 10.6903 8.77934 10.7339 8.75995 10.7737C8.71503 10.8671 8.57037 10.9342 8.28162 11.0689L7.2532 11.5484C7.19603 11.5752 7.16804 11.5887 7.14354 11.6067C7.12167 11.6232 7.10223 11.6426 7.08578 11.6645C7.0677 11.689 7.05428 11.717 7.02745 11.7742L6.54795 12.8026C6.4132 13.0913 6.34553 13.2354 6.25278 13.2809C6.21299 13.3003 6.1693 13.3104 6.12503 13.3104C6.08077 13.3104 6.03708 13.3003 5.99728 13.2809C5.90395 13.2354 5.83687 13.0913 5.70212 12.8026L5.22203 11.7742C5.20655 11.7356 5.18699 11.6989 5.1637 11.6645C5.14743 11.6427 5.12819 11.6232 5.10653 11.6067C5.08203 11.5887 5.05403 11.5752 4.99687 11.5484L3.96845 11.0689C3.6797 10.9342 3.53503 10.8665 3.49012 10.7737C3.47073 10.7339 3.46065 10.6903 3.46065 10.646C3.46065 10.6017 3.47073 10.558 3.49012 10.5182C3.53503 10.4249 3.6797 10.3578 3.96845 10.2231L4.99687 9.74299C5.05345 9.71674 5.08203 9.70332 5.10653 9.68466C5.12836 9.66839 5.1478 9.64915 5.16428 9.62749C5.18237 9.60299 5.19579 9.57499 5.22262 9.51782L5.70212 8.48941ZM10.223 4.40607C10.3577 4.11732 10.4254 3.97266 10.5181 3.92774C10.5579 3.90835 10.6016 3.89827 10.6459 3.89827C10.6901 3.89827 10.7338 3.90835 10.7736 3.92774C10.867 3.97266 10.934 4.11732 11.0688 4.40607L11.6877 5.73257C11.7145 5.78974 11.728 5.81832 11.746 5.84224C11.7623 5.86406 11.7815 5.8835 11.8032 5.89999C11.8277 5.91807 11.8563 5.93149 11.9135 5.95832L13.24 6.57724C13.5287 6.71199 13.6728 6.77966 13.7183 6.87241C13.7377 6.9122 13.7478 6.95589 13.7478 7.00016C13.7478 7.04442 13.7377 7.08811 13.7183 7.12791C13.6728 7.22124 13.5287 7.28832 13.24 7.42307L11.9135 8.04199C11.8563 8.06882 11.8277 8.08224 11.8032 8.10032C11.7816 8.11663 11.7623 8.13587 11.746 8.15749C11.728 8.18199 11.7145 8.21057 11.6877 8.26774L11.0688 9.59424C10.934 9.88299 10.8664 10.0271 10.7736 10.0726C10.7338 10.092 10.6901 10.102 10.6459 10.102C10.6016 10.102 10.5579 10.092 10.5181 10.0726C10.4248 10.0271 10.3577 9.88299 10.223 9.59424L9.60404 8.26774C9.5772 8.21057 9.56378 8.18199 9.5457 8.15749C9.52921 8.13583 9.50977 8.11659 9.48795 8.10032C9.46403 8.08224 9.43545 8.06882 9.37828 8.04199L8.05178 7.42307C7.76303 7.28832 7.61837 7.22066 7.57345 7.12791C7.55406 7.08811 7.54399 7.04442 7.54399 7.00016C7.54399 6.95589 7.55406 6.9122 7.57345 6.87241C7.61837 6.77907 7.76303 6.71199 8.05178 6.57724L9.37828 5.95832C9.43545 5.93149 9.46403 5.91807 9.48795 5.89999C9.50981 5.88354 9.52925 5.8641 9.5457 5.84224C9.56378 5.81832 9.5772 5.78974 9.60404 5.73257L10.223 4.40607ZM3.80628 1.19774C3.94104 0.90899 4.0087 0.764324 4.10145 0.719407C4.14125 0.700018 4.18493 0.689941 4.2292 0.689941C4.27347 0.689941 4.31716 0.700018 4.35695 0.719407C4.45028 0.764324 4.51737 0.90899 4.65212 1.19774L5.41045 2.82291C5.4367 2.87949 5.45012 2.90807 5.46878 2.93257C5.48509 2.95419 5.50433 2.97343 5.52595 2.98974C5.55045 3.00841 5.57845 3.02182 5.63562 3.04807L7.26078 3.80641C7.54953 3.94116 7.6942 4.00882 7.73912 4.10157C7.75851 4.14137 7.76858 4.18506 7.76858 4.22932C7.76858 4.27359 7.75851 4.31728 7.73912 4.35707C7.6942 4.45041 7.54953 4.51749 7.26078 4.65224L5.63562 5.41057C5.57903 5.43682 5.55045 5.45024 5.52595 5.46891C5.50433 5.48522 5.48509 5.50446 5.46878 5.52607C5.45012 5.55057 5.4367 5.57857 5.41045 5.63574L4.65212 7.26091C4.51737 7.54966 4.4497 7.69432 4.35695 7.73924C4.31716 7.75863 4.27347 7.76871 4.2292 7.76871C4.18493 7.76871 4.14125 7.75863 4.10145 7.73924C4.00812 7.69432 3.94104 7.54966 3.80628 7.26091L3.04795 5.63574C3.0217 5.57916 3.00828 5.55057 2.98962 5.52607C2.97331 5.50446 2.95407 5.48522 2.93245 5.46891C2.90795 5.45024 2.87995 5.43682 2.82279 5.41057L1.19762 4.65224C0.908868 4.51749 0.764202 4.44982 0.719285 4.35707C0.699896 4.31728 0.689819 4.27359 0.689819 4.22932C0.689819 4.18506 0.699896 4.14137 0.719285 4.10157C0.764202 4.00824 0.908868 3.94116 1.19762 3.80641L2.82279 3.04807C2.87937 3.02182 2.90795 3.00841 2.93245 2.98974C2.95407 2.97343 2.97331 2.95419 2.98962 2.93257C3.00828 2.90807 3.0217 2.88007 3.04795 2.82291L3.80628 1.19774Z" fill="url(#paint0_linear_13092_69201)"/>
</g>
<defs>
<linearGradient id="paint0_linear_13092_69201" x1="7.21878" y1="0.689941" x2="7.21878" y2="13.3104" gradientUnits="userSpaceOnUse">
<stop stop-color="#E7B474"/>
<stop offset="0.504808" stop-color="#BD4DA1"/>
<stop offset="1" stop-color="#76D5CE"/>
</linearGradient>
<clipPath id="clip0_13092_69201">
<rect width="14" height="14" fill="white"/>
</clipPath>
</defs>
</svg>
