<svg width="14" height="15" viewBox="0 0 14 15" fill="none" xmlns="http://www.w3.org/2000/svg">
<path d="M5.70212 8.98941C5.83687 8.70066 5.90453 8.55599 5.99728 8.51107C6.03708 8.49168 6.08077 8.48161 6.12503 8.48161C6.1693 8.48161 6.21299 8.49168 6.25278 8.51107C6.34612 8.55599 6.4132 8.70066 6.54795 8.98941L7.02745 10.0178C7.05428 10.075 7.0677 10.103 7.08578 10.1275C7.10227 10.1491 7.12171 10.1684 7.14354 10.1847C7.16804 10.2033 7.19603 10.2167 7.2532 10.243L8.28162 10.7231C8.57037 10.8578 8.71503 10.9255 8.75995 11.0182C8.77934 11.058 8.78942 11.1017 8.78942 11.146C8.78942 11.1903 8.77934 11.2339 8.75995 11.2737C8.71503 11.3671 8.57037 11.4342 8.28162 11.5689L7.2532 12.0484C7.19603 12.0752 7.16804 12.0887 7.14354 12.1067C7.12167 12.1232 7.10223 12.1426 7.08578 12.1645C7.0677 12.189 7.05428 12.217 7.02745 12.2742L6.54795 13.3026C6.4132 13.5913 6.34553 13.7354 6.25278 13.7809C6.21299 13.8003 6.1693 13.8104 6.12503 13.8104C6.08077 13.8104 6.03708 13.8003 5.99728 13.7809C5.90395 13.7354 5.83687 13.5913 5.70212 13.3026L5.22203 12.2742C5.20655 12.2356 5.18699 12.1989 5.1637 12.1645C5.14743 12.1427 5.12819 12.1232 5.10653 12.1067C5.08203 12.0887 5.05403 12.0752 4.99687 12.0484L3.96845 11.5689C3.6797 11.4342 3.53503 11.3665 3.49012 11.2737C3.47073 11.2339 3.46065 11.1903 3.46065 11.146C3.46065 11.1017 3.47073 11.058 3.49012 11.0182C3.53503 10.9249 3.6797 10.8578 3.96845 10.7231L4.99687 10.243C5.05345 10.2167 5.08203 10.2033 5.10653 10.1847C5.12836 10.1684 5.1478 10.1491 5.16428 10.1275C5.18237 10.103 5.19579 10.075 5.22262 10.0178L5.70212 8.98941ZM10.223 4.90607C10.3577 4.61732 10.4254 4.47266 10.5181 4.42774C10.5579 4.40835 10.6016 4.39827 10.6459 4.39827C10.6901 4.39827 10.7338 4.40835 10.7736 4.42774C10.867 4.47266 10.934 4.61732 11.0688 4.90607L11.6877 6.23257C11.7145 6.28974 11.728 6.31832 11.746 6.34224C11.7623 6.36406 11.7815 6.3835 11.8032 6.39999C11.8277 6.41807 11.8563 6.43149 11.9135 6.45832L13.24 7.07724C13.5287 7.21199 13.6728 7.27966 13.7183 7.37241C13.7377 7.4122 13.7478 7.45589 13.7478 7.50016C13.7478 7.54442 13.7377 7.58811 13.7183 7.62791C13.6728 7.72124 13.5287 7.78832 13.24 7.92307L11.9135 8.54199C11.8563 8.56882 11.8277 8.58224 11.8032 8.60032C11.7816 8.61663 11.7623 8.63587 11.746 8.65749C11.728 8.68199 11.7145 8.71057 11.6877 8.76774L11.0688 10.0942C10.934 10.383 10.8664 10.5271 10.7736 10.5726C10.7338 10.592 10.6901 10.602 10.6459 10.602C10.6016 10.602 10.5579 10.592 10.5181 10.5726C10.4248 10.5271 10.3577 10.383 10.223 10.0942L9.60404 8.76774C9.5772 8.71057 9.56378 8.68199 9.5457 8.65749C9.52921 8.63583 9.50977 8.61659 9.48795 8.60032C9.46403 8.58224 9.43545 8.56882 9.37828 8.54199L8.05178 7.92307C7.76303 7.78832 7.61837 7.72066 7.57345 7.62791C7.55406 7.58811 7.54399 7.54442 7.54399 7.50016C7.54399 7.45589 7.55406 7.4122 7.57345 7.37241C7.61837 7.27907 7.76303 7.21199 8.05178 7.07724L9.37828 6.45832C9.43545 6.43149 9.46403 6.41807 9.48795 6.39999C9.50981 6.38354 9.52925 6.3641 9.5457 6.34224C9.56378 6.31832 9.5772 6.28974 9.60404 6.23257L10.223 4.90607ZM3.80628 1.69774C3.94104 1.40899 4.0087 1.26432 4.10145 1.21941C4.14125 1.20002 4.18493 1.18994 4.2292 1.18994C4.27347 1.18994 4.31716 1.20002 4.35695 1.21941C4.45028 1.26432 4.51737 1.40899 4.65212 1.69774L5.41045 3.32291C5.4367 3.37949 5.45012 3.40807 5.46878 3.43257C5.48509 3.45419 5.50433 3.47343 5.52595 3.48974C5.55045 3.50841 5.57845 3.52182 5.63562 3.54807L7.26078 4.30641C7.54953 4.44116 7.6942 4.50882 7.73912 4.60157C7.75851 4.64137 7.76858 4.68506 7.76858 4.72932C7.76858 4.77359 7.75851 4.81728 7.73912 4.85707C7.6942 4.95041 7.54953 5.01749 7.26078 5.15224L5.63562 5.91057C5.57903 5.93682 5.55045 5.95024 5.52595 5.96891C5.50433 5.98522 5.48509 6.00446 5.46878 6.02607C5.45012 6.05057 5.4367 6.07857 5.41045 6.13574L4.65212 7.76091C4.51737 8.04966 4.4497 8.19432 4.35695 8.23924C4.31716 8.25863 4.27347 8.26871 4.2292 8.26871C4.18493 8.26871 4.14125 8.25863 4.10145 8.23924C4.00812 8.19432 3.94104 8.04966 3.80628 7.76091L3.04795 6.13574C3.0217 6.07916 3.00828 6.05057 2.98962 6.02607C2.97331 6.00446 2.95407 5.98522 2.93245 5.96891C2.90795 5.95024 2.87995 5.93682 2.82279 5.91057L1.19762 5.15224C0.908868 5.01749 0.764202 4.94982 0.719285 4.85707C0.699896 4.81728 0.689819 4.77359 0.689819 4.72932C0.689819 4.68506 0.699896 4.64137 0.719285 4.60157C0.764202 4.50824 0.908868 4.44116 1.19762 4.30641L2.82279 3.54807C2.87937 3.52182 2.90795 3.50841 2.93245 3.48974C2.95407 3.47343 2.97331 3.45419 2.98962 3.43257C3.00828 3.40807 3.0217 3.38007 3.04795 3.32291L3.80628 1.69774Z" fill="black"/>
</svg>
