<svg width="47" height="47" viewBox="0 0 47 47" fill="none" xmlns="http://www.w3.org/2000/svg">
<path fill-rule="evenodd" clip-rule="evenodd" d="M17.625 21.542C17.625 18.2973 20.2552 15.667 23.5 15.667C26.7448 15.667 29.375 18.2973 29.375 21.542C29.375 24.7868 26.7448 27.417 23.5 27.417C20.2552 27.417 17.625 24.7868 17.625 21.542ZM25.4583 21.542C25.4583 20.4604 24.5816 19.5837 23.5 19.5837C22.4184 19.5837 21.5417 20.4604 21.5417 21.542C21.5417 22.6236 22.4184 23.5003 23.5 23.5003C24.5816 23.5003 25.4583 22.6236 25.4583 21.542Z" fill="white"/>
<path fill-rule="evenodd" clip-rule="evenodd" d="M24.5864 4.24589C23.9286 3.80736 23.0716 3.80736 22.4138 4.24589L21.1283 5.10286C14.0459 9.82452 9.79178 17.7734 9.79178 26.2855V28.4663L4.85191 31.4935C3.96317 32.0381 3.65675 33.1833 4.15484 34.099L8.48597 42.061C8.74253 42.5328 9.18147 42.8784 9.70013 43.0171C10.2188 43.1559 10.7717 43.0756 11.2295 42.795L17.1502 39.167H29.8502L35.7708 42.795C36.2287 43.0756 36.7815 43.1559 37.3001 43.0171C37.8188 42.8784 38.2577 42.5328 38.5142 42.061L42.8455 34.099C43.3435 33.1833 43.037 32.0381 42.1483 31.4935L37.2084 28.4663V26.2855C37.2084 17.7734 32.9543 9.82452 25.8718 5.10286L24.5864 4.24589ZM23.3009 8.36172L23.5001 8.22894L23.6992 8.36172C29.6921 12.357 33.2917 19.0829 33.2917 26.2855V29.5631C33.2917 30.2444 33.646 30.8768 34.2268 31.2328L38.5162 33.8613L36.0591 38.3782L31.4256 35.539C31.1176 35.3502 30.7635 35.2503 30.4024 35.2503H16.5979C16.2367 35.2503 15.8826 35.3502 15.5747 35.539L10.9412 38.3782L8.48413 33.8613L12.7733 31.2328C13.3543 30.8768 13.7084 30.2444 13.7084 29.5631V26.2855C13.7084 19.0829 17.3081 12.357 23.3009 8.36172Z" fill="white"/>
</svg>
