<svg width="14" height="14" viewBox="0 0 14 14" fill="none" xmlns="http://www.w3.org/2000/svg">
<g id="docs" clip-path="url(#clip0_5397_12970)">
<g id="Vector">
<mask id="path-1-inside-1_5397_12970" fill="white">
<path d="M9.69575 5.17824H4.34525C4.12048 5.17824 3.93409 4.99187 3.93409 4.76712C3.93409 4.54234 4.12048 4.35596 4.34525 4.35596H9.69575C9.9205 4.35596 10.1069 4.54234 10.1069 4.76712C10.1069 4.99187 9.92596 5.17824 9.69575 5.17824ZM9.69571 7.42043H4.34524C4.12047 7.42043 3.93408 7.23406 3.93408 7.00931C3.93408 6.78452 4.12047 6.59815 4.34524 6.59815H9.69571C9.9205 6.59815 10.1069 6.78452 10.1069 7.00931C10.1069 7.23406 9.92596 7.42043 9.69571 7.42043ZM7.16302 9.69547H4.35073C4.12596 9.69547 3.93957 9.5091 3.93957 9.28431C3.93957 9.05957 4.12596 8.87319 4.35073 8.87319H7.16302C7.38781 8.87319 7.57418 9.05957 7.57418 9.28431C7.57418 9.5091 7.38781 9.69547 7.16302 9.69547Z"/>
</mask>
<path d="M9.69575 5.17824H4.34525C4.12048 5.17824 3.93409 4.99187 3.93409 4.76712C3.93409 4.54234 4.12048 4.35596 4.34525 4.35596H9.69575C9.9205 4.35596 10.1069 4.54234 10.1069 4.76712C10.1069 4.99187 9.92596 5.17824 9.69575 5.17824ZM9.69571 7.42043H4.34524C4.12047 7.42043 3.93408 7.23406 3.93408 7.00931C3.93408 6.78452 4.12047 6.59815 4.34524 6.59815H9.69571C9.9205 6.59815 10.1069 6.78452 10.1069 7.00931C10.1069 7.23406 9.92596 7.42043 9.69571 7.42043ZM7.16302 9.69547H4.35073C4.12596 9.69547 3.93957 9.5091 3.93957 9.28431C3.93957 9.05957 4.12596 8.87319 4.35073 8.87319H7.16302C7.38781 8.87319 7.57418 9.05957 7.57418 9.28431C7.57418 9.5091 7.38781 9.69547 7.16302 9.69547Z" fill="#0E131E"/>
<path d="M9.69575 4.17824H4.34525V6.17824H9.69575V4.17824ZM4.34525 4.17824C4.67269 4.17824 4.93409 4.43951 4.93409 4.76712H2.93409C2.93409 5.54423 3.56827 6.17824 4.34525 6.17824V4.17824ZM4.93409 4.76712C4.93409 5.09461 4.67277 5.35596 4.34525 5.35596V3.35596C3.56819 3.35596 2.93409 3.99006 2.93409 4.76712H4.93409ZM4.34525 5.35596H9.69575V3.35596H4.34525V5.35596ZM9.69575 5.35596C9.36813 5.35596 9.10687 5.09454 9.10687 4.76712H11.1069C11.1069 3.99014 10.4729 3.35596 9.69575 3.35596V5.35596ZM9.10687 4.76712C9.10687 4.44827 9.36503 4.17824 9.69575 4.17824V6.17824C10.4869 6.17824 11.1069 5.53546 11.1069 4.76712H9.10687ZM9.69571 6.42043H4.34524V8.42043H9.69571V6.42043ZM4.34524 6.42043C4.67268 6.42043 4.93408 6.68169 4.93408 7.00931H2.93408C2.93408 7.78642 3.56826 8.42043 4.34524 8.42043V6.42043ZM4.93408 7.00931C4.93408 7.33682 4.67275 7.59815 4.34524 7.59815V5.59815C3.56819 5.59815 2.93408 6.23223 2.93408 7.00931H4.93408ZM4.34524 7.59815H9.69571V5.59815H4.34524V7.59815ZM9.69571 7.59815C9.36821 7.59815 9.10687 7.33681 9.10687 7.00931H11.1069C11.1069 6.23224 10.4728 5.59815 9.69571 5.59815V7.59815ZM9.10687 7.00931C9.10687 6.69039 9.3651 6.42043 9.69571 6.42043V8.42043C10.4868 8.42043 11.1069 7.77772 11.1069 7.00931H9.10687ZM7.16302 8.69547H4.35073V10.6955H7.16302V8.69547ZM4.35073 8.69547C4.67824 8.69547 4.93957 8.95681 4.93957 9.28431H2.93957C2.93957 10.0614 3.57368 10.6955 4.35073 10.6955V8.69547ZM4.93957 9.28431C4.93957 9.61193 4.67817 9.87319 4.35073 9.87319V7.87319C3.57375 7.87319 2.93957 8.50721 2.93957 9.28431H4.93957ZM4.35073 9.87319H7.16302V7.87319H4.35073V9.87319ZM7.16302 9.87319C6.83559 9.87319 6.57418 9.61192 6.57418 9.28431H8.57418C8.57418 8.50721 7.94002 7.87319 7.16302 7.87319V9.87319ZM6.57418 9.28431C6.57418 8.95681 6.83552 8.69547 7.16302 8.69547V10.6955C7.94009 10.6955 8.57418 10.0614 8.57418 9.28431H6.57418Z" fill="#0E131E" mask="url(#path-1-inside-1_5397_12970)"/>
</g>
<g id="Vector_2">
<mask id="path-3-inside-2_5397_12970" fill="white">
<path d="M9.93134 13.1768H4.1149C2.32775 13.1768 0.875 11.724 0.875 9.93685V4.1149C0.875 2.32775 2.32775 0.875 4.1149 0.875H9.93134C11.7185 0.875 13.1712 2.32775 13.1712 4.1149V9.93134C13.1712 11.724 11.7185 13.1768 9.93134 13.1768ZM4.1149 1.69731C2.78276 1.69731 1.69731 2.78276 1.69731 4.1149V9.93134C1.69731 11.2635 2.78276 12.349 4.1149 12.349H9.93134C11.2635 12.349 12.349 11.2635 12.349 9.93134V4.1149C12.349 2.78276 11.2635 1.69731 9.93134 1.69731H4.1149Z"/>
</mask>
<path d="M9.93134 13.1768H4.1149C2.32775 13.1768 0.875 11.724 0.875 9.93685V4.1149C0.875 2.32775 2.32775 0.875 4.1149 0.875H9.93134C11.7185 0.875 13.1712 2.32775 13.1712 4.1149V9.93134C13.1712 11.724 11.7185 13.1768 9.93134 13.1768ZM4.1149 1.69731C2.78276 1.69731 1.69731 2.78276 1.69731 4.1149V9.93134C1.69731 11.2635 2.78276 12.349 4.1149 12.349H9.93134C11.2635 12.349 12.349 11.2635 12.349 9.93134V4.1149C12.349 2.78276 11.2635 1.69731 9.93134 1.69731H4.1149Z" fill="#0E131E"/>
<path d="M9.93134 12.1768H4.1149V14.1768H9.93134V12.1768ZM4.1149 12.1768C2.88004 12.1768 1.875 11.1717 1.875 9.93685H-0.125C-0.125 12.2763 1.77546 14.1768 4.1149 14.1768V12.1768ZM1.875 9.93685V4.1149H-0.125V9.93685H1.875ZM1.875 4.1149C1.875 2.88003 2.88003 1.875 4.1149 1.875V-0.125C1.77546 -0.125 -0.125 1.77546 -0.125 4.1149H1.875ZM4.1149 1.875H9.93134V-0.125H4.1149V1.875ZM9.93134 1.875C11.1662 1.875 12.1712 2.88003 12.1712 4.1149H14.1712C14.1712 1.77546 12.2708 -0.125 9.93134 -0.125V1.875ZM12.1712 4.1149V9.93134H14.1712V4.1149H12.1712ZM12.1712 9.93134C12.1712 11.1728 11.1651 12.1768 9.93134 12.1768V14.1768C12.2719 14.1768 14.1712 12.2752 14.1712 9.93134H12.1712ZM4.1149 0.697307C2.23047 0.697307 0.697307 2.23047 0.697307 4.1149H2.69731C2.69731 3.33504 3.33504 2.69731 4.1149 2.69731V0.697307ZM0.697307 4.1149V9.93134H2.69731V4.1149H0.697307ZM0.697307 9.93134C0.697307 11.8157 2.23046 13.349 4.1149 13.349V11.349C3.33506 11.349 2.69731 10.7112 2.69731 9.93134H0.697307ZM4.1149 13.349H9.93134V11.349H4.1149V13.349ZM9.93134 13.349C11.8158 13.349 13.349 11.8158 13.349 9.93134H11.349C11.349 10.7112 10.7112 11.349 9.93134 11.349V13.349ZM13.349 9.93134V4.1149H11.349V9.93134H13.349ZM13.349 4.1149C13.349 2.23046 11.8157 0.697307 9.93134 0.697307V2.69731C10.7112 2.69731 11.349 3.33506 11.349 4.1149H13.349ZM9.93134 0.697307H4.1149V2.69731H9.93134V0.697307Z" fill="#0E131E" mask="url(#path-3-inside-2_5397_12970)"/>
</g>
<g id="Vector_3">
<mask id="path-5-inside-3_5397_12970" fill="white">
<path d="M10.1231 12.8479C9.89829 12.8479 9.71191 12.6615 9.71191 12.4367V10.984C9.71191 10.3152 10.2546 9.77246 10.9234 9.77246H12.1405C12.3652 9.77246 12.5516 9.95884 12.5516 10.1836C12.5516 10.4084 12.3652 10.5948 12.1405 10.5948H10.9234C10.7096 10.5948 10.5342 10.7702 10.5342 10.984V12.4367C10.5342 12.667 10.3478 12.8479 10.1231 12.8479Z"/>
</mask>
<path d="M10.1231 12.8479C9.89829 12.8479 9.71191 12.6615 9.71191 12.4367V10.984C9.71191 10.3152 10.2546 9.77246 10.9234 9.77246H12.1405C12.3652 9.77246 12.5516 9.95884 12.5516 10.1836C12.5516 10.4084 12.3652 10.5948 12.1405 10.5948H10.9234C10.7096 10.5948 10.5342 10.7702 10.5342 10.984V12.4367C10.5342 12.667 10.3478 12.8479 10.1231 12.8479Z" fill="#0E131E"/>
<path d="M10.1231 11.8479C10.4506 11.8479 10.7119 12.1093 10.7119 12.4367H8.71191C8.71191 13.2137 9.34594 13.8479 10.1231 13.8479V11.8479ZM10.7119 12.4367V10.984H8.71191V12.4367H10.7119ZM10.7119 10.984C10.7119 10.8675 10.8069 10.7725 10.9234 10.7725V8.77246C9.70235 8.77246 8.71191 9.76289 8.71191 10.984H10.7119ZM10.9234 10.7725H12.1405V8.77246H10.9234V10.7725ZM12.1405 10.7725C11.813 10.7725 11.5516 10.5112 11.5516 10.1836H13.5516C13.5516 9.40648 12.9174 8.77246 12.1405 8.77246V10.7725ZM11.5516 10.1836C11.5516 9.85608 11.8129 9.59479 12.1405 9.59479V11.5948C12.9175 11.5948 13.5516 10.9607 13.5516 10.1836H11.5516ZM12.1405 9.59479H10.9234V11.5948H12.1405V9.59479ZM10.9234 9.59479C10.1573 9.59479 9.53424 10.2179 9.53424 10.984H11.5342C11.5342 11.3225 11.2619 11.5948 10.9234 11.5948V9.59479ZM9.53424 10.984V12.4367H11.5342V10.984H9.53424ZM9.53424 12.4367C9.53424 12.106 9.80429 11.8479 10.1231 11.8479V13.8479C10.8913 13.8479 11.5342 13.228 11.5342 12.4367H9.53424Z" fill="#0E131E" mask="url(#path-5-inside-3_5397_12970)"/>
</g>
</g>
<defs>
<clipPath id="clip0_5397_12970">
<rect width="14" height="14" fill="white"/>
</clipPath>
</defs>
</svg>
