<svg width="14" height="14" viewBox="0 0 14 14" fill="none" xmlns="http://www.w3.org/2000/svg">
<g clip-path="url(#clip0_8278_16668)">
<mask id="path-1-inside-1_8278_16668" fill="white">
<path d="M9.69575 5.17775H4.34525C4.12048 5.17775 3.93409 4.99138 3.93409 4.76664C3.93409 4.54185 4.12048 4.35547 4.34525 4.35547H9.69575C9.9205 4.35547 10.1069 4.54185 10.1069 4.76664C10.1069 4.99138 9.92596 5.17775 9.69575 5.17775ZM9.69571 7.41994H4.34524C4.12047 7.41994 3.93408 7.23357 3.93408 7.00882C3.93408 6.78404 4.12047 6.59766 4.34524 6.59766H9.69571C9.9205 6.59766 10.1069 6.78404 10.1069 7.00882C10.1069 7.23357 9.92596 7.41994 9.69571 7.41994ZM7.16302 9.69499H4.35073C4.12596 9.69499 3.93957 9.50861 3.93957 9.28382C3.93957 9.05908 4.12596 8.8727 4.35073 8.8727H7.16302C7.38781 8.8727 7.57418 9.05908 7.57418 9.28382C7.57418 9.50861 7.38781 9.69499 7.16302 9.69499Z"/>
</mask>
<path d="M9.69575 5.17775H4.34525C4.12048 5.17775 3.93409 4.99138 3.93409 4.76664C3.93409 4.54185 4.12048 4.35547 4.34525 4.35547H9.69575C9.9205 4.35547 10.1069 4.54185 10.1069 4.76664C10.1069 4.99138 9.92596 5.17775 9.69575 5.17775ZM9.69571 7.41994H4.34524C4.12047 7.41994 3.93408 7.23357 3.93408 7.00882C3.93408 6.78404 4.12047 6.59766 4.34524 6.59766H9.69571C9.9205 6.59766 10.1069 6.78404 10.1069 7.00882C10.1069 7.23357 9.92596 7.41994 9.69571 7.41994ZM7.16302 9.69499H4.35073C4.12596 9.69499 3.93957 9.50861 3.93957 9.28382C3.93957 9.05908 4.12596 8.8727 4.35073 8.8727H7.16302C7.38781 8.8727 7.57418 9.05908 7.57418 9.28382C7.57418 9.50861 7.38781 9.69499 7.16302 9.69499Z" fill="#FBFBFB"/>
<path d="M9.69575 4.17775H4.34525V6.17775H9.69575V4.17775ZM4.34525 4.17775C4.67269 4.17775 4.93409 4.43902 4.93409 4.76664H2.93409C2.93409 5.54374 3.56827 6.17775 4.34525 6.17775V4.17775ZM4.93409 4.76664C4.93409 5.09413 4.67277 5.35547 4.34525 5.35547V3.35547C3.56819 3.35547 2.93409 3.98957 2.93409 4.76664H4.93409ZM4.34525 5.35547H9.69575V3.35547H4.34525V5.35547ZM9.69575 5.35547C9.36813 5.35547 9.10687 5.09405 9.10687 4.76664H11.1069C11.1069 3.98965 10.4729 3.35547 9.69575 3.35547V5.35547ZM9.10687 4.76664C9.10687 4.44778 9.36503 4.17775 9.69575 4.17775V6.17775C10.4869 6.17775 11.1069 5.53497 11.1069 4.76664H9.10687ZM9.69571 6.41994H4.34524V8.41994H9.69571V6.41994ZM4.34524 6.41994C4.67268 6.41994 4.93408 6.68121 4.93408 7.00882H2.93408C2.93408 7.78593 3.56826 8.41994 4.34524 8.41994V6.41994ZM4.93408 7.00882C4.93408 7.33633 4.67275 7.59766 4.34524 7.59766V5.59766C3.56819 5.59766 2.93408 6.23174 2.93408 7.00882H4.93408ZM4.34524 7.59766H9.69571V5.59766H4.34524V7.59766ZM9.69571 7.59766C9.36821 7.59766 9.10687 7.33632 9.10687 7.00882H11.1069C11.1069 6.23175 10.4728 5.59766 9.69571 5.59766V7.59766ZM9.10687 7.00882C9.10687 6.6899 9.3651 6.41994 9.69571 6.41994V8.41994C10.4868 8.41994 11.1069 7.77723 11.1069 7.00882H9.10687ZM7.16302 8.69499H4.35073V10.695H7.16302V8.69499ZM4.35073 8.69499C4.67824 8.69499 4.93957 8.95632 4.93957 9.28382H2.93957C2.93957 10.0609 3.57368 10.695 4.35073 10.695V8.69499ZM4.93957 9.28382C4.93957 9.61144 4.67817 9.8727 4.35073 9.8727V7.8727C3.57375 7.8727 2.93957 8.50672 2.93957 9.28382H4.93957ZM4.35073 9.8727H7.16302V7.8727H4.35073V9.8727ZM7.16302 9.8727C6.83559 9.8727 6.57418 9.61143 6.57418 9.28382H8.57418C8.57418 8.50672 7.94002 7.8727 7.16302 7.8727V9.8727ZM6.57418 9.28382C6.57418 8.95633 6.83552 8.69499 7.16302 8.69499V10.695C7.94009 10.695 8.57418 10.0609 8.57418 9.28382H6.57418Z" fill="#FBFBFB" mask="url(#path-1-inside-1_8278_16668)"/>
<mask id="path-3-inside-2_8278_16668" fill="white">
<path d="M9.93134 13.1768H4.1149C2.32775 13.1768 0.875 11.724 0.875 9.93685V4.1149C0.875 2.32775 2.32775 0.875 4.1149 0.875H9.93134C11.7185 0.875 13.1712 2.32775 13.1712 4.1149V9.93134C13.1712 11.724 11.7185 13.1768 9.93134 13.1768ZM4.1149 1.69731C2.78276 1.69731 1.69731 2.78276 1.69731 4.1149V9.93134C1.69731 11.2635 2.78276 12.349 4.1149 12.349H9.93134C11.2635 12.349 12.349 11.2635 12.349 9.93134V4.1149C12.349 2.78276 11.2635 1.69731 9.93134 1.69731H4.1149Z"/>
</mask>
<path d="M9.93134 13.1768H4.1149C2.32775 13.1768 0.875 11.724 0.875 9.93685V4.1149C0.875 2.32775 2.32775 0.875 4.1149 0.875H9.93134C11.7185 0.875 13.1712 2.32775 13.1712 4.1149V9.93134C13.1712 11.724 11.7185 13.1768 9.93134 13.1768ZM4.1149 1.69731C2.78276 1.69731 1.69731 2.78276 1.69731 4.1149V9.93134C1.69731 11.2635 2.78276 12.349 4.1149 12.349H9.93134C11.2635 12.349 12.349 11.2635 12.349 9.93134V4.1149C12.349 2.78276 11.2635 1.69731 9.93134 1.69731H4.1149Z" fill="#FBFBFB"/>
<path d="M9.93134 12.1768H4.1149V14.1768H9.93134V12.1768ZM4.1149 12.1768C2.88004 12.1768 1.875 11.1717 1.875 9.93685H-0.125C-0.125 12.2763 1.77546 14.1768 4.1149 14.1768V12.1768ZM1.875 9.93685V4.1149H-0.125V9.93685H1.875ZM1.875 4.1149C1.875 2.88003 2.88003 1.875 4.1149 1.875V-0.125C1.77546 -0.125 -0.125 1.77546 -0.125 4.1149H1.875ZM4.1149 1.875H9.93134V-0.125H4.1149V1.875ZM9.93134 1.875C11.1662 1.875 12.1712 2.88003 12.1712 4.1149H14.1712C14.1712 1.77546 12.2708 -0.125 9.93134 -0.125V1.875ZM12.1712 4.1149V9.93134H14.1712V4.1149H12.1712ZM12.1712 9.93134C12.1712 11.1728 11.1651 12.1768 9.93134 12.1768V14.1768C12.2719 14.1768 14.1712 12.2752 14.1712 9.93134H12.1712ZM4.1149 0.697307C2.23047 0.697307 0.697307 2.23047 0.697307 4.1149H2.69731C2.69731 3.33504 3.33504 2.69731 4.1149 2.69731V0.697307ZM0.697307 4.1149V9.93134H2.69731V4.1149H0.697307ZM0.697307 9.93134C0.697307 11.8157 2.23046 13.349 4.1149 13.349V11.349C3.33506 11.349 2.69731 10.7112 2.69731 9.93134H0.697307ZM4.1149 13.349H9.93134V11.349H4.1149V13.349ZM9.93134 13.349C11.8158 13.349 13.349 11.8158 13.349 9.93134H11.349C11.349 10.7112 10.7112 11.349 9.93134 11.349V13.349ZM13.349 9.93134V4.1149H11.349V9.93134H13.349ZM13.349 4.1149C13.349 2.23046 11.8157 0.697307 9.93134 0.697307V2.69731C10.7112 2.69731 11.349 3.33506 11.349 4.1149H13.349ZM9.93134 0.697307H4.1149V2.69731H9.93134V0.697307Z" fill="#FBFBFB" mask="url(#path-3-inside-2_8278_16668)"/>
<mask id="path-5-inside-3_8278_16668" fill="white">
<path d="M10.1231 12.8469C9.89829 12.8469 9.71191 12.6605 9.71191 12.4358V10.983C9.71191 10.3142 10.2546 9.77148 10.9234 9.77148H12.1405C12.3652 9.77148 12.5516 9.95786 12.5516 10.1826C12.5516 10.4074 12.3652 10.5938 12.1405 10.5938H10.9234C10.7096 10.5938 10.5342 10.7692 10.5342 10.983V12.4358C10.5342 12.666 10.3478 12.8469 10.1231 12.8469Z"/>
</mask>
<path d="M10.1231 12.8469C9.89829 12.8469 9.71191 12.6605 9.71191 12.4358V10.983C9.71191 10.3142 10.2546 9.77148 10.9234 9.77148H12.1405C12.3652 9.77148 12.5516 9.95786 12.5516 10.1826C12.5516 10.4074 12.3652 10.5938 12.1405 10.5938H10.9234C10.7096 10.5938 10.5342 10.7692 10.5342 10.983V12.4358C10.5342 12.666 10.3478 12.8469 10.1231 12.8469Z" fill="#FBFBFB"/>
<path d="M10.1231 11.8469C10.4506 11.8469 10.7119 12.1083 10.7119 12.4358H8.71191C8.71191 13.2127 9.34594 13.8469 10.1231 13.8469V11.8469ZM10.7119 12.4358V10.983H8.71191V12.4358H10.7119ZM10.7119 10.983C10.7119 10.8665 10.8069 10.7715 10.9234 10.7715V8.77148C9.70235 8.77148 8.71191 9.76192 8.71191 10.983H10.7119ZM10.9234 10.7715H12.1405V8.77148H10.9234V10.7715ZM12.1405 10.7715C11.813 10.7715 11.5516 10.5102 11.5516 10.1826H13.5516C13.5516 9.4055 12.9174 8.77148 12.1405 8.77148V10.7715ZM11.5516 10.1826C11.5516 9.8551 11.8129 9.59381 12.1405 9.59381V11.5938C12.9175 11.5938 13.5516 10.9597 13.5516 10.1826H11.5516ZM12.1405 9.59381H10.9234V11.5938H12.1405V9.59381ZM10.9234 9.59381C10.1573 9.59381 9.53424 10.2169 9.53424 10.983H11.5342C11.5342 11.3215 11.2619 11.5938 10.9234 11.5938V9.59381ZM9.53424 10.983V12.4358H11.5342V10.983H9.53424ZM9.53424 12.4358C9.53424 12.105 9.80429 11.8469 10.1231 11.8469V13.8469C10.8913 13.8469 11.5342 13.227 11.5342 12.4358H9.53424Z" fill="#FBFBFB" mask="url(#path-5-inside-3_8278_16668)"/>
</g>
<defs>
<clipPath id="clip0_8278_16668">
<rect width="14" height="14" fill="white"/>
</clipPath>
</defs>
</svg>
