<svg width="17" height="17" viewBox="0 0 17 17" fill="none" xmlns="http://www.w3.org/2000/svg">
<path d="M8.50065 9.20866C8.285 9.20614 8.07375 9.26974 7.89534 9.39091C7.71693 9.51208 7.57992 9.685 7.50276 9.8864C7.4256 10.0878 7.41199 10.308 7.46376 10.5173C7.51553 10.7267 7.63019 10.9152 7.79232 11.0574V12.042C7.79232 12.2299 7.86695 12.41 7.99978 12.5429C8.13262 12.6757 8.31279 12.7503 8.50065 12.7503C8.68851 12.7503 8.86868 12.6757 9.00152 12.5429C9.13436 12.41 9.20898 12.2299 9.20898 12.042V11.0574C9.37111 10.9152 9.48578 10.7267 9.53755 10.5173C9.58932 10.308 9.5757 10.0878 9.49854 9.8864C9.42138 9.685 9.28437 9.51208 9.10596 9.39091C8.92755 9.26974 8.7163 9.20614 8.50065 9.20866ZM12.0423 6.37533V4.95866C12.0423 4.01935 11.6692 3.11851 11.005 2.45432C10.3408 1.79013 9.43996 1.41699 8.50065 1.41699C7.56134 1.41699 6.66051 1.79013 5.99631 2.45432C5.33212 3.11851 4.95898 4.01935 4.95898 4.95866V6.37533C4.3954 6.37533 3.8549 6.59921 3.45638 6.99772C3.05787 7.39624 2.83398 7.93674 2.83398 8.50033V13.4587C2.83398 14.0222 3.05787 14.5627 3.45638 14.9613C3.8549 15.3598 4.3954 15.5837 4.95898 15.5837H12.0423C12.6059 15.5837 13.1464 15.3598 13.5449 14.9613C13.9434 14.5627 14.1673 14.0222 14.1673 13.4587V8.50033C14.1673 7.93674 13.9434 7.39624 13.5449 6.99772C13.1464 6.59921 12.6059 6.37533 12.0423 6.37533ZM6.37565 4.95866C6.37565 4.39507 6.59953 3.85457 6.99805 3.45606C7.39656 3.05754 7.93707 2.83366 8.50065 2.83366C9.06424 2.83366 9.60474 3.05754 10.0033 3.45606C10.4018 3.85457 10.6257 4.39507 10.6257 4.95866V6.37533H6.37565V4.95866ZM12.7507 13.4587C12.7507 13.6465 12.676 13.8267 12.5432 13.9595C12.4103 14.0924 12.2302 14.167 12.0423 14.167H4.95898C4.77112 14.167 4.59096 14.0924 4.45812 13.9595C4.32528 13.8267 4.25065 13.6465 4.25065 13.4587V8.50033C4.25065 8.31246 4.32528 8.1323 4.45812 7.99946C4.59096 7.86662 4.77112 7.79199 4.95898 7.79199H12.0423C12.2302 7.79199 12.4103 7.86662 12.5432 7.99946C12.676 8.1323 12.7507 8.31246 12.7507 8.50033V13.4587Z" fill="#6C7A8D"/>
</svg>
