<svg width="8" height="8" viewBox="0 0 8 8" fill="none" xmlns="http://www.w3.org/2000/svg">
<g id="rocket-1" clip-path="url(#clip0_5757_187378)">
<path id="Vector" d="M7.9573 0.114595C7.95017 0.0847704 7.92879 0.0619635 7.8985 0.054946C6.92923 -0.178387 4.68959 0.653192 3.47623 1.84792C3.23926 2.08126 3.04505 2.31108 2.88647 2.53389C2.51231 2.50055 2.13814 2.52863 1.81921 2.66547C0.919441 3.05494 0.657526 4.07248 0.584474 4.50933C0.566657 4.61284 0.653962 4.70231 0.759085 4.69178L2.20407 4.53564C2.20585 4.67248 2.21476 4.78126 2.22367 4.8567C2.23079 4.93038 2.26465 4.9988 2.3181 5.05143L2.87756 5.60231C2.93102 5.65494 3.0005 5.68827 3.07534 5.69529C3.15195 5.70406 3.26242 5.71284 3.39961 5.71459L3.24104 7.13564C3.23035 7.23915 3.32122 7.32512 3.42634 7.30757C3.86999 7.2374 4.90518 6.9795 5.29894 6.09354C5.43792 5.7795 5.46643 5.41284 5.43436 5.04617C5.66064 4.89003 5.89583 4.6988 6.1328 4.46547C7.35151 3.27248 8.1907 1.11635 7.9573 0.114595ZM5.0495 2.91985C4.75195 2.62687 4.75195 2.15319 5.0495 1.8602C5.34705 1.56723 5.82812 1.56723 6.12567 1.8602C6.42322 2.15319 6.42322 2.62687 6.12567 2.91985C5.82812 3.21284 5.34705 3.21284 5.0495 2.91985Z" fill="#6C7A8D"/>
<path id="Vector_2" d="M0.349908 5.9648L0.409242 5.91715C0.478729 5.86669 0.690491 5.75729 0.821548 5.7828C0.702886 5.81538 0.474202 5.9085 0.308734 6.11422C-0.145241 6.67976 -0.0247486 7.28346 0.337725 7.87895L0.407287 7.98434C0.484132 7.54467 0.598744 7.29115 0.826257 7.16192C0.907941 7.11555 1.00524 7.10746 1.07032 7.09113C1.07032 7.09113 0.986473 7.13836 0.899684 7.21466C0.821402 7.2829 0.757097 7.3965 0.763112 7.49983C0.849732 7.39422 0.954975 7.34717 1.07421 7.32646C1.42874 7.26509 1.80538 7.52746 2.26704 7.18932L2.28837 7.17152C2.58982 6.91969 2.72221 6.56578 2.66289 6.20562C2.62622 6.30088 2.52246 6.43701 2.3521 6.51943C2.4661 6.38618 2.48752 6.27324 2.52431 6.13888C2.55093 6.03871 2.54168 5.94281 2.50644 5.83917C2.47121 5.73553 2.39923 5.63406 2.31875 5.54066C2.053 5.23222 1.78186 5.12032 1.46806 5.11915C1.15427 5.11797 0.933473 5.26059 0.717913 5.44066C0.502353 5.62073 0.416531 5.77322 0.349908 5.9648Z" fill="#6C7A8D"/>
</g>
<defs>
<clipPath id="clip0_5757_187378">
<rect width="8" height="8" fill="white"/>
</clipPath>
</defs>
</svg>
