<svg width="49" height="48" viewBox="0 0 49 48" fill="none" xmlns="http://www.w3.org/2000/svg">
<rect x="1.2" y="0.7" width="46.6" height="46.6" rx="23.3" fill="white"/>
<rect x="1.2" y="0.7" width="46.6" height="46.6" rx="23.3" stroke="#E0E0E0" stroke-width="0.6"/>
<path d="M38.7344 24.6175C38.17 24.6175 37.7106 24.1582 37.7106 23.5938C37.7106 23.3435 37.5078 23.1406 37.2575 23.1406H32.8438V17.25C32.8438 16.0008 31.8273 14.9844 30.5781 14.9844H16.0781C14.8289 14.9844 13.8125 16.0008 13.8125 17.25V28.125C13.8125 29.3742 14.8289 30.3906 16.0781 30.3906H20.9352L20.2555 33.1094H19.7031C19.4529 33.1094 19.25 33.3123 19.25 33.5625C19.25 33.8127 19.4529 34.0156 19.7031 34.0156H26.9531C27.2034 34.0156 27.4063 33.8127 27.4063 33.5625C27.4063 33.3123 27.2034 33.1094 26.9531 33.1094H26.4007L25.721 30.3906H29.2816C30.1997 32.0522 31.7154 33.3619 33.6066 33.9924C33.6999 34.0234 33.8001 34.0234 33.8934 33.9924C37.0599 32.9368 39.1875 29.9848 39.1875 26.647V25.0706C39.1875 24.8204 38.9846 24.6175 38.7344 24.6175ZM25.4665 33.1094H21.1898L21.8695 30.3906H24.7868L25.4665 33.1094ZM16.0781 29.4844C15.3285 29.4844 14.7188 28.8746 14.7188 28.125V17.25C14.7188 16.5004 15.3285 15.8906 16.0781 15.8906H30.5781C31.3277 15.8906 31.9375 16.5004 31.9375 17.25V23.1406H30.2425C29.9923 23.1406 29.7894 23.3435 29.7894 23.5938C29.7894 24.1582 29.33 24.6175 28.7656 24.6175C28.5154 24.6175 28.3125 24.8204 28.3125 25.0706V26.3125H16.5313C16.281 26.3125 16.0781 26.5154 16.0781 26.7656C16.0781 27.0159 16.281 27.2188 16.5313 27.2188H28.3352C28.3931 28.0087 28.5723 28.77 28.8535 29.4844H16.0781ZM38.2813 26.647C38.2813 29.5434 36.4665 32.1109 33.75 33.083C31.0209 32.1072 29.217 29.5163 29.2188 26.647V25.47C29.9197 25.3007 30.4726 24.7478 30.6418 24.0469H36.8582C37.0274 24.7478 37.5803 25.3007 38.2812 25.47L38.2813 26.647Z" fill="#4259A1"/>
<path d="M20.8506 24.0454C23.2568 26.1518 27.2221 24.341 27.1806 21.1015C27.1806 18.9778 25.4528 17.25 23.329 17.25C19.7418 17.2515 18.1287 21.7765 20.8506 24.0454ZM21.6465 23.5155C22.2227 22.0075 24.4357 22.0078 25.0115 23.5156C24.0732 24.2152 22.5848 24.2153 21.6465 23.5155ZM22.6493 20.7843C22.6653 19.8911 23.9929 19.8912 24.0087 20.7843C23.9928 21.6775 22.6652 21.6774 22.6493 20.7843ZM23.329 18.1563C25.7163 18.1216 27.1412 20.9805 25.6902 22.8545C25.4263 22.3895 25.033 22.0134 24.5611 21.7704C24.779 21.4988 24.915 21.1588 24.915 20.7843C24.8483 18.6885 21.8095 18.6889 21.7431 20.7843C21.7431 21.1588 21.879 21.4988 22.097 21.7704C21.6251 22.0134 21.2318 22.3895 20.9678 22.8546C19.5173 20.9803 20.9415 18.1215 23.329 18.1563ZM33.7509 26.7656C32.2287 26.7801 31.8799 28.8935 33.2978 29.4009C33.2978 29.4009 33.2978 29.9375 33.2978 29.9375C33.3077 30.5325 34.1939 30.5335 34.204 29.9375C34.204 29.9375 34.204 29.4009 34.204 29.4009C35.6218 28.8939 35.2729 26.7794 33.7509 26.7656ZM33.7509 28.5781C33.1555 28.5674 33.1556 27.6825 33.7509 27.6719C34.3464 27.6826 34.3463 28.5675 33.7509 28.5781Z" fill="#4259A1"/>
</svg>
