<svg width="8" height="9" viewBox="0 0 8 9" fill="none" xmlns="http://www.w3.org/2000/svg">
<g id="thunder" clip-path="url(#clip0_6858_30733)">
<path id="Vector" d="M3.75003 0.75C3.70472 0.75003 3.66027 0.762374 3.62143 0.785713C3.58259 0.809051 3.55082 0.842505 3.52953 0.8825L1.52953 4.63275C1.50919 4.67084 1.49907 4.71355 1.50014 4.75671C1.50121 4.79988 1.51345 4.84203 1.53565 4.87906C1.55785 4.91609 1.58927 4.94674 1.62684 4.96802C1.66441 4.98931 1.70685 5.00049 1.75003 5.0005H2.95878L2.50303 7.9625C2.49478 8.01659 2.50451 8.07189 2.53072 8.11992C2.55693 8.16795 2.59817 8.20605 2.64812 8.22839C2.69807 8.25072 2.75397 8.25606 2.80724 8.24357C2.86051 8.23108 2.90821 8.20146 2.94303 8.15925L6.44328 3.90875C6.47334 3.87218 6.4924 3.82782 6.49824 3.78084C6.50408 3.73386 6.49646 3.68619 6.47627 3.64337C6.45608 3.60055 6.42414 3.56435 6.38418 3.53896C6.34422 3.51358 6.29787 3.50007 6.25053 3.5H4.67128L5.96953 1.11975C5.9903 1.08169 6.00081 1.03889 6.00003 0.995535C5.99926 0.952186 5.98723 0.909783 5.96511 0.87249C5.943 0.835196 5.91157 0.804295 5.8739 0.782821C5.83624 0.761346 5.79363 0.750035 5.75028 0.75H3.75003Z" fill="#6C7A8D"/>
</g>
<defs>
<clipPath id="clip0_6858_30733">
<rect width="8" height="8" fill="white" transform="translate(0 0.5)"/>
</clipPath>
</defs>
</svg>
