<svg width="16" height="16" viewBox="0 0 16 16" fill="none" xmlns="http://www.w3.org/2000/svg">
    <g clip-path="url(#clip0_3234_31638)">
        <path d="M2.00377 7.84189C2.00377 6.70594 2.00579 5.56996 2.00111 4.43403C2.00054 4.2997 2.04871 4.22147 2.15567 4.15769C2.96032 3.6778 3.76402 3.19624 4.56677 2.71302L6.31193 1.66643C6.65552 1.4602 6.99717 1.25038 7.34379 1.04985C7.40054 1.01701 7.50007 0.991311 7.54114 1.02068C7.59133 1.05643 7.62259 1.15349 7.62399 1.22483C7.63087 1.58212 7.62468 1.93965 7.62463 2.29711C7.62463 2.84125 7.62176 3.38544 7.6289 3.92949C7.63108 4.09605 7.5746 4.19492 7.43184 4.27891C6.57816 4.78122 5.73065 5.29454 4.87979 5.802C4.78389 5.8592 4.74015 5.93135 4.74045 6.04989C4.74351 7.24543 4.74351 8.44097 4.74045 9.63651C4.74015 9.75471 4.78038 9.82507 4.87844 9.88354C5.86839 10.4738 6.85691 11.0667 7.84399 11.6621C7.95387 11.7284 8.04401 11.7367 8.16068 11.6657C8.96443 11.1764 9.77079 10.6917 10.5798 10.2117C10.9461 9.99335 10.8391 10.0056 11.1708 10.2026C11.8934 10.6316 12.6106 11.0705 13.3341 11.4978C13.5227 11.6092 13.4746 11.7586 13.3301 11.8445C11.8424 12.73 10.3566 13.619 8.87277 14.5116C8.62493 14.6601 8.37546 14.806 8.13007 14.9588C8.04445 15.0122 7.97235 15.0145 7.88553 14.9622C7.26468 14.5879 6.64173 14.2174 6.01982 13.8449C4.8558 13.1476 3.69197 12.45 2.52833 11.7521C2.39941 11.6749 2.27225 11.5942 2.14142 11.5206C2.03985 11.4634 1.99946 11.3847 1.99985 11.2617C2.00354 10.1218 2.00203 8.98184 2.00203 7.84191L2.00377 7.84189Z" fill="#157CFF"/>
        <path d="M13.9965 7.53787V10.5639C13.9965 10.6076 13.9979 10.6514 13.9948 10.695C13.9849 10.8368 13.8833 10.8976 13.7628 10.8276C13.4494 10.6457 13.1372 10.4613 12.8263 10.2746C12.3599 9.99526 11.8964 9.71045 11.4277 9.43515C11.3144 9.36861 11.2668 9.29186 11.2675 9.15289C11.2728 8.12439 11.2687 7.09589 11.2724 6.06732C11.2728 5.94197 11.237 5.86169 11.1295 5.79798C10.4959 5.42241 9.86542 5.04109 9.23379 4.66186C8.98915 4.51499 8.74498 4.36733 8.49907 4.22272C8.42382 4.17846 8.39513 4.11768 8.39529 4.0286C8.39692 3.08348 8.39546 2.13845 8.39649 1.19321C8.39669 1.01301 8.5024 0.951444 8.65264 1.04154C9.21501 1.37872 9.77708 1.71647 10.3388 2.05479C11.4995 2.7519 12.6606 3.44796 13.8224 4.14299C13.9527 4.2205 14.0008 4.30984 14 4.46434C13.9943 5.48886 13.997 6.51343 13.997 7.53799L13.9965 7.53787Z" fill="#3A52DD"/>
        <path d="M7.31024 7.46335C7.34308 7.43337 7.37794 7.40541 7.40844 7.37306C7.87608 6.8771 8.3421 6.37948 8.81231 5.88616C8.85484 5.84494 8.90975 5.82021 8.96779 5.81613C9.16181 5.80786 9.35637 5.81287 9.58636 5.81287C9.45872 5.95142 9.35343 6.06714 9.24672 6.18136C8.80764 6.65108 8.36804 7.12019 7.92792 7.58868C7.8667 7.65354 7.86406 7.69642 7.92446 7.76609C8.48674 8.41473 9.04702 9.06524 9.60529 9.71762C9.62911 9.74531 9.65 9.77575 9.68981 9.82797C9.45615 9.82797 9.2515 9.83212 9.04726 9.82416C9.01054 9.82273 8.96997 9.77666 8.94052 9.7425C8.42819 9.14866 7.91672 8.55405 7.4061 7.95865C7.37645 7.92414 7.34574 7.8906 7.29179 7.82994C7.28232 7.88691 7.27569 7.94434 7.27192 8.00201C7.27107 8.56186 7.26877 9.12173 7.27444 9.68153C7.27564 9.80109 7.24371 9.84747 7.12603 9.83346C7.04231 9.82401 6.95785 9.82395 6.87411 9.83327C6.75918 9.84549 6.72313 9.80454 6.72405 9.68167C6.72942 8.96701 6.72662 8.25228 6.72659 7.53758C6.72659 7.00948 6.72935 6.48136 6.7243 5.95333C6.72327 5.84369 6.75429 5.80204 6.86036 5.81141C6.94799 5.81984 7.03619 5.81989 7.12383 5.81155C7.23857 5.79964 7.27582 5.84032 7.27398 5.9627C7.26728 6.4073 7.27082 6.85207 7.27128 7.29677C7.27128 7.34682 7.27642 7.39666 7.27917 7.4466L7.31024 7.46335Z" fill="#3C54DF"/>
    </g>
    <defs>
        <clipPath id="clip0_3234_31638">
            <rect width="12" height="14" transform="translate(2 1)"/>
        </clipPath>
    </defs>
</svg>
