<svg width="98" height="90" fill="none" xmlns="http://www.w3.org/2000/svg">
    <path d="M40.383 15.015h17.264M40.383 74.985h17.264M16.814 36.384v17.232M81.186 36.384v17.232M30.895 61.648H2.852a1.2 1.2 0 0 0-1.2 1.2v20.079a1.2 1.2 0 0 0 1.2 1.199h28.043a1.2 1.2 0 0 0 1.201-1.199v-20.08a1.2 1.2 0 0 0-1.2-1.199ZM8.257 88.352H25.52M95.147 61.648H67.104a1.2 1.2 0 0 0-1.2 1.2v20.079a1.2 1.2 0 0 0 1.2 1.199h28.043a1.2 1.2 0 0 0 1.201-1.199v-20.08a1.2 1.2 0 0 0-1.2-1.199ZM72.509 88.352h17.264M95.147 1.648H67.104a1.2 1.2 0 0 0-1.2 1.2v20.079a1.2 1.2 0 0 0 1.2 1.199h28.043a1.2 1.2 0 0 0 1.201-1.199V2.847a1.2 1.2 0 0 0-1.2-1.199ZM72.509 28.352h17.264M30.895 1.648H2.852a1.2 1.2 0 0 0-1.2 1.2v20.079a1.2 1.2 0 0 0 1.2 1.199h28.043a1.2 1.2 0 0 0 1.201-1.199V2.847a1.2 1.2 0 0 0-1.2-1.199ZM8.257 28.352H25.52M63.442 41.868h-.57a8.974 8.974 0 0 0 .3-2.397 9.877 9.877 0 0 0-1.652-5.423 9.904 9.904 0 0 0-4.363-3.627 9.925 9.925 0 0 0-10.71 1.917 7.908 7.908 0 0 0-3.272-.69 8.325 8.325 0 0 0-5.88 2.432 8.294 8.294 0 0 0-2.437 5.87v0a7.12 7.12 0 0 0-4.706 2.398 7.095 7.095 0 0 0 .415 9.785 7.123 7.123 0 0 0 4.892 1.993h27.953a6.19 6.19 0 0 0 4.373-1.808 6.168 6.168 0 0 0 0-8.731 6.19 6.19 0 0 0-4.373-1.809l.03.09Z" stroke="#434D5B" stroke-width="3" stroke-linecap="round" stroke-linejoin="round"/>
</svg>
