<svg width="69" height="90" fill="none" xmlns="http://www.w3.org/2000/svg">
    <path d="M57.307 68.24a75.31 75.31 0 0 1-45.614 0C5.52 65.974 1.632 63.647 1.632 60.11v15.686c0 3.566 3.888 6.74 10.06 9.066a75.835 75.835 0 0 0 45.615 0c6.202-2.297 10.06-5.47 10.06-9.066V60.11c0 3.536-3.858 5.863-10.06 8.13Z" stroke="#434D5B" stroke-width="3" stroke-linecap="round" stroke-linejoin="round"/>
    <path d="M57.307 46.934a75.31 75.31 0 0 1-45.614 0c-6.173-2.267-10.061-4.593-10.061-8.13v14.054c0 3.536 3.888 6.739 10.06 9.066a75.835 75.835 0 0 0 45.615 0c6.202-2.297 10.06-5.5 10.06-9.066V38.805c0 3.535-3.858 5.862-10.06 8.13Z" stroke="#434D5B" stroke-width="3" stroke-linecap="round" stroke-linejoin="round"/>
    <path d="M57.307 23.24a75.31 75.31 0 0 1-45.614 0C5.52 20.974 1.632 17.77 1.632 14.174v17.317c0 3.536 3.888 6.74 10.06 9.066a75.834 75.834 0 0 0 45.615 0c6.202-2.296 10.06-5.5 10.06-9.066V14.174c0 3.596-3.858 6.8-10.06 9.066Z" stroke="#434D5B" stroke-width="3" stroke-linecap="round" stroke-linejoin="round"/>
    <path d="M11.693 23.24a75.31 75.31 0 0 0 45.614 0c6.202-2.266 10.06-5.47 10.06-9.066 0-6.951-14.838-12.572-32.853-12.572-18.014 0-32.882 5.621-32.882 12.572 0 3.596 3.888 6.8 10.06 9.066ZM1.632 63.133V14.204M67.368 63.133V14.204M59.978 32.035h-.742v.756h.742v-.756ZM59.978 53.915h-.742v.756h.742v-.756ZM59.978 76.672h-.742v.756h.742v-.756ZM1.632 23.15a19.863 19.863 0 0 0 8.695 5.5 59.159 59.159 0 0 0 12.97 3.022M1.632 46.48a19.863 19.863 0 0 0 8.695 5.501 59.159 59.159 0 0 0 12.97 3.022M1.632 68.27a19.564 19.564 0 0 0 8.695 5.47 57.49 57.49 0 0 0 12.97 3.023" stroke="#434D5B" stroke-width="3" stroke-linecap="round" stroke-linejoin="round"/>
</svg>
