<svg width="110" height="90" fill="none" xmlns="http://www.w3.org/2000/svg">
    <g clip-path="url(#a)" stroke="#434D5B" stroke-width="3" stroke-linecap="round" stroke-linejoin="round">
        <path d="M61.481 49.306h.87a14.544 14.544 0 0 1 5.8 1.156 17.17 17.17 0 0 1 11.891-4.74h.174c.195-1.582.301-3.174.319-4.768H62.062a72.933 72.933 0 0 1-.58 8.352v0ZM19.953 40.896a67.011 67.011 0 0 1 2.523-18.67 36.12 36.12 0 0 1-10.498-7.977A39.117 39.117 0 0 0 1.479 40.895h18.474ZM22.591 59.538a66.957 66.957 0 0 1-2.523-18.642H1.595a38.973 38.973 0 0 0 10.498 26.618 36.124 36.124 0 0 1 10.498-7.976v0ZM59.48 22.225a68.133 68.133 0 0 1 2.495 18.67h18.473A39.117 39.117 0 0 0 69.95 14.249a36.384 36.384 0 0 1-10.47 7.977v0Z"/>
        <path d="M41.036 40.896H19.953a66.953 66.953 0 0 0 2.523 18.642 40.277 40.277 0 0 1 18.56-4.451V40.896ZM44.951 40.896h17.024a68.132 68.132 0 0 0-2.494-18.67 40.481 40.481 0 0 1-18.445 4.421v14.249h3.915ZM41.036 26.647a40.306 40.306 0 0 1-18.444-4.421 67.01 67.01 0 0 0-2.523 18.67h20.967V26.647Z"/>
        <path d="M41.036 40.896v14.19c3.033.002 6.057.332 9.02.983a14.477 14.477 0 0 1 4.885-4.779 14.536 14.536 0 0 1 6.54-2.013 72.92 72.92 0 0 0 .494-8.439H41.036v.058ZM59.48 22.226a36.385 36.385 0 0 0 10.47-7.977 39.351 39.351 0 0 0-13.167-9.365A39.47 39.47 0 0 0 40.95 1.59c8.004 0 14.965 8.352 18.532 20.636Z"/>
        <path d="M22.591 22.225C26.13 9.942 33.062 1.59 41.037 1.59a39.527 39.527 0 0 0-15.832 3.3 39.409 39.409 0 0 0-13.169 9.358 36.12 36.12 0 0 0 10.556 7.977v0Z"/>
        <path d="M22.592 22.225a40.307 40.307 0 0 0 18.444 4.422V1.59c-7.975 0-14.906 8.352-18.444 20.635ZM59.48 22.225C55.915 9.942 48.983 1.59 41.037 1.59v25.057a40.48 40.48 0 0 0 18.445-4.422v0ZM22.592 59.538a36.12 36.12 0 0 0-10.498 7.977 39.375 39.375 0 0 0 25.26 12.456l-.175-.52c-6.38-2.254-11.658-9.711-14.587-19.913ZM41.036 66.647a12.26 12.26 0 0 1 6.844-2.89v0c.004-2.667.758-5.28 2.175-7.543a42.076 42.076 0 0 0-9.019-.983v11.416Z"/>
        <path d="M41.036 66.647v-11.56a40.277 40.277 0 0 0-18.444 4.393c2.9 10.202 8.207 17.659 14.5 19.913a11.927 11.927 0 0 1-.522-3.381 12.22 12.22 0 0 1 1.19-5.176 12.261 12.261 0 0 1 3.276-4.189Z"/>
        <path d="M97.617 66.936h-.957c.361-1.358.547-2.756.55-4.162a17.155 17.155 0 0 0-2.89-9.358 17.242 17.242 0 0 0-7.547-6.27 17.31 17.31 0 0 0-9.759-1.147 17.279 17.279 0 0 0-8.804 4.348 14.545 14.545 0 0 0-13.751 1.16 14.47 14.47 0 0 0-4.813 5.226 14.411 14.411 0 0 0-1.737 6.88v0a12.4 12.4 0 0 0-8.4 4.072 12.316 12.316 0 0 0-3.156 8.762 12.323 12.323 0 0 0 3.885 8.467 12.407 12.407 0 0 0 8.715 3.352h48.693a10.82 10.82 0 0 0 7.987-2.94 10.73 10.73 0 0 0 0-15.594 10.822 10.822 0 0 0-7.987-2.94l-.03.144Z"/>
        <path d="M90.164 62.688a11.855 11.855 0 0 0-1.74-4.162 11.592 11.592 0 0 0-5.596-4.567 11.638 11.638 0 0 0-7.222-.375"/>
    </g>
    <defs>
        <clipPath id="a">
            <path fill="#fff" d="M0 0h110v90H0z"/>
        </clipPath>
    </defs>
</svg>
