<?xml version="1.0" encoding="UTF-8"?>
<!DOCTYPE svg PUBLIC "-//W3C//DTD SVG 1.1//EN" "http://www.w3.org/Graphics/SVG/1.1/DTD/svg11.dtd">
<svg xmlns="http://www.w3.org/2000/svg" version="1.1" width="1586px" height="1587px" style="shape-rendering:geometricPrecision; text-rendering:geometricPrecision; image-rendering:optimizeQuality; fill-rule:evenodd; clip-rule:evenodd" xmlns:xlink="http://www.w3.org/1999/xlink">
<g><path style="opacity:0.973" fill="#2f4653" d="M 486.5,122.5 C 489.685,122.02 492.519,122.686 495,124.5C 518.424,170.68 540.757,217.347 562,264.5C 562.016,270.148 559.182,272.648 553.5,272C 551.641,270.442 550.141,268.609 549,266.5C 526.563,221.845 504.896,176.845 484,131.5C 482.927,127.9 483.76,124.9 486.5,122.5 Z"/></g>
<g><path style="opacity:0.974" fill="#2f4653" d="M 1102.5,125.5 C 1110.32,123.833 1113.82,126.833 1113,134.5C 1091.09,181.477 1068.26,227.977 1044.5,274C 1037.17,275.666 1034,272.833 1035,265.5C 1057.24,218.685 1079.74,172.018 1102.5,125.5 Z"/></g>
<g><path style="opacity:0.992" fill="#2c4451" d="M 789.5,129.5 C 820.534,127.263 837.701,141.596 841,172.5C 843.002,200.651 839.169,227.984 829.5,254.5C 833.144,257.994 836.311,261.994 839,266.5C 840.7,271.032 841.867,275.698 842.5,280.5C 841.856,285.228 840.523,289.728 838.5,294C 958.537,306.441 1060.37,355.608 1144,441.5C 1152.51,428.369 1164.67,423.035 1180.5,425.5C 1196.8,397.038 1219.46,375.205 1248.5,360C 1276.58,351.456 1295.75,360.956 1306,388.5C 1308.74,402.281 1305.74,414.615 1297,425.5C 1288.06,435.444 1278.23,444.278 1267.5,452C 1251.95,461.442 1235.62,469.275 1218.5,475.5C 1217.92,491.239 1210.25,501.739 1195.5,507C 1260.52,607.919 1285.19,718.086 1269.5,837.5C 1284.65,835.242 1295.32,841.075 1301.5,855C 1320.5,854.076 1339.5,854.409 1358.5,856C 1374.76,857.975 1389.76,863.308 1403.5,872C 1417.06,882.666 1421.89,896.499 1418,913.5C 1415.24,928.559 1406.74,938.725 1392.5,944C 1386.99,945.302 1381.49,946.469 1376,947.5C 1375.83,993.504 1375.33,1039.5 1374.5,1085.5C 1350.86,1094.04 1327.2,1102.38 1303.5,1110.5C 1311.16,1117.32 1318.99,1123.99 1327,1130.5C 1330.07,1136.25 1328.57,1139.92 1322.5,1141.5C 1318.52,1140.37 1314.85,1138.53 1311.5,1136C 1303.46,1128.95 1295.12,1122.29 1286.5,1116C 1273.12,1115.9 1259.79,1115.24 1246.5,1114C 1218.26,1106.14 1190.26,1097.47 1162.5,1088C 1159.56,1086.88 1156.56,1086.54 1153.5,1087C 1119.71,1123.98 1081.38,1155.14 1038.5,1180.5C 1037.48,1181 1037.31,1181.67 1038,1182.5C 1043.67,1188.49 1046.84,1195.66 1047.5,1204C 1046.5,1209.3 1045.33,1214.47 1044,1219.5C 1068.23,1242.07 1084.56,1269.41 1093,1301.5C 1095.11,1331.26 1081.28,1347.6 1051.5,1350.5C 1037.16,1350 1025.66,1344 1017,1332.5C 1000.32,1306.63 990.488,1278.3 987.5,1247.5C 987.167,1246.83 986.833,1246.17 986.5,1245.5C 972.236,1242.07 964.069,1233.07 962,1218.5C 961.439,1217.98 960.772,1217.64 960,1217.5C 871.298,1247.83 781.132,1252.99 689.5,1233C 667.13,1227.76 645.296,1220.93 624,1212.5C 622.917,1229.25 614.25,1239.58 598,1243.5C 595.232,1274.26 585.565,1302.6 569,1328.5C 558.174,1344.16 543.341,1350.33 524.5,1347C 498.845,1339.2 488.345,1322.04 493,1295.5C 502.129,1264.38 518.629,1237.88 542.5,1216C 535.143,1200.8 537.81,1187.64 550.5,1176.5C 510.818,1151.61 474.818,1121.94 442.5,1087.5C 416.662,1096.11 390.662,1104.11 364.5,1111.5C 364.478,1115.89 363.145,1119.72 360.5,1123C 321.787,1154.05 282.787,1184.71 243.5,1215C 235.544,1218.45 232.044,1215.95 233,1207.5C 270.255,1176.24 308.088,1145.74 346.5,1116C 331.952,1116.39 317.619,1114.89 303.5,1111.5C 301.39,1112.05 299.39,1112.89 297.5,1114C 288.5,1121 279.5,1128 270.5,1135C 261.657,1138.83 258.157,1135.99 260,1126.5C 268.167,1119.67 276.333,1112.83 284.5,1106C 269.947,1100.54 255.28,1095.37 240.5,1090.5C 239.833,1039.5 239.167,988.5 238.5,937.5C 223.763,941.598 209.096,941.431 194.5,937C 180.977,930.803 173.144,920.303 171,905.5C 168.294,883.412 177.127,867.912 197.5,859C 208.716,854.279 220.383,851.279 232.5,850C 251.177,848.52 269.844,848.02 288.5,848.5C 296.529,832.687 309.029,827.687 326,833.5C 311.668,713.835 337.168,603.502 402.5,502.5C 385.342,498.504 376.342,487.67 375.5,470C 345.716,460.869 320.216,445.035 299,422.5C 282.194,400.028 284.028,379.195 304.5,360C 311.648,354.336 319.815,351.836 329,352.5C 338.877,352.347 348.044,354.847 356.5,360C 380.495,376.16 399.828,396.66 414.5,421.5C 420.044,421.498 425.711,421.664 431.5,422C 441.894,424.726 448.727,431.226 452,441.5C 535.578,355.467 637.411,306.467 757.5,294.5C 751.136,278.776 754.47,265.609 767.5,255C 756.471,226.795 752.638,197.629 756,167.5C 758.983,147.364 770.15,134.697 789.5,129.5 Z"/></g>
<g><path style="opacity:1" fill="#fbfcfc" d="M 804.5,142.5 C 806.806,161.342 798.639,171.675 780,173.5C 777.5,173.333 775,173.167 772.5,173C 770.456,172.502 769.122,171.335 768.5,169.5C 771.916,148.812 783.916,139.812 804.5,142.5 Z"/></g>
<g><path style="opacity:1" fill="#72a7b7" d="M 804.5,142.5 C 815.523,144.35 822.689,150.683 826,161.5C 832.541,181.795 829.874,200.795 818,218.5C 808.148,231.673 795.981,234.506 781.5,227C 777.084,224.588 773.251,221.422 770,217.5C 766.27,201.433 765.77,185.433 768.5,169.5C 769.122,171.335 770.456,172.502 772.5,173C 775,173.167 777.5,173.333 780,173.5C 798.639,171.675 806.806,161.342 804.5,142.5 Z"/></g>
<g><path style="opacity:0.97" fill="#2f4653" d="M 559.5,166.5 C 562.365,166.055 564.865,166.722 567,168.5C 579.195,192.224 590.862,216.224 602,240.5C 605.725,248.741 603.225,252.575 594.5,252C 588.781,244.069 583.948,235.569 580,226.5C 572.14,209.918 564.473,193.251 557,176.5C 555.863,172.537 556.697,169.204 559.5,166.5 Z"/></g>
<g><path style="opacity:0.972" fill="#2f4653" d="M 1031.5,169.5 C 1038.83,168.329 1041.99,171.329 1041,178.5C 1029.27,203.622 1017.27,228.622 1005,253.5C 995.011,256.531 991.678,253.198 995,243.5C 1006.4,218.375 1018.56,193.709 1031.5,169.5 Z"/></g>
<g><path style="opacity:0.97" fill="#2f4653" d="M 476.5,206.5 C 479.685,206.02 482.519,206.686 485,208.5C 497.818,233.135 509.818,258.135 521,283.5C 521.315,290.819 517.815,293.319 510.5,291C 497.404,266.307 485.237,241.14 474,215.5C 472.927,211.9 473.76,208.9 476.5,206.5 Z"/></g>
<g><path style="opacity:0.966" fill="#2f4653" d="M 1113.5,209.5 C 1121.49,207.66 1124.66,210.66 1123,218.5C 1111.76,244.14 1099.6,269.307 1086.5,294C 1076.6,295.723 1073.77,291.89 1078,282.5C 1089.17,257.799 1101.01,233.465 1113.5,209.5 Z"/></g>
<g><path style="opacity:1" fill="#fbfbfb" d="M 791.5,264.5 C 787.838,276.149 779.838,282.149 767.5,282.5C 765.652,274.437 768.652,268.604 776.5,265C 781.489,264.501 786.489,264.334 791.5,264.5 Z"/></g>
<g><path style="opacity:1" fill="#e67170" d="M 791.5,264.5 C 800.506,264.334 809.506,264.5 818.5,265C 821.288,265.726 822.788,267.56 823,270.5C 824.451,276.639 823.284,282.139 819.5,287C 816.167,289 812.833,291 809.5,293C 797.833,293.667 786.167,293.667 774.5,293C 770.296,290.762 767.963,287.262 767.5,282.5C 779.838,282.149 787.838,276.149 791.5,264.5 Z"/></g>
<g><path style="opacity:1" fill="#f6f9f9" d="M 992.5,348.5 C 996.946,351.226 1001.61,353.726 1006.5,356C 993.544,350.895 980.544,345.561 967.5,340C 847.79,296.351 729.457,299.684 612.5,350C 487.238,409.263 403.072,504.763 360,636.5C 336.796,717.187 334.296,798.52 352.5,880.5C 350.137,882.002 347.97,881.668 346,879.5C 313.179,730.484 343.513,596.151 437,476.5C 539.208,356.838 669.375,300.004 827.5,306C 885.446,309.402 940.446,323.569 992.5,348.5 Z"/></g>
<g><path style="opacity:1" fill="#b7dee1" d="M 992.5,348.5 C 1023.71,362.098 1052.71,379.265 1079.5,400C 1103.61,419.108 1126.11,439.941 1147,462.5C 1151.34,467.2 1155.17,472.2 1158.5,477.5C 1248.14,597.096 1276.3,730.096 1243,876.5C 1242.58,877.756 1241.75,878.423 1240.5,878.5C 1212.12,869.706 1183.78,860.706 1155.5,851.5C 1155.17,850.5 1154.83,849.5 1154.5,848.5C 1179.05,723.669 1149.22,614.003 1065,519.5C 980.937,433.911 878.77,396.078 758.5,406C 634.429,422.826 540.929,484.993 478,592.5C 433.918,674.747 422.085,761.414 442.5,852.5C 414.546,861.762 386.546,870.929 358.5,880C 356.527,880.495 354.527,880.662 352.5,880.5C 334.296,798.52 336.796,717.187 360,636.5C 403.072,504.763 487.238,409.263 612.5,350C 729.457,299.684 847.79,296.351 967.5,340C 980.544,345.561 993.544,350.895 1006.5,356C 1001.61,353.726 996.946,351.226 992.5,348.5 Z"/></g>
<g><path style="opacity:1" fill="#2d4551" d="M 827.5,353.5 C 826.721,372.942 816.721,383.609 797.5,385.5C 776.895,382.974 767.062,371.307 768,350.5C 774.263,330.276 787.763,322.776 808.5,328C 819.617,332.949 825.951,341.449 827.5,353.5 Z"/></g>
<g><path style="opacity:1" fill="#fbfbfb" d="M 790.5,338.5 C 800.809,336.243 808.643,339.576 814,348.5C 816.815,358.709 813.648,366.542 804.5,372C 794.015,375.339 786.181,372.173 781,362.5C 779,357.833 779,353.167 781,348.5C 783.696,344.639 786.863,341.306 790.5,338.5 Z"/></g>
<g><path style="opacity:1" fill="#75aab9" d="M 827.5,353.5 C 832.618,364.859 830.285,374.693 820.5,383C 813.113,387.671 805.446,388.505 797.5,385.5C 816.721,383.609 826.721,372.942 827.5,353.5 Z"/></g>
<g><path style="opacity:1" fill="#72a7b7" d="M 310.5,416.5 C 321.19,412.775 326.523,405.109 326.5,393.5C 325.977,383.123 320.977,375.789 311.5,371.5C 315.847,366.165 321.514,363.832 328.5,364.5C 347.923,367.084 362.756,376.751 373,393.5C 380.706,404.716 382.373,416.716 378,429.5C 370.218,440.1 359.718,444.933 346.5,444C 332.892,436.887 320.892,427.72 310.5,416.5 Z"/></g>
<g><path style="opacity:1" fill="#fbfcfc" d="M 1290.5,384.5 C 1288.35,388.817 1285.01,391.984 1280.5,394C 1262.33,399.089 1251,392.589 1246.5,374.5C 1264.42,364.036 1279.08,367.37 1290.5,384.5 Z"/></g>
<g><path style="opacity:1" fill="#fcfdfd" d="M 311.5,371.5 C 320.977,375.789 325.977,383.123 326.5,393.5C 326.523,405.109 321.19,412.775 310.5,416.5C 299.962,405.631 297.796,393.298 304,379.5C 306,376.334 308.5,373.668 311.5,371.5 Z"/></g>
<g><path style="opacity:1" fill="#72a7b7" d="M 1246.5,374.5 C 1251,392.589 1262.33,399.089 1280.5,394C 1285.01,391.984 1288.35,388.817 1290.5,384.5C 1295.24,392.429 1295.74,400.763 1292,409.5C 1278.66,433.589 1258.16,444.756 1230.5,443C 1219.15,440.31 1212.65,433.143 1211,421.5C 1210.33,415.833 1210.33,410.167 1211,404.5C 1221.29,392.473 1233.12,382.473 1246.5,374.5 Z"/></g>
<g><path style="opacity:1" fill="#2d4551" d="M 620.5,408.5 C 619.656,431.011 607.99,441.677 585.5,440.5C 566.473,434.938 558.64,422.271 562,402.5C 569.946,384.278 583.446,378.112 602.5,384C 612.762,389.021 618.762,397.188 620.5,408.5 Z"/></g>
<g><path style="opacity:1" fill="#2c4451" d="M 1033.5,406.5 C 1034.55,427.099 1024.88,438.432 1004.5,440.5C 983.186,438.011 973.352,426.011 975,404.5C 980.968,386.422 993.468,378.922 1012.5,382C 1024.39,386.048 1031.39,394.214 1033.5,406.5 Z"/></g>
<g><path style="opacity:1" fill="#fbfcfc" d="M 585.5,393.5 C 603.039,393.193 610.206,401.526 607,418.5C 600.575,428.799 591.742,431.299 580.5,426C 573.863,420.289 571.696,413.123 574,404.5C 577.07,399.927 580.904,396.261 585.5,393.5 Z"/></g>
<g><path style="opacity:1" fill="#fbfbfc" d="M 1002.5,392.5 C 1018.88,394.588 1024.72,403.588 1020,419.5C 1010.74,430.602 1000.74,431.269 990,421.5C 983.244,407.02 987.411,397.353 1002.5,392.5 Z"/></g>
<g><path style="opacity:1" fill="#74a8b8" d="M 620.5,408.5 C 626.868,425.179 621.534,436.679 604.5,443C 597.819,443.869 591.486,443.036 585.5,440.5C 607.99,441.677 619.656,431.011 620.5,408.5 Z"/></g>
<g><path style="opacity:1" fill="#74a8b8" d="M 1033.5,406.5 C 1040.06,420.008 1037.06,431.174 1024.5,440C 1017.76,443.051 1011.09,443.217 1004.5,440.5C 1024.88,438.432 1034.55,427.099 1033.5,406.5 Z"/></g>
<g><path style="opacity:1" fill="#73a9b9" d="M 770.5,416.5 C 891.122,410.952 990.955,453.285 1070,543.5C 1126.89,613.512 1153.89,693.845 1151,784.5C 1149.69,803.301 1147.36,821.968 1144,840.5C 1143.88,843.008 1142.88,845.008 1141,846.5C 1134.23,844.789 1127.4,843.456 1120.5,842.5C 1144.03,718.947 1111.36,613.113 1022.5,525C 940.598,452.601 845.265,424.601 736.5,441C 633.805,461.747 556.305,517.247 504,607.5C 464.111,682.334 453.278,761.167 471.5,844C 465.549,845.893 459.549,847.727 453.5,849.5C 428.791,726.307 458.291,618.307 542,525.5C 604.798,461.353 680.964,425.02 770.5,416.5 Z"/></g>
<g><path style="opacity:1" fill="#e77170" d="M 398.5,487.5 C 404.726,477.673 405.06,467.673 399.5,457.5C 404.167,449.652 409.834,442.486 416.5,436C 426.994,436.16 432.661,441.493 433.5,452C 433.157,457.03 431.99,461.864 430,466.5C 425.333,472.5 420.667,478.5 416,484.5C 410.624,489.477 404.79,490.477 398.5,487.5 Z"/></g>
<g><path style="opacity:1" fill="#fcfafb" d="M 1187.5,452.5 C 1175.58,456.266 1165.91,453.266 1158.5,443.5C 1159.72,441.549 1161.38,440.049 1163.5,439C 1171.5,436.81 1178,438.977 1183,445.5C 1184.75,447.734 1186.25,450.068 1187.5,452.5 Z"/></g>
<g><path style="opacity:1" fill="#e77170" d="M 1158.5,443.5 C 1165.91,453.266 1175.58,456.266 1187.5,452.5C 1191.47,456.639 1195.3,460.973 1199,465.5C 1206.83,475.748 1204.33,482.915 1191.5,487C 1186.2,487.899 1181.7,486.399 1178,482.5C 1170.71,472.876 1163.04,463.542 1155,454.5C 1153.91,450.041 1155.07,446.374 1158.5,443.5 Z"/></g>
<g><path style="opacity:1" fill="#e87170" d="M 767.5,448.5 C 891.015,442.517 988.848,489.183 1061,588.5C 1112.36,666.509 1127.86,751.176 1107.5,842.5C 1099.35,842.593 1091.35,843.76 1083.5,846C 1047.76,857.137 1012.09,868.47 976.5,880C 966.26,882.18 955.927,882.847 945.5,882C 941.437,881.962 937.603,881.128 934,879.5C 932.966,854.12 919.966,842.786 895,845.5C 878.752,832.295 860.252,823.795 839.5,820C 799.234,811.568 759.901,814.568 721.5,829C 712.827,832.999 704.827,837.999 697.5,844C 679.803,841.594 667.303,848.427 660,864.5C 658.528,870.185 658.195,875.851 659,881.5C 649.212,882.672 639.379,882.505 629.5,881C 590.228,868.465 550.894,856.131 511.5,844C 502.175,843.1 492.841,842.267 483.5,841.5C 459.138,721.437 490.471,618.604 577.5,533C 631.643,484.434 694.976,456.267 767.5,448.5 Z"/></g>
<g><path style="opacity:1" fill="#fbf9fa" d="M 399.5,457.5 C 405.06,467.673 404.726,477.673 398.5,487.5C 394.246,486.415 391.413,483.748 390,479.5C 388.512,470.144 391.679,462.81 399.5,457.5 Z"/></g>
<g><path style="opacity:1" fill="#2c4451" d="M 1185.5,558.5 C 1186.43,572.39 1180.76,582.556 1168.5,589C 1164,590.792 1159.33,591.625 1154.5,591.5C 1140.67,590.001 1131.5,582.667 1127,569.5C 1125.17,543.333 1137.33,531.167 1163.5,533C 1176.07,536.986 1183.41,545.486 1185.5,558.5 Z"/></g>
<g><path style="opacity:1" fill="#2c4451" d="M 469.5,560.5 C 468.631,580.368 458.298,591.035 438.5,592.5C 418.68,589.845 409.18,578.512 410,558.5C 417.151,535.676 431.984,528.509 454.5,537C 463.161,542.486 468.161,550.319 469.5,560.5 Z"/></g>
<g><path style="opacity:1" fill="#71a5b4" d="M 1158.5,477.5 C 1218.21,550.656 1252.38,634.656 1261,729.5C 1264.92,779.082 1261.26,828.082 1250,876.5C 1249.48,878.223 1248.48,879.556 1247,880.5C 1244.65,880.01 1242.49,879.343 1240.5,878.5C 1241.75,878.423 1242.58,877.756 1243,876.5C 1276.3,730.096 1248.14,597.096 1158.5,477.5 Z"/></g>
<g><path style="opacity:1" fill="#fcfcfc" d="M 1149.5,544.5 C 1160.46,542.561 1168.29,546.561 1173,556.5C 1175,566.021 1171.84,573.187 1163.5,578C 1145.26,581.614 1137.09,574.114 1139,555.5C 1141.36,550.645 1144.86,546.979 1149.5,544.5 Z"/></g>
<g><path style="opacity:1" fill="#fafbfb" d="M 433.5,545.5 C 447.105,543.457 455.105,549.124 457.5,562.5C 455.668,576.076 448.002,581.91 434.5,580C 421.959,574.043 418.792,564.877 425,552.5C 427.441,549.546 430.275,547.213 433.5,545.5 Z"/></g>
<g><path style="opacity:1" fill="#fefafa" d="M 599.5,549.5 C 608.528,549.32 617.528,549.653 626.5,550.5C 626.5,554.5 626.5,558.5 626.5,562.5C 618.826,562.334 611.159,562.5 603.5,563C 602.536,567.066 602.203,571.233 602.5,575.5C 610.174,575.334 617.841,575.5 625.5,576C 626.833,579.667 626.833,583.333 625.5,587C 617.841,587.5 610.174,587.666 602.5,587.5C 602.334,591.514 602.501,595.514 603,599.5C 603.5,600 604,600.5 604.5,601C 611.826,601.5 619.159,601.666 626.5,601.5C 626.5,605.5 626.5,609.5 626.5,613.5C 617.844,614.313 609.177,614.48 600.5,614C 594.1,612.601 589.934,608.767 588,602.5C 587.333,588.833 587.333,575.167 588,561.5C 589.993,555.675 593.826,551.675 599.5,549.5 Z"/></g>
<g><path style="opacity:1" fill="#fefbfb" d="M 759.5,549.5 C 767.893,549.17 776.227,549.67 784.5,551C 785.833,554.667 785.833,558.333 784.5,562C 777.167,562.333 769.833,562.667 762.5,563C 762,563.5 761.5,564 761,564.5C 760.501,568.152 760.335,571.818 760.5,575.5C 768.5,575.5 776.5,575.5 784.5,575.5C 784.793,579.437 784.46,583.27 783.5,587C 775.841,587.5 768.174,587.666 760.5,587.5C 760.334,591.514 760.501,595.514 761,599.5C 761.5,600 762,600.5 762.5,601C 769.833,601.333 777.167,601.667 784.5,602C 785.833,605.667 785.833,609.333 784.5,613C 774.83,614.953 765.163,614.953 755.5,613C 752,611.5 749.5,609 748,605.5C 746.383,590.568 746.049,575.568 747,560.5C 749.263,554.626 753.43,550.959 759.5,549.5 Z"/></g>
<g><path style="opacity:1" fill="#fefbfb" d="M 864.5,549.5 C 872.903,549.13 881.236,549.63 889.5,551C 897.401,553.597 901.901,559.097 903,567.5C 903.667,582.5 903.667,597.5 903,612.5C 898.263,613.469 893.43,613.803 888.5,613.5C 888.954,597.429 888.454,581.429 887,565.5C 886.097,564.299 884.931,563.465 883.5,563C 878.511,562.501 873.511,562.334 868.5,562.5C 868.5,579.5 868.5,596.5 868.5,613.5C 863.57,613.803 858.737,613.469 854,612.5C 853.333,592.5 853.333,572.5 854,552.5C 857.466,551.059 860.966,550.059 864.5,549.5 Z"/></g>
<g><path style="opacity:1" fill="#fefcfc" d="M 634.5,550.5 C 639.844,550.334 645.177,550.501 650.5,551C 654.706,556.577 658.54,562.41 662,568.5C 665.626,562.75 669.126,556.916 672.5,551C 677.489,550.501 682.489,550.334 687.5,550.5C 682.12,561.075 676.453,571.575 670.5,582C 675.951,591.734 681.784,601.234 688,610.5C 688.483,611.448 688.649,612.448 688.5,613.5C 683.156,613.666 677.823,613.499 672.5,613C 668.791,607.081 664.958,601.248 661,595.5C 657.167,601.333 653.333,607.167 649.5,613C 644.467,613.829 639.467,613.662 634.5,612.5C 640.38,601.903 646.38,591.403 652.5,581C 646.106,571.041 640.106,560.875 634.5,550.5 Z"/></g>
<g><path style="opacity:1" fill="#fefbfb" d="M 693.5,550.5 C 708.833,550.5 724.167,550.5 739.5,550.5C 739.793,554.437 739.46,558.27 738.5,562C 733.511,562.499 728.511,562.666 723.5,562.5C 723.5,579.5 723.5,596.5 723.5,613.5C 718.57,613.803 713.737,613.469 709,612.5C 708.5,595.837 708.333,579.17 708.5,562.5C 703.821,562.666 699.155,562.499 694.5,562C 693.54,558.27 693.207,554.437 693.5,550.5 Z"/></g>
<g><path style="opacity:1" fill="#fefcfc" d="M 807.5,549.5 C 816.832,548.626 825.832,549.793 834.5,553C 837,554.833 839.167,557 841,559.5C 843.277,566.996 842.944,574.33 840,581.5C 837.554,583.959 835.054,586.292 832.5,588.5C 837.319,596.47 841.319,604.803 844.5,613.5C 839.489,613.666 834.489,613.499 829.5,613C 825.285,606.072 821.452,598.905 818,591.5C 815.619,590.565 813.119,590.232 810.5,590.5C 810.666,597.841 810.5,605.174 810,612.5C 805.333,613.833 800.667,613.833 796,612.5C 795.333,592.5 795.333,572.5 796,552.5C 796.5,552 797,551.5 797.5,551C 801.025,550.821 804.359,550.321 807.5,549.5 Z"/></g>
<g><path style="opacity:1" fill="#fefafa" d="M 927.5,549.5 C 935.917,549.094 944.251,549.594 952.5,551C 957.4,552.902 960.567,556.402 962,561.5C 962.667,578.5 962.667,595.5 962,612.5C 957.263,613.469 952.43,613.803 947.5,613.5C 947.5,606.167 947.5,598.833 947.5,591.5C 941.5,591.5 935.5,591.5 929.5,591.5C 929.5,598.833 929.5,606.167 929.5,613.5C 924.5,613.5 919.5,613.5 914.5,613.5C 914.333,596.163 914.5,578.83 915,561.5C 917.085,555.246 921.252,551.246 927.5,549.5 Z"/></g>
<g><path style="opacity:1" fill="#fefbfb" d="M 973.5,550.5 C 978.5,550.5 983.5,550.5 988.5,550.5C 988.333,566.837 988.5,583.17 989,599.5C 989.5,600 990,600.5 990.5,601C 996.833,601.333 1003.17,601.667 1009.5,602C 1010.83,605.667 1010.83,609.333 1009.5,613C 1001.87,614.309 994.203,614.642 986.5,614C 979.225,612.391 975.058,607.891 974,600.5C 973.5,583.837 973.333,567.17 973.5,550.5 Z"/></g>
<g><path style="opacity:1" fill="#75aab9" d="M 469.5,560.5 C 475.314,575.865 470.647,587.032 455.5,594C 450.833,594.667 446.167,594.667 441.5,594C 440.263,593.768 439.263,593.268 438.5,592.5C 458.298,591.035 468.631,580.368 469.5,560.5 Z"/></g>
<g><path style="opacity:1" fill="#e97472" d="M 810.5,562.5 C 814.846,562.334 819.179,562.501 823.5,563C 828.568,565.983 829.735,570.149 827,575.5C 826.097,576.701 824.931,577.535 823.5,578C 819.179,578.499 814.846,578.666 810.5,578.5C 810.5,573.167 810.5,567.833 810.5,562.5 Z"/></g>
<g><path style="opacity:1" fill="#e97271" d="M 931.5,562.5 C 936.179,562.334 940.845,562.501 945.5,563C 946,563.5 946.5,564 947,564.5C 947.499,569.155 947.666,573.821 947.5,578.5C 941.5,578.5 935.5,578.5 929.5,578.5C 929.334,573.821 929.501,569.155 930,564.5C 930.717,563.956 931.217,563.289 931.5,562.5 Z"/></g>
<g><path style="opacity:1" fill="#74a8b8" d="M 1185.5,558.5 C 1191.02,570.072 1189.02,580.238 1179.5,589C 1171.52,593.97 1163.18,594.803 1154.5,591.5C 1159.33,591.625 1164,590.792 1168.5,589C 1180.76,582.556 1186.43,572.39 1185.5,558.5 Z"/></g>
<g><path style="opacity:0.971" fill="#2f4653" d="M 180.5,573.5 C 208.384,578.577 236.051,584.744 263.5,592C 268.218,593.449 269.718,596.615 268,601.5C 267.626,602.416 267.126,603.25 266.5,604C 263.5,604.667 260.5,604.667 257.5,604C 232.442,598.588 207.442,592.922 182.5,587C 180.671,586.727 179.171,585.893 178,584.5C 176.812,580.259 177.645,576.592 180.5,573.5 Z"/></g>
<g><path style="opacity:0.974" fill="#314754" d="M 1403.5,580.5 C 1407.44,580.207 1411.27,580.54 1415,581.5C 1415.67,584.5 1415.67,587.5 1415,590.5C 1414.1,591.701 1412.93,592.535 1411.5,593C 1386.24,598.982 1360.9,604.649 1335.5,610C 1325.35,611.867 1322.35,608.201 1326.5,599C 1352.1,592.015 1377.77,585.848 1403.5,580.5 Z"/></g>
<g><path style="opacity:0.975" fill="#304653" d="M 102.5,602.5 C 153.613,613.423 204.613,624.923 255.5,637C 259.5,641 259.5,645 255.5,649C 204.855,639.757 154.521,628.757 104.5,616C 98.705,615.218 96.5383,612.051 98,606.5C 99.3968,604.93 100.897,603.596 102.5,602.5 Z"/></g>
<g><path style="opacity:0.973" fill="#304754" d="M 1485.5,608.5 C 1492.65,608.153 1495.82,611.486 1495,618.5C 1494.17,619.333 1493.33,620.167 1492.5,621C 1444.27,632.473 1395.94,643.473 1347.5,654C 1344.17,654.667 1340.83,654.667 1337.5,654C 1334.48,651.525 1333.81,648.525 1335.5,645C 1339.95,642.739 1344.62,641.072 1349.5,640C 1394.89,629.16 1440.22,618.66 1485.5,608.5 Z"/></g>
<g><path style="opacity:1" fill="#fefdfd" d="M 617.5,626.5 C 633.91,625.992 650.243,626.825 666.5,629C 691.563,634.396 707.063,649.563 713,674.5C 717.648,699.84 717.648,725.173 713,750.5C 705.635,780.606 686.468,796.773 655.5,799C 634.39,800.195 613.39,799.195 592.5,796C 590.333,795.167 588.833,793.667 588,791.5C 587.333,739.167 587.333,686.833 588,634.5C 589.167,632.667 590.667,631.167 592.5,630C 601.033,629.227 609.366,628.061 617.5,626.5 Z"/></g>
<g><path style="opacity:1" fill="#fefdfd" d="M 946.5,626.5 C 966.306,626.1 985.972,627.6 1005.5,631C 1007.29,631.785 1008.79,632.951 1010,634.5C 1010.67,643.167 1010.67,651.833 1010,660.5C 1009.5,661 1009,661.5 1008.5,662C 988.529,660.918 968.529,660.584 948.5,661C 941.451,663.254 938.618,668.087 940,675.5C 941.458,677.96 943.291,680.127 945.5,682C 962.813,691.968 980.147,701.968 997.5,712C 1015.82,729.187 1019.98,749.354 1010,772.5C 1005.11,781.721 997.945,788.555 988.5,793C 980.805,796.232 972.805,798.232 964.5,799C 945.935,800.549 927.601,799.216 909.5,795C 908.069,794.535 906.903,793.701 906,792.5C 905.333,783.5 905.333,774.5 906,765.5C 906.5,765 907,764.5 907.5,764C 922.157,764.578 936.824,765.411 951.5,766.5C 955.86,766.234 960.193,765.734 964.5,765C 972.026,761.145 974.86,754.979 973,746.5C 972.117,743.898 970.617,741.731 968.5,740C 951.833,729.667 935.167,719.333 918.5,709C 903.141,695.595 897.308,678.762 901,658.5C 905.319,645.512 913.819,636.346 926.5,631C 933.145,628.774 939.811,627.274 946.5,626.5 Z"/></g>
<g><path style="opacity:1" fill="#fefcfc" d="M 792.5,627.5 C 803.505,627.333 814.505,627.5 825.5,628C 854.521,630.687 870.687,646.521 874,675.5C 874.667,715.5 874.667,755.5 874,795.5C 873.5,796 873,796.5 872.5,797C 860.833,797.667 849.167,797.667 837.5,797C 837,796.5 836.5,796 836,795.5C 835.971,755.462 835.304,715.462 834,675.5C 832.376,669.068 828.543,664.568 822.5,662C 815.394,660.91 808.228,660.41 801,660.5C 794.922,660.51 788.922,660.843 783,661.5C 782.985,706.559 782.318,751.559 781,796.5C 768.667,797.833 756.333,797.833 744,796.5C 742.851,769.88 742.351,743.214 742.5,716.5C 742.351,689.786 742.851,663.12 744,636.5C 745.251,633.619 747.417,631.786 750.5,631C 764.642,629.731 778.642,628.564 792.5,627.5 Z"/></g>
<g><path style="opacity:1" fill="#e97170" d="M 627.5,659.5 C 636.839,659.834 646.172,660.334 655.5,661C 667.302,664.817 674.136,672.984 676,685.5C 676.906,704.534 676.573,723.534 675,742.5C 673.405,755.428 666.238,763.262 653.5,766C 644.84,766.5 636.173,766.666 627.5,766.5C 627.5,730.833 627.5,695.167 627.5,659.5 Z"/></g>
<g><path style="opacity:0.971" fill="#2e4652" d="M 159.5,663.5 C 186.099,667.565 212.432,673.065 238.5,680C 242.062,680.739 245.228,682.239 248,684.5C 249.12,687.999 248.287,690.833 245.5,693C 217.478,689.395 189.811,683.729 162.5,676C 155.782,673.19 154.782,669.023 159.5,663.5 Z"/></g>
<g><path style="opacity:0.973" fill="#2f4653" d="M 1424.5,669.5 C 1432.81,667.337 1436.64,670.337 1436,678.5C 1435.17,679.333 1434.33,680.167 1433.5,681C 1408.05,687.891 1382.38,693.891 1356.5,699C 1353.5,699.667 1350.5,699.667 1347.5,699C 1344.71,696.833 1343.88,693.999 1345,690.5C 1345.9,689.299 1347.07,688.465 1348.5,688C 1373.8,681.174 1399.14,675.007 1424.5,669.5 Z"/></g>
<g><path style="opacity:1" fill="#2d4552" d="M 1241.5,765.5 C 1241.26,785.41 1231.26,796.41 1211.5,798.5C 1193.23,796.895 1183.23,786.895 1181.5,768.5C 1185.05,746.125 1198.05,736.625 1220.5,740C 1232.07,744.735 1239.07,753.235 1241.5,765.5 Z"/></g>
<g><path style="opacity:1" fill="#2c4451" d="M 414.5,767.5 C 413.759,786.906 403.759,797.573 384.5,799.5C 366.425,797.926 356.425,788.092 354.5,770C 357.6,747.908 370.267,738.242 392.5,741C 405.125,745.457 412.458,754.29 414.5,767.5 Z"/></g>
<g><path style="opacity:1" fill="#fbfbfb" d="M 1204.5,751.5 C 1218.57,749.02 1226.91,754.686 1229.5,768.5C 1228.5,779.5 1222.5,785.5 1211.5,786.5C 1199.21,784.37 1193.38,777.037 1194,764.5C 1196.26,759.085 1199.76,754.751 1204.5,751.5 Z"/></g>
<g><path style="opacity:1" fill="#fbfbfb" d="M 378.5,752.5 C 393.664,750.844 401.497,757.51 402,772.5C 397.99,785.257 389.49,789.757 376.5,786C 366.313,779.109 364.146,770.276 370,759.5C 372.441,756.546 375.275,754.213 378.5,752.5 Z"/></g>
<g><path style="opacity:1" fill="#76aaba" d="M 1241.5,765.5 C 1246.07,775.394 1244.91,784.727 1238,793.5C 1230.03,800.501 1221.2,802.168 1211.5,798.5C 1231.26,796.41 1241.26,785.41 1241.5,765.5 Z"/></g>
<g><path style="opacity:1" fill="#75aaba" d="M 414.5,767.5 C 419.393,777.266 418.06,786.266 410.5,794.5C 402.755,801.623 394.089,803.289 384.5,799.5C 403.759,797.573 413.759,786.906 414.5,767.5 Z"/></g>
<g><path style="opacity:1" fill="#f4f7f7" d="M 781.5,828.5 C 788.841,828.334 796.174,828.5 803.5,829C 783.002,830.937 762.669,833.937 742.5,838C 730.965,841.432 720.631,846.932 711.5,854.5C 708.201,853.099 707.868,851.265 710.5,849C 732.276,835.804 755.943,828.971 781.5,828.5 Z"/></g>
<g><path style="opacity:1" fill="#b6dde0" d="M 781.5,828.5 C 815.742,825.134 848.075,831.634 878.5,848C 879.984,849.574 881.651,850.907 883.5,852C 871.321,864.989 870.321,878.823 880.5,893.5C 876.583,897.906 871.917,901.406 866.5,904C 836.968,917.378 805.968,922.878 773.5,920.5C 748.878,919.6 726.545,912.1 706.5,898C 720.413,884.867 722.08,870.367 711.5,854.5C 720.631,846.932 730.965,841.432 742.5,838C 762.669,833.937 783.002,830.937 803.5,829C 796.174,828.5 788.841,828.334 781.5,828.5 Z"/></g>
<g><path style="opacity:1" fill="#e57070" d="M 1275.5,849.5 C 1273.09,861.615 1277.09,870.948 1287.5,877.5C 1287.5,878.5 1287.5,879.5 1287.5,880.5C 1278.58,882.103 1269.58,882.77 1260.5,882.5C 1262.82,872.921 1264.82,863.254 1266.5,853.5C 1268.58,850.299 1271.58,848.965 1275.5,849.5 Z"/></g>
<g><path style="opacity:1" fill="#fbf8f9" d="M 1275.5,849.5 C 1286.28,850.728 1291.11,856.728 1290,867.5C 1289.26,870.991 1288.43,874.325 1287.5,877.5C 1277.09,870.948 1273.09,861.615 1275.5,849.5 Z"/></g>
<g><path style="opacity:1" fill="#e6706f" d="M 307.5,850.5 C 315.126,849.066 321.292,851.399 326,857.5C 327.667,859.833 329.333,862.167 331,864.5C 332.501,870.179 334.001,875.846 335.5,881.5C 324.245,882.712 313.412,881.045 303,876.5C 300.86,869.623 299.86,862.623 300,855.5C 302.17,853.177 304.67,851.51 307.5,850.5 Z"/></g>
<g><path style="opacity:1" fill="#2d4652" d="M 785.5,853.5 C 794.925,851.872 801.759,855.205 806,863.5C 806.667,870.167 806.667,876.833 806,883.5C 805.169,888.681 802.336,892.181 797.5,894C 792.833,894.667 788.167,894.667 783.5,894C 779.942,892.108 777.442,889.275 776,885.5C 773.429,876.184 774.096,867.184 778,858.5C 780.426,856.548 782.926,854.881 785.5,853.5 Z"/></g>
<g><path style="opacity:1" fill="#2a424f" d="M 749.5,854.5 C 756.167,854.5 762.833,854.5 769.5,854.5C 769.5,856.833 769.5,859.167 769.5,861.5C 764.821,861.334 760.155,861.501 755.5,862C 753.686,864.481 753.02,867.315 753.5,870.5C 758.5,870.5 763.5,870.5 768.5,870.5C 768.5,872.833 768.5,875.167 768.5,877.5C 763.5,877.5 758.5,877.5 753.5,877.5C 753.5,883.167 753.5,888.833 753.5,894.5C 750.5,894.5 747.5,894.5 744.5,894.5C 744.333,883.162 744.5,871.828 745,860.5C 746.332,858.34 747.832,856.34 749.5,854.5 Z"/></g>
<g><path style="opacity:1" fill="#2c4451" d="M 820.5,853.5 C 827.255,852.668 833.589,853.835 839.5,857C 845.505,865.124 844.505,872.291 836.5,878.5C 839.421,883.341 842.088,888.341 844.5,893.5C 841.167,894.833 837.833,894.833 834.5,893.5C 831.912,889.326 829.579,884.993 827.5,880.5C 825.955,879.548 824.288,879.215 822.5,879.5C 822.5,884.5 822.5,889.5 822.5,894.5C 819.5,894.5 816.5,894.5 813.5,894.5C 813.5,881.167 813.5,867.833 813.5,854.5C 816.059,854.802 818.393,854.468 820.5,853.5 Z"/></g>
<g><path style="opacity:1" fill="#b7dde0" d="M 678.5,902.5 C 661.134,908.127 643.468,908.96 625.5,905C 589.032,893.733 552.699,882.066 516.5,870C 501.164,866.667 485.831,866.667 470.5,870C 435.794,880.791 401.127,891.791 366.5,903C 350.387,907.58 334.054,908.58 317.5,906C 300.668,900.084 283.334,897.417 265.5,898C 263.506,956.285 262.84,1014.78 263.5,1073.5C 259.89,1072.3 256.223,1071.3 252.5,1070.5C 252.832,1031 252.499,991.663 251.5,952.5C 251.5,930.833 251.5,909.167 251.5,887.5C 262.751,885.577 274.084,885.077 285.5,886C 298.208,888.343 310.875,891.009 323.5,894C 331.833,894.667 340.167,894.667 348.5,894C 359.375,892.152 370.042,889.486 380.5,886C 409.443,876.463 438.443,867.13 467.5,858C 484.802,853.506 502.136,853.506 519.5,858C 556.971,870.601 594.638,882.601 632.5,894C 643.855,894.492 655.189,894.492 666.5,894C 670.125,897.474 674.125,900.307 678.5,902.5 Z"/></g>
<g><path style="opacity:1" fill="#b7dde0" d="M 1362.5,1037.5 C 1362.83,1046.86 1362.5,1056.19 1361.5,1065.5C 1358.14,1066.85 1354.81,1068.18 1351.5,1069.5C 1352.16,1013.12 1351.49,956.951 1349.5,901C 1336.95,897.68 1324.29,897.013 1311.5,899C 1293.02,905.469 1274.02,908.136 1254.5,907C 1248.5,905.667 1242.5,904.333 1236.5,903C 1201.2,891.678 1165.86,880.344 1130.5,869C 1115.33,866.468 1100.33,867.135 1085.5,871C 1049.5,882.333 1013.5,893.667 977.5,905C 956.987,909.461 936.987,907.961 917.5,900.5C 921.445,897.731 925.278,894.731 929,891.5C 944.061,894.804 959.228,895.304 974.5,893C 1012.8,880.842 1051.14,868.842 1089.5,857C 1104.15,853.726 1118.82,853.726 1133.5,857C 1171.23,868.847 1208.89,880.847 1246.5,893C 1257.8,894.46 1269.13,894.793 1280.5,894C 1291.46,891.177 1302.46,888.51 1313.5,886C 1330.2,884.442 1346.37,886.608 1362,892.5C 1362.5,940.832 1362.67,989.166 1362.5,1037.5 Z"/></g>
<g><path style="opacity:1" fill="#fbfbfb" d="M 682.5,856.5 C 698.636,855.14 706.47,862.473 706,878.5C 699.79,891.521 690.29,894.688 677.5,888C 667.104,875.606 668.771,865.106 682.5,856.5 Z"/></g>
<g><path style="opacity:1" fill="#fafbfb" d="M 897.5,856.5 C 913.129,854.968 920.962,861.968 921,877.5C 916.447,889.526 907.947,893.693 895.5,890C 886.72,884.328 883.887,876.495 887,866.5C 889.738,862.26 893.238,858.926 897.5,856.5 Z"/></g>
<g><path style="opacity:1" fill="#b4dbde" d="M 788.5,861.5 C 792.493,861.245 795.326,862.911 797,866.5C 797.667,871.167 797.667,875.833 797,880.5C 796.573,884.428 794.406,886.428 790.5,886.5C 788.088,886.594 786.255,885.594 785,883.5C 784.333,877.5 784.333,871.5 785,865.5C 786.102,864.051 787.269,862.718 788.5,861.5 Z"/></g>
<g><path style="opacity:1" fill="#acd2d6" d="M 822.5,861.5 C 826.257,861.071 829.757,861.737 833,863.5C 833.769,866.099 833.602,868.599 832.5,871C 829.312,872.316 825.978,872.816 822.5,872.5C 822.5,868.833 822.5,865.167 822.5,861.5 Z"/></g>
<g><path style="opacity:1" fill="#72a7b6" d="M 218.5,927.5 C 220.858,905.357 210.858,895.19 188.5,897C 186.359,897.573 184.359,898.406 182.5,899.5C 181.664,893.182 183.164,887.515 187,882.5C 206.148,863.843 228.314,859.343 253.5,869C 256.661,870.413 259.661,872.08 262.5,874C 257.273,874.912 252.107,876.079 247,877.5C 244.357,878.321 242.024,879.654 240,881.5C 239.833,895.845 239.333,910.178 238.5,924.5C 232.062,926.935 225.396,927.935 218.5,927.5 Z"/></g>
<g><path style="opacity:1" fill="#fdfefe" d="M 678.5,902.5 C 684.134,903.188 689.801,903.688 695.5,904C 708.816,915.66 724.15,923.66 741.5,928C 783.766,938.211 825.432,936.211 866.5,922C 877.342,917.753 887.008,911.753 895.5,904C 903.108,904.176 910.441,903.009 917.5,900.5C 936.987,907.961 956.987,909.461 977.5,905C 1013.5,893.667 1049.5,882.333 1085.5,871C 1100.33,867.135 1115.33,866.468 1130.5,869C 1165.86,880.344 1201.2,891.678 1236.5,903C 1242.5,904.333 1248.5,905.667 1254.5,907C 1274.02,908.136 1293.02,905.469 1311.5,899C 1324.29,897.013 1336.95,897.68 1349.5,901C 1351.49,956.951 1352.16,1013.12 1351.5,1069.5C 1331,1075.5 1310.67,1082 1290.5,1089C 1282.57,1090.68 1274.57,1091.85 1266.5,1092.5C 1258.42,1091.85 1250.42,1090.68 1242.5,1089C 1208.71,1078.4 1175.04,1067.4 1141.5,1056C 1121.5,1050 1101.5,1050 1081.5,1056C 1045.78,1067.13 1010.11,1078.46 974.5,1090C 959.74,1092.31 945.073,1091.97 930.5,1089C 897.082,1078.19 863.749,1067.19 830.5,1056C 810.803,1051.4 791.137,1051.4 771.5,1056C 735.029,1068.27 698.362,1079.93 661.5,1091C 651.833,1091.67 642.167,1091.67 632.5,1091C 594.382,1079.41 556.382,1067.41 518.5,1055C 501.173,1050.37 483.839,1050.37 466.5,1055C 426.388,1068.15 386.054,1080.48 345.5,1092C 335.387,1092.94 325.387,1092.27 315.5,1090C 298.052,1084.79 280.719,1079.29 263.5,1073.5C 262.84,1014.78 263.506,956.285 265.5,898C 283.334,897.417 300.668,900.084 317.5,906C 334.054,908.58 350.387,907.58 366.5,903C 401.127,891.791 435.794,880.791 470.5,870C 485.831,866.667 501.164,866.667 516.5,870C 552.699,882.066 589.032,893.733 625.5,905C 643.468,908.96 661.134,908.127 678.5,902.5 Z"/></g>
<g><path style="opacity:1" fill="#72a6b6" d="M 1385.5,876.5 C 1382.45,877.88 1380.28,880.214 1379,883.5C 1375.34,899.013 1380.84,909.846 1395.5,916C 1398.48,916.498 1401.48,916.665 1404.5,916.5C 1399.2,928.5 1389.86,934.5 1376.5,934.5C 1375.67,918.177 1375.17,901.844 1375,885.5C 1360.83,877.831 1345.66,873.664 1329.5,873C 1332.96,869.352 1337.13,867.186 1342,866.5C 1357.17,867.498 1371.67,870.831 1385.5,876.5 Z"/></g>
<g><path style="opacity:1" fill="#fbfcfc" d="M 1385.5,876.5 C 1404.76,883.686 1411.09,897.02 1404.5,916.5C 1401.48,916.665 1398.48,916.498 1395.5,916C 1380.84,909.846 1375.34,899.013 1379,883.5C 1380.28,880.214 1382.45,877.88 1385.5,876.5 Z"/></g>
<g><path style="opacity:1" fill="#71a3b3" d="M 880.5,893.5 C 884.917,895.328 885.251,897.494 881.5,900C 860.077,913.095 836.743,920.428 811.5,922C 801.5,922.667 791.5,922.667 781.5,922C 778.635,921.817 775.969,921.317 773.5,920.5C 805.968,922.878 836.968,917.378 866.5,904C 871.917,901.406 876.583,897.906 880.5,893.5 Z"/></g>
<g><path style="opacity:1" fill="#fbfcfc" d="M 218.5,927.5 C 197.519,929.863 185.519,920.53 182.5,899.5C 184.359,898.406 186.359,897.573 188.5,897C 210.858,895.19 220.858,905.357 218.5,927.5 Z"/></g>
<g><path style="opacity:1" fill="#2b4350" d="M 418.5,914.5 C 420.325,935.81 421.158,957.477 421,979.5C 429.205,970.964 437.038,962.131 444.5,953C 453.5,952.333 462.5,952.333 471.5,953C 461.352,964.649 451.018,976.149 440.5,987.5C 452.872,1000.58 463.539,1014.92 472.5,1030.5C 463.853,1031.67 455.186,1031.83 446.5,1031C 439.729,1018.96 431.396,1008.12 421.5,998.5C 420.501,1009.48 420.168,1020.48 420.5,1031.5C 412.833,1031.5 405.167,1031.5 397.5,1031.5C 397.5,993.833 397.5,956.167 397.5,918.5C 404.744,917.728 411.744,916.395 418.5,914.5 Z"/></g>
<g><path style="opacity:1" fill="#2b4350" d="M 589.5,915.5 C 591.167,915.5 592.833,915.5 594.5,915.5C 594.5,928.167 594.5,940.833 594.5,953.5C 604.099,951.042 613.766,950.875 623.5,953C 635.99,958.841 643.157,968.674 645,982.5C 646.822,1020.67 628.655,1037.51 590.5,1033C 584.13,1032.19 577.964,1030.69 572,1028.5C 571.5,991.835 571.333,955.168 571.5,918.5C 577.665,917.695 583.665,916.695 589.5,915.5 Z"/></g>
<g><path style="opacity:1" fill="#2b4350" d="M 1006.5,929.5 C 1008.17,929.5 1009.83,929.5 1011.5,929.5C 1011.5,937.167 1011.5,944.833 1011.5,952.5C 1020.5,952.5 1029.5,952.5 1038.5,952.5C 1038.81,958.758 1038.48,964.924 1037.5,971C 1028.84,971.5 1020.17,971.666 1011.5,971.5C 1011.33,982.505 1011.5,993.505 1012,1004.5C 1012.28,1009.45 1014.78,1012.61 1019.5,1014C 1025.93,1014.5 1032.26,1014.17 1038.5,1013C 1040.04,1018.4 1040.87,1023.9 1041,1029.5C 1027.39,1034.9 1013.89,1034.74 1000.5,1029C 994.002,1024.17 990.502,1017.67 990,1009.5C 989.5,983.835 989.333,958.169 989.5,932.5C 995.4,932.117 1001.07,931.117 1006.5,929.5 Z"/></g>
<g><path style="opacity:1" fill="#2b4350" d="M 688.5,950.5 C 721.977,949.653 736.644,965.987 732.5,999.5C 715.5,999.5 698.5,999.5 681.5,999.5C 682.741,1005.91 686.408,1010.41 692.5,1013C 702.65,1015.2 712.65,1014.7 722.5,1011.5C 723.5,1011.83 724.5,1012.17 725.5,1012.5C 726.215,1017.38 727.215,1022.21 728.5,1027C 728.355,1027.77 728.022,1028.44 727.5,1029C 710.785,1034.92 694.119,1034.92 677.5,1029C 667.029,1022.84 660.862,1013.67 659,1001.5C 655.501,976.468 665.335,959.468 688.5,950.5 Z"/></g>
<g><path style="opacity:1" fill="#2b4350" d="M 927.5,950.5 C 961.118,948.954 975.951,964.954 972,998.5C 955.244,999.492 938.411,999.825 921.5,999.5C 923.24,1007.08 927.907,1011.91 935.5,1014C 940.833,1014.67 946.167,1014.67 951.5,1014C 956.084,1012.64 960.751,1011.8 965.5,1011.5C 966.331,1017.48 966.997,1023.48 967.5,1029.5C 954.767,1033.24 941.767,1034.41 928.5,1033C 911.315,1028.82 901.482,1017.98 899,1000.5C 895.358,976.096 904.858,959.429 927.5,950.5 Z"/></g>
<g><path style="opacity:1" fill="#2c4350" d="M 1079.5,950.5 C 1112.98,949.652 1127.64,965.986 1123.5,999.5C 1106.83,999.5 1090.17,999.5 1073.5,999.5C 1074.52,1007.69 1079.19,1012.53 1087.5,1014C 1092.5,1014.67 1097.5,1014.67 1102.5,1014C 1107.16,1012.88 1111.82,1012.22 1116.5,1012C 1117.45,1016.8 1118.45,1021.63 1119.5,1026.5C 1119.39,1027.44 1119.06,1028.28 1118.5,1029C 1105.84,1033.24 1092.84,1034.57 1079.5,1033C 1061.87,1028.7 1052.03,1017.53 1050,999.5C 1047.33,975.394 1057.16,959.061 1079.5,950.5 Z"/></g>
<g><path style="opacity:1" fill="#2c4451" d="M 1161.5,950.5 C 1172.16,949.663 1182.49,950.996 1192.5,954.5C 1192.83,955.167 1193.17,955.833 1193.5,956.5C 1192.61,961.535 1191.61,966.535 1190.5,971.5C 1186.09,971.147 1181.75,970.314 1177.5,969C 1173.83,968.333 1170.17,968.333 1166.5,969C 1163.24,969.426 1161.57,971.259 1161.5,974.5C 1161.39,976.374 1162.06,977.874 1163.5,979C 1171.47,982.65 1179.47,986.317 1187.5,990C 1195.9,996.381 1199.07,1004.88 1197,1015.5C 1193.21,1026.5 1185.38,1032.34 1173.5,1033C 1161.21,1034.45 1149.21,1033.28 1137.5,1029.5C 1137.17,1028.83 1136.83,1028.17 1136.5,1027.5C 1138.27,1022.31 1139.27,1016.97 1139.5,1011.5C 1149.3,1014.31 1159.3,1015.48 1169.5,1015C 1175.28,1012.77 1175.95,1009.44 1171.5,1005C 1163.42,1001.53 1155.42,997.86 1147.5,994C 1137.48,983.992 1135.98,972.825 1143,960.5C 1148.19,955.16 1154.35,951.827 1161.5,950.5 Z"/></g>
<g><path style="opacity:1" fill="#2a424f" d="M 767.5,951.5 C 778.921,951.076 790.254,951.743 801.5,953.5C 800.226,959.705 798.893,965.872 797.5,972C 792.444,971.112 787.277,970.612 782,970.5C 778.914,970.522 775.914,970.855 773,971.5C 772.5,991.497 772.333,1011.5 772.5,1031.5C 765.167,1031.5 757.833,1031.5 750.5,1031.5C 750.333,1006.5 750.5,981.498 751,956.5C 756.556,954.67 762.056,953.004 767.5,951.5 Z"/></g>
<g><path style="opacity:1" fill="#2b424f" d="M 834.5,950.5 C 846.692,949.252 858.359,951.085 869.5,956C 875.506,960.85 879.339,967.017 881,974.5C 881.5,993.497 881.667,1012.5 881.5,1031.5C 874.167,1031.5 866.833,1031.5 859.5,1031.5C 859.946,1013.44 859.446,995.444 858,977.5C 855.144,971.738 850.477,969.405 844,970.5C 841.245,970.525 838.578,970.859 836,971.5C 835.5,991.497 835.333,1011.5 835.5,1031.5C 828.167,1031.5 820.833,1031.5 813.5,1031.5C 813.333,1006.16 813.5,980.831 814,955.5C 820.864,953.549 827.698,951.882 834.5,950.5 Z"/></g>
<g><path style="opacity:1" fill="#2b424f" d="M 482.5,952.5 C 489.833,952.5 497.167,952.5 504.5,952.5C 504.333,968.837 504.5,985.17 505,1001.5C 505.762,1006.2 507.929,1010.03 511.5,1013C 517.157,1013.5 522.824,1013.67 528.5,1013.5C 528.5,993.167 528.5,972.833 528.5,952.5C 535.833,952.5 543.167,952.5 550.5,952.5C 550.667,977.836 550.5,1003.17 550,1028.5C 536.186,1032.86 522.019,1034.36 507.5,1033C 493.591,1030.09 485.424,1021.59 483,1007.5C 482.5,989.17 482.333,970.836 482.5,952.5 Z"/></g>
<g><path style="opacity:1" fill="#fbfcfc" d="M 710.5,983.5 C 700.773,984.139 691.44,983.472 682.5,981.5C 686.33,969.594 693.997,966.428 705.5,972C 709.493,974.819 711.16,978.653 710.5,983.5 Z"/></g>
<g><path style="opacity:1" fill="#fbfcfc" d="M 950.5,983.5 C 941.167,983.5 931.833,983.5 922.5,983.5C 922.5,982.5 922.5,981.5 922.5,980.5C 925.487,971.333 931.82,967.833 941.5,970C 947.622,972.408 950.622,976.908 950.5,983.5 Z"/></g>
<g><path style="opacity:1" fill="#fbfcfc" d="M 1101.5,980.5 C 1101.5,981.5 1101.5,982.5 1101.5,983.5C 1092.17,983.5 1082.83,983.5 1073.5,983.5C 1075.73,970.876 1083.06,966.71 1095.5,971C 1098.98,973.297 1100.98,976.464 1101.5,980.5 Z"/></g>
<g><path style="opacity:1" fill="#fbfcfc" d="M 598.5,970.5 C 611.226,967.432 619.059,972.099 622,984.5C 623.981,995.221 621.147,1004.39 613.5,1012C 607.476,1014.59 601.31,1015.09 595,1013.5C 594.167,999.821 594.334,986.154 595.5,972.5C 596.739,972.058 597.739,971.391 598.5,970.5 Z"/></g>
<g><path style="opacity:1" fill="#919ea4" d="M 682.5,981.5 C 691.44,983.472 700.773,984.139 710.5,983.5C 701.014,984.494 691.348,984.827 681.5,984.5C 681.263,983.209 681.596,982.209 682.5,981.5 Z"/></g>
<g><path style="opacity:1" fill="#96a2a8" d="M 922.5,980.5 C 922.5,981.5 922.5,982.5 922.5,983.5C 931.833,983.5 941.167,983.5 950.5,983.5C 941.014,984.494 931.348,984.827 921.5,984.5C 921.232,982.901 921.566,981.568 922.5,980.5 Z"/></g>
<g><path style="opacity:1" fill="#939fa5" d="M 1101.5,980.5 C 1102.43,981.568 1102.77,982.901 1102.5,984.5C 1092.65,984.827 1082.99,984.494 1073.5,983.5C 1082.83,983.5 1092.17,983.5 1101.5,983.5C 1101.5,982.5 1101.5,981.5 1101.5,980.5 Z"/></g>
<g><path style="opacity:1" fill="#73a7b7" d="M 251.5,952.5 C 252.499,991.663 252.832,1031 252.5,1070.5C 256.223,1071.3 259.89,1072.3 263.5,1073.5C 280.719,1079.29 298.052,1084.79 315.5,1090C 325.387,1092.27 335.387,1092.94 345.5,1092C 386.054,1080.48 426.388,1068.15 466.5,1055C 483.839,1050.37 501.173,1050.37 518.5,1055C 556.382,1067.41 594.382,1079.41 632.5,1091C 642.167,1091.67 651.833,1091.67 661.5,1091C 698.362,1079.93 735.029,1068.27 771.5,1056C 791.137,1051.4 810.803,1051.4 830.5,1056C 863.749,1067.19 897.082,1078.19 930.5,1089C 945.073,1091.97 959.74,1092.31 974.5,1090C 1010.11,1078.46 1045.78,1067.13 1081.5,1056C 1101.5,1050 1121.5,1050 1141.5,1056C 1175.04,1067.4 1208.71,1078.4 1242.5,1089C 1250.42,1090.68 1258.42,1091.85 1266.5,1092.5C 1274.57,1091.85 1282.57,1090.68 1290.5,1089C 1310.67,1082 1331,1075.5 1351.5,1069.5C 1354.81,1068.18 1358.14,1066.85 1361.5,1065.5C 1362.5,1056.19 1362.83,1046.86 1362.5,1037.5C 1363.83,1051.01 1363.83,1064.67 1362.5,1078.5C 1334.74,1087.92 1306.74,1096.42 1278.5,1104C 1266.73,1105.02 1255.06,1104.36 1243.5,1102C 1205.77,1090.2 1168.11,1078.2 1130.5,1066C 1116.09,1063.75 1101.76,1064.08 1087.5,1067C 1052.84,1078 1018.18,1089 983.5,1100C 966.33,1105.04 948.997,1105.71 931.5,1102C 896.454,1090.87 861.454,1079.54 826.5,1068C 809.158,1063.36 791.825,1063.36 774.5,1068C 741.844,1078.66 709.178,1089.33 676.5,1100C 659.33,1105.06 641.996,1105.73 624.5,1102C 588.167,1090.33 551.833,1078.67 515.5,1067C 500.164,1063.67 484.831,1063.67 469.5,1067C 432.228,1078.87 394.894,1090.54 357.5,1102C 340.008,1105.71 322.675,1105.04 305.5,1100C 287.577,1094.36 269.744,1088.53 252,1082.5C 251.5,1039.17 251.333,995.835 251.5,952.5 Z"/></g>
<g><path style="opacity:1" fill="#b7dee1" d="M 591.5,1157.5 C 613.998,1162.13 624.831,1152.79 624,1129.5C 623.626,1127.51 622.793,1125.84 621.5,1124.5C 621.239,1119.78 619.573,1115.62 616.5,1112C 635.385,1116.42 654.385,1116.59 673.5,1112.5C 757.435,1142.02 841.268,1141.68 925,1111.5C 929.08,1112.93 933.247,1114.1 937.5,1115C 950.744,1115.98 963.911,1115.48 977,1113.5C 977.5,1113.83 978,1114.17 978.5,1114.5C 972.206,1134.08 978.539,1147.91 997.5,1156C 999.81,1156.5 1002.14,1156.66 1004.5,1156.5C 1023.56,1161.8 1034.89,1154.63 1038.5,1135C 1038.42,1130.6 1037.09,1126.76 1034.5,1123.5C 1033.31,1113.47 1028.31,1105.97 1019.5,1101C 1019.83,1100.67 1020.17,1100.33 1020.5,1100C 1043.92,1092.92 1067.25,1085.58 1090.5,1078C 1104.89,1074.55 1119.22,1074.71 1133.5,1078.5C 1048.81,1167.67 944.805,1216.84 821.5,1226C 701.107,1231.81 594.107,1197.31 500.5,1122.5C 486.397,1110.23 473.064,1097.06 460.5,1083C 459.906,1082.54 459.239,1082.37 458.5,1082.5C 476.252,1075.33 494.585,1073.83 513.5,1078C 535.907,1085.14 558.24,1092.47 580.5,1100C 561.918,1110.42 557.418,1125.25 567,1144.5C 572.948,1152.89 581.114,1157.23 591.5,1157.5 Z"/></g>
<g><path style="opacity:1" fill="#e36f6f" d="M 788.5,1076.5 C 797.506,1076.33 806.506,1076.5 815.5,1077C 824.674,1079.06 833.674,1081.72 842.5,1085C 814.301,1090.15 785.967,1090.82 757.5,1087C 756.366,1085.98 756.699,1085.32 758.5,1085C 768.456,1081.52 778.456,1078.68 788.5,1076.5 Z"/></g>
<g><path style="opacity:1" fill="#73a7b6" d="M 1133.5,1078.5 C 1135.8,1079.16 1138.14,1079.83 1140.5,1080.5C 1141.52,1081 1141.69,1081.67 1141,1082.5C 1047.89,1181.04 933.221,1231.37 797,1233.5C 673.499,1231.8 566.666,1189.3 476.5,1106C 469.135,1098.97 462.135,1091.64 455.5,1084C 456.044,1083.28 456.711,1082.78 457.5,1082.5C 469.949,1097.95 484.283,1111.29 500.5,1122.5C 594.107,1197.31 701.107,1231.81 821.5,1226C 944.805,1216.84 1048.81,1167.67 1133.5,1078.5 Z"/></g>
<g><path style="opacity:1" fill="#f5fafa" d="M 457.5,1082.5 C 457.833,1082.5 458.167,1082.5 458.5,1082.5C 459.239,1082.37 459.906,1082.54 460.5,1083C 473.064,1097.06 486.397,1110.23 500.5,1122.5C 484.283,1111.29 469.949,1097.95 457.5,1082.5 Z"/></g>
<g><path style="opacity:1" fill="#73a9b9" d="M 865.5,1093.5 C 878.465,1096.49 891.132,1100.49 903.5,1105.5C 844.734,1124.43 785.067,1127.6 724.5,1115C 714.098,1112.35 703.764,1109.52 693.5,1106.5C 705.426,1102.3 717.426,1098.3 729.5,1094.5C 775.023,1103.88 820.357,1103.55 865.5,1093.5 Z"/></g>
<g><path style="opacity:1" fill="#fcfcfc" d="M 999.5,1109.5 C 1018.25,1108.74 1025.41,1117.4 1021,1135.5C 1014.38,1144.78 1005.88,1146.94 995.5,1142C 983.86,1129.59 985.193,1118.76 999.5,1109.5 Z"/></g>
<g><path style="opacity:1" fill="#fbfcfc" d="M 585.5,1110.5 C 603.638,1108.8 611.138,1116.8 608,1134.5C 603.459,1143.19 596.293,1146.69 586.5,1145C 574.731,1138.69 571.564,1129.52 577,1117.5C 579.441,1114.55 582.275,1112.21 585.5,1110.5 Z"/></g>
<g><path style="opacity:0.983" fill="#314854" d="M 1226.5,1114.5 C 1228.53,1114.34 1230.53,1114.5 1232.5,1115C 1274.48,1145.64 1315.32,1177.81 1355,1211.5C 1355.91,1221.26 1352.08,1223.76 1343.5,1219C 1303.42,1188.26 1263.92,1156.76 1225,1124.5C 1224.04,1120.85 1224.54,1117.52 1226.5,1114.5 Z"/></g>
<g><path style="opacity:1" fill="#75aaba" d="M 621.5,1124.5 C 622.793,1125.84 623.626,1127.51 624,1129.5C 624.831,1152.79 613.998,1162.13 591.5,1157.5C 611.245,1155.42 621.245,1144.42 621.5,1124.5 Z"/></g>
<g><path style="opacity:1" fill="#74a8b7" d="M 1034.5,1123.5 C 1037.09,1126.76 1038.42,1130.6 1038.5,1135C 1034.89,1154.63 1023.56,1161.8 1004.5,1156.5C 1024.97,1155.03 1034.97,1144.03 1034.5,1123.5 Z"/></g>
<g><path style="opacity:0.978" fill="#304754" d="M 383.5,1145.5 C 390.327,1144.83 393.16,1147.83 392,1154.5C 371.033,1173.14 349.2,1190.64 326.5,1207C 318.735,1209.57 315.568,1206.74 317,1198.5C 338.598,1179.97 360.765,1162.31 383.5,1145.5 Z"/></g>
<g><path style="opacity:0.975" fill="#304753" d="M 1198.5,1150.5 C 1202.13,1150.16 1205.46,1150.99 1208.5,1153C 1229.91,1169.07 1250.75,1185.91 1271,1203.5C 1272.55,1209.09 1270.55,1212.42 1265,1213.5C 1261.99,1212.41 1259.16,1210.91 1256.5,1209C 1236.04,1192.88 1215.88,1176.38 1196,1159.5C 1194.93,1155.86 1195.76,1152.86 1198.5,1150.5 Z"/></g>
<g><path style="opacity:1" fill="#2c4451" d="M 828.5,1180.5 C 827.797,1199.87 817.797,1210.54 798.5,1212.5C 783.866,1211.77 774.366,1204.44 770,1190.5C 766.9,1174.2 772.733,1162.37 787.5,1155C 809.797,1149.81 823.464,1158.31 828.5,1180.5 Z"/></g>
<g><path style="opacity:1" fill="#fbfbfb" d="M 792.5,1165.5 C 808.636,1164.14 816.47,1171.47 816,1187.5C 810.488,1199.51 801.655,1203.01 789.5,1198C 782.033,1192.6 779.533,1185.43 782,1176.5C 784.357,1171.65 787.857,1167.98 792.5,1165.5 Z"/></g>
<g><path style="opacity:1" fill="#75a9b9" d="M 828.5,1180.5 C 832.783,1189.47 831.95,1198.14 826,1206.5C 818.017,1214.53 808.85,1216.53 798.5,1212.5C 817.797,1210.54 827.797,1199.87 828.5,1180.5 Z"/></g>
<g><path style="opacity:1" fill="#e6706f" d="M 1031.5,1194.5 C 1020.54,1200.08 1015.54,1209.08 1016.5,1221.5C 1009.59,1224.95 1002.59,1228.45 995.5,1232C 988.113,1231.97 983.613,1228.14 982,1220.5C 981.424,1214.81 983.257,1209.98 987.5,1206C 999.929,1200.95 1011.93,1195.12 1023.5,1188.5C 1026.95,1189.55 1029.62,1191.55 1031.5,1194.5 Z"/></g>
<g><path style="opacity:1" fill="#e77170" d="M 609.5,1218.5 C 600.916,1215.4 592.582,1215.9 584.5,1220C 582.808,1221.31 581.475,1222.81 580.5,1224.5C 571.663,1220.83 563.163,1216.5 555,1211.5C 554.438,1195.32 562.271,1188.82 578.5,1192C 588.045,1196.94 597.711,1201.61 607.5,1206C 610.427,1209.95 611.094,1214.12 609.5,1218.5 Z"/></g>
<g><path style="opacity:1" fill="#fcf9f9" d="M 1031.5,1194.5 C 1033.86,1196.91 1034.86,1199.91 1034.5,1203.5C 1034.52,1208.63 1032.52,1212.79 1028.5,1216C 1024.6,1218.12 1020.6,1219.95 1016.5,1221.5C 1015.54,1209.08 1020.54,1200.08 1031.5,1194.5 Z"/></g>
<g><path style="opacity:1" fill="#fbfbfb" d="M 609.5,1218.5 C 606.975,1227.6 600.975,1231.44 591.5,1230C 587.493,1228.66 583.827,1226.83 580.5,1224.5C 581.475,1222.81 582.808,1221.31 584.5,1220C 592.582,1215.9 600.916,1215.4 609.5,1218.5 Z"/></g>
<g><path style="opacity:1" fill="#72a7b7" d="M 559.5,1319.5 C 557.347,1315.18 554.014,1312.02 549.5,1310C 534.846,1305.58 524.013,1310.08 517,1323.5C 516.505,1325.47 516.338,1327.47 516.5,1329.5C 510.292,1326.44 506.459,1321.44 505,1314.5C 503.339,1284.15 516.505,1262.99 544.5,1251C 557.48,1248.57 567.314,1253.07 574,1264.5C 576.246,1268.49 578.079,1272.66 579.5,1277C 576.393,1286.32 572.893,1295.49 569,1304.5C 566.308,1309.9 563.142,1314.9 559.5,1319.5 Z"/></g>
<g><path style="opacity:1" fill="#72a7b7" d="M 1078.5,1295.5 C 1058.3,1297.54 1050.13,1308.54 1054,1328.5C 1055,1330.5 1056,1332.5 1057,1334.5C 1057.82,1335.82 1058.98,1336.49 1060.5,1336.5C 1051.64,1339.92 1043.31,1338.75 1035.5,1333C 1015.26,1314.55 1008.76,1292.05 1016,1265.5C 1022.45,1253.86 1032.28,1249.03 1045.5,1251C 1049.21,1251.84 1052.88,1252.84 1056.5,1254C 1067.04,1266.06 1074.37,1279.9 1078.5,1295.5 Z"/></g>
<g><path style="opacity:1" fill="#fbfcfc" d="M 1078.5,1295.5 C 1084.38,1308.93 1082.04,1320.77 1071.5,1331C 1068.09,1333.37 1064.42,1335.2 1060.5,1336.5C 1058.98,1336.49 1057.82,1335.82 1057,1334.5C 1056,1332.5 1055,1330.5 1054,1328.5C 1050.13,1308.54 1058.3,1297.54 1078.5,1295.5 Z"/></g>
<g><path style="opacity:1" fill="#fcfdfd" d="M 559.5,1319.5 C 548.282,1336.56 533.948,1339.89 516.5,1329.5C 516.338,1327.47 516.505,1325.47 517,1323.5C 524.013,1310.08 534.846,1305.58 549.5,1310C 554.014,1312.02 557.347,1315.18 559.5,1319.5 Z"/></g>
<g><path style="opacity:0.972" fill="#2a414e" d="M 742.5,1322.5 C 745.187,1322.34 747.854,1322.5 750.5,1323C 751.849,1323.77 752.682,1324.94 753,1326.5C 753.667,1355.17 753.667,1383.83 753,1412.5C 749,1416.5 745,1416.5 741,1412.5C 740.333,1383.5 740.333,1354.5 741,1325.5C 741.513,1324.47 742.013,1323.47 742.5,1322.5 Z"/></g>
<g><path style="opacity:0.973" fill="#2a424e" d="M 788.5,1322.5 C 791.187,1322.34 793.854,1322.5 796.5,1323C 797.849,1323.77 798.682,1324.94 799,1326.5C 799.667,1378.5 799.667,1430.5 799,1482.5C 796.947,1486.29 793.781,1487.46 789.5,1486C 788.299,1485.1 787.465,1483.93 787,1482.5C 786.333,1430.17 786.333,1377.83 787,1325.5C 787.513,1324.47 788.013,1323.47 788.5,1322.5 Z"/></g>
<g><path style="opacity:0.968" fill="#2a424f" d="M 834.5,1322.5 C 838.03,1321.99 841.196,1322.66 844,1324.5C 844.667,1353.83 844.667,1383.17 844,1412.5C 843.242,1414.91 841.575,1415.91 839,1415.5C 836.296,1415.81 834.296,1414.81 833,1412.5C 832.333,1383.5 832.333,1354.5 833,1325.5C 833.513,1324.47 834.013,1323.47 834.5,1322.5 Z"/></g>
</svg>
