<?xml version="1.0" encoding="UTF-8"?>
<!DOCTYPE svg PUBLIC "-//W3C//DTD SVG 1.1//EN" "http://www.w3.org/Graphics/SVG/1.1/DTD/svg11.dtd">
<svg xmlns="http://www.w3.org/2000/svg" version="1.1" width="318px" height="361px" style="shape-rendering:geometricPrecision; text-rendering:geometricPrecision; image-rendering:optimizeQuality; fill-rule:evenodd; clip-rule:evenodd" xmlns:xlink="http://www.w3.org/1999/xlink">
<g><path style="opacity:0.994" fill="#019639" d="M 152.5,-0.5 C 156.5,-0.5 160.5,-0.5 164.5,-0.5C 212.738,27.2926 261.072,55.126 309.5,83C 313.311,86.1496 315.977,89.983 317.5,94.5C 317.5,151.167 317.5,207.833 317.5,264.5C 315.169,271.004 310.836,275.838 304.5,279C 259.337,304.747 214.337,330.747 169.5,357C 162.167,360.333 154.833,360.333 147.5,357C 102.663,330.747 57.6635,304.747 12.5,279C 6.16411,275.838 1.83077,271.004 -0.5,264.5C -0.5,207.833 -0.5,151.167 -0.5,94.5C 1.0226,89.983 3.68926,86.1496 7.5,83C 55.9282,55.126 104.262,27.2926 152.5,-0.5 Z"/></g>
<g><path style="opacity:1" fill="#fbfdfc" d="M 190.5,175.5 C 198.984,176.493 207.651,176.826 216.5,176.5C 216.5,171.167 216.5,165.833 216.5,160.5C 216.953,159.542 217.619,158.708 218.5,158C 231.5,157.333 244.5,157.333 257.5,158C 258,158.5 258.5,159 259,159.5C 259.667,172.833 259.667,186.167 259,199.5C 258.5,200 258,200.5 257.5,201C 244.5,201.667 231.5,201.667 218.5,201C 217.619,200.292 216.953,199.458 216.5,198.5C 216.5,193.5 216.5,188.5 216.5,183.5C 207.5,183.5 198.5,183.5 189.5,183.5C 189.187,187.042 189.521,190.375 190.5,193.5C 199.957,200.451 209.291,207.618 218.5,215C 231.5,215.333 244.5,215.667 257.5,216C 258,216.5 258.5,217 259,217.5C 259.667,230.5 259.667,243.5 259,256.5C 258.5,257 258,257.5 257.5,258C 244.5,258.667 231.5,258.667 218.5,258C 216.698,246.749 215.865,235.249 216,223.5C 208.074,216.795 199.908,210.462 191.5,204.5C 191.44,203.957 191.107,203.624 190.5,203.5C 189.501,216.817 189.167,230.15 189.5,243.5C 188.71,244.794 187.71,245.961 186.5,247C 144.167,247.667 101.833,247.667 59.5,247C 57.6667,246.5 56.5,245.333 56,243.5C 55.3333,200.833 55.3333,158.167 56,115.5C 56.8333,114.667 57.6667,113.833 58.5,113C 101.167,112.333 143.833,112.333 186.5,113C 188.056,113.72 189.056,114.887 189.5,116.5C 189.167,129.85 189.501,143.183 190.5,156.5C 191.107,156.376 191.44,156.043 191.5,155.5C 199.908,149.538 208.074,143.205 216,136.5C 216.333,125.167 216.667,113.833 217,102.5C 217.5,102 218,101.5 218.5,101C 231.5,100.333 244.5,100.333 257.5,101C 258,101.5 258.5,102 259,102.5C 259.667,115.5 259.667,128.5 259,141.5C 258.5,142 258,142.5 257.5,143C 244.833,143.333 232.167,143.667 219.5,144C 210.309,151.358 200.976,158.525 191.5,165.5C 190.513,168.768 190.18,172.102 190.5,175.5 Z"/></g>
<g><path style="opacity:1" fill="#009638" d="M 224.5,108.5 C 233.5,108.5 242.5,108.5 251.5,108.5C 251.5,117.5 251.5,126.5 251.5,135.5C 242.5,135.5 233.5,135.5 224.5,135.5C 224.5,126.5 224.5,117.5 224.5,108.5 Z"/></g>
<g><path style="opacity:1" fill="#aadcbd" d="M 189.5,116.5 C 190.167,129.5 190.833,142.5 191.5,155.5C 191.44,156.043 191.107,156.376 190.5,156.5C 189.501,143.183 189.167,129.85 189.5,116.5 Z"/></g>
<g><path style="opacity:1" fill="#009639" d="M 177.5,124.5 C 177.5,161.167 177.5,197.833 177.5,234.5C 140.833,234.5 104.167,234.5 67.5,234.5C 67.5,197.833 67.5,161.167 67.5,124.5C 104.167,124.5 140.833,124.5 177.5,124.5 Z"/></g>
<g><path style="opacity:1" fill="#0a973c" d="M 224.5,165.5 C 233.5,165.5 242.5,165.5 251.5,165.5C 251.5,174.833 251.5,184.167 251.5,193.5C 242.5,193.5 233.5,193.5 224.5,193.5C 224.5,184.167 224.5,174.833 224.5,165.5 Z"/></g>
<g><path style="opacity:1" fill="#7ac797" d="M 216.5,160.5 C 216.5,165.833 216.5,171.167 216.5,176.5C 207.651,176.826 198.984,176.493 190.5,175.5C 198.833,175.5 207.167,175.5 215.5,175.5C 215.179,170.305 215.513,165.305 216.5,160.5 Z"/></g>
<g><path style="opacity:1" fill="#79c796" d="M 216.5,198.5 C 215.514,194.03 215.181,189.363 215.5,184.5C 207.167,184.5 198.833,184.5 190.5,184.5C 190.5,187.5 190.5,190.5 190.5,193.5C 189.521,190.375 189.187,187.042 189.5,183.5C 198.5,183.5 207.5,183.5 216.5,183.5C 216.5,188.5 216.5,193.5 216.5,198.5 Z"/></g>
<g><path style="opacity:1" fill="#a8dbbc" d="M 191.5,204.5 C 190.833,217.5 190.167,230.5 189.5,243.5C 189.167,230.15 189.501,216.817 190.5,203.5C 191.107,203.624 191.44,203.957 191.5,204.5 Z"/></g>
<g><path style="opacity:1" fill="#009638" d="M 224.5,223.5 C 233.5,223.5 242.5,223.5 251.5,223.5C 251.5,232.5 251.5,241.5 251.5,250.5C 242.5,250.5 233.5,250.5 224.5,250.5C 224.5,241.5 224.5,232.5 224.5,223.5 Z"/></g>
<g><path style="opacity:1" fill="#43b16c" d="M 177.5,124.5 C 178.498,161.33 178.832,198.33 178.5,235.5C 141.33,235.832 104.33,235.498 67.5,234.5C 104.167,234.5 140.833,234.5 177.5,234.5C 177.5,197.833 177.5,161.167 177.5,124.5 Z"/></g>
<g><path style="opacity:0.672" fill="#989898" d="M 317.5,317.5 C 317.5,318.833 317.5,320.167 317.5,321.5C 314.017,331.063 307.35,333.896 297.5,330C 291.284,323.613 290.951,316.946 296.5,310C 306.442,304.765 313.442,307.265 317.5,317.5 Z M 310.5,326.5 C 310.896,323.956 310.229,321.789 308.5,320C 311.054,317.731 311.054,315.398 308.5,313C 305.518,312.502 302.518,312.335 299.5,312.5C 304.272,308.875 308.772,309.542 313,314.5C 315.537,319.32 314.704,323.32 310.5,326.5 Z M 299.5,312.5 C 299.5,317.167 299.5,321.833 299.5,326.5C 300.5,326.5 301.5,326.5 302.5,326.5C 302.5,324.833 302.5,323.167 302.5,321.5C 306.5,320.833 308.167,322.5 307.5,326.5C 308.5,326.5 309.5,326.5 310.5,326.5C 305.911,330.504 301.411,330.17 297,325.5C 295.517,322.298 295.183,318.964 296,315.5C 296.759,313.937 297.926,312.937 299.5,312.5 Z M 302.5,315.5 C 309.167,316.5 309.167,317.5 302.5,318.5C 302.5,317.5 302.5,316.5 302.5,315.5 Z"/></g>
<g><path style="opacity:0.663" fill="#989898" d="M 299.5,312.5 C 302.518,312.335 305.518,312.502 308.5,313C 311.054,315.398 311.054,317.731 308.5,320C 310.229,321.789 310.896,323.956 310.5,326.5C 309.5,326.5 308.5,326.5 307.5,326.5C 308.167,322.5 306.5,320.833 302.5,321.5C 302.5,323.167 302.5,324.833 302.5,326.5C 301.5,326.5 300.5,326.5 299.5,326.5C 299.5,321.833 299.5,317.167 299.5,312.5 Z M 302.5,315.5 C 302.5,316.5 302.5,317.5 302.5,318.5C 309.167,317.5 309.167,316.5 302.5,315.5 Z"/></g>
</svg>
