<svg width="32" height="32" viewBox="0 0 32 32" fill="none" xmlns="http://www.w3.org/2000/svg">
<g id="github 1" clip-path="url(#clip0_7775_7489)">
<path id="Vector" d="M15.998 0C7.16401 0 9.23295e-06 7.192 9.23295e-06 16.064C-0.00360001 19.4311 1.05104 22.7142 3.01487 25.4493C4.97871 28.1843 7.75242 30.2331 10.944 31.306C11.744 31.454 12.036 30.958 12.036 30.532C12.036 30.15 12.022 29.14 12.014 27.8C7.56401 28.77 6.62401 25.646 6.62401 25.646C5.89801 23.79 4.84801 23.296 4.84801 23.296C3.39401 22.3 4.95601 22.32 4.95601 22.32C6.56201 22.434 7.40601 23.976 7.40601 23.976C8.83401 26.43 11.152 25.722 12.064 25.31C12.208 24.272 12.622 23.564 13.08 23.162C9.52801 22.756 5.79201 21.378 5.79201 15.224C5.79201 13.47 6.41601 12.036 7.44001 10.912C7.27401 10.506 6.72601 8.872 7.59601 6.662C7.59601 6.662 8.94001 6.23 11.996 8.308C13.3015 7.95122 14.6486 7.76963 16.002 7.768C17.3554 7.77069 18.7025 7.95294 20.008 8.31C23.062 6.232 24.404 6.664 24.404 6.664C25.276 8.876 24.728 10.508 24.564 10.914C25.59 12.038 26.208 13.472 26.208 15.226C26.208 21.396 22.468 22.754 18.904 23.152C19.478 23.648 19.99 24.628 19.99 26.126C19.99 28.274 19.97 30.006 19.97 30.532C19.97 30.962 20.258 31.462 21.07 31.304C24.2585 30.2286 27.0288 28.179 28.9899 25.4446C30.951 22.7102 32.0039 19.429 32 16.064C32 7.192 24.836 0 15.998 0Z" fill="#FBFBFB"/>
</g>
<defs>
<clipPath id="clip0_7775_7489">
<rect width="32" height="32" fill="white"/>
</clipPath>
</defs>
</svg>
