<svg width="33" height="32" viewBox="0 0 33 32" fill="none" xmlns="http://www.w3.org/2000/svg">
<path d="M29.7004 7.11755C29.5181 6.5114 29.078 6.0184 28.5285 5.71667L17.3693 0.18858C17.0751 0.037716 16.7469 0 16.4526 0C16.1584 0 15.8302 0 15.5386 0.075432L4.37676 5.64124C3.82726 5.90525 3.42621 6.39825 3.27777 7.04212L0.535498 19.4965C0.426119 20.1404 0.571957 20.7842 0.939156 21.3149L8.66074 31.1938C9.10086 31.6491 9.72328 31.9509 10.3431 31.9886H22.6377C23.2966 32.064 23.919 31.7623 24.3201 31.1938L32.0417 21.3149C32.4089 20.7842 32.5547 20.1404 32.4818 19.4965L29.7004 7.11755Z" fill="#326DE6"/>
<path d="M27.9953 18.7096C27.9589 18.7096 27.9224 18.7096 27.9224 18.6719C27.9224 18.6342 27.8495 18.6342 27.7766 18.6342C27.6307 18.5965 27.4849 18.5965 27.3365 18.5965C27.2636 18.5965 27.1906 18.5965 27.1177 18.5588H27.0813C26.6776 18.5211 26.2401 18.4456 25.8365 18.3325C25.7271 18.2948 25.6178 18.1816 25.5813 18.0685L25.2896 17.9931C25.4355 16.894 25.3626 15.7598 25.1438 14.6608C24.8886 13.5617 24.4485 12.503 23.8626 11.5574L24.0813 11.3311V11.2934C24.0813 11.1803 24.1178 11.0294 24.1907 10.954C24.5188 10.6523 24.8495 10.4233 25.2141 10.197C25.287 10.1593 25.3599 10.1216 25.4329 10.0839C25.5787 10.0085 25.6881 9.93302 25.8365 9.8576C25.873 9.81988 25.9094 9.81988 25.9459 9.78217C25.9823 9.74445 25.9459 9.74445 25.9459 9.70674C26.274 9.44274 26.3495 8.98748 26.0917 8.64805C25.9823 8.49719 25.7636 8.38405 25.5787 8.38405C25.3964 8.38405 25.2115 8.45948 25.0657 8.57262L25.0292 8.61034C24.9928 8.64805 24.9563 8.68577 24.9199 8.68577C24.8105 8.79891 24.7011 8.91205 24.6282 9.02519C24.5917 9.10062 24.5188 9.13833 24.4824 9.17605C24.2272 9.47776 23.8964 9.78217 23.5683 10.0085C23.4954 10.0462 23.4225 10.0839 23.3496 10.0839C23.3131 10.0839 23.2402 10.0839 23.2037 10.0462H23.1673L22.8756 10.2347C22.584 9.93302 22.2532 9.62862 21.9616 9.3269C20.6074 8.22781 18.9252 7.54895 17.2039 7.35769L17.1674 7.05598V7.09369C17.058 7.01826 17.0216 6.90512 16.9851 6.79198C16.9851 6.37443 16.9851 5.95958 17.058 5.50431V5.4666C17.058 5.39117 17.0945 5.31574 17.0945 5.24032C17.131 5.08946 17.131 4.9386 17.1674 4.78505V4.55338C17.2039 4.17355 16.9122 3.7964 16.545 3.75869C16.3263 3.72098 16.1049 3.83412 15.9226 4.02269C15.7768 4.17355 15.7039 4.36212 15.7039 4.55338V4.74195C15.7039 4.89281 15.7404 5.04366 15.7768 5.19721C15.8133 5.27264 15.8133 5.34807 15.8133 5.4235V5.46121C15.8862 5.87876 15.8862 6.29362 15.8862 6.74888C15.8497 6.86202 15.8133 6.97516 15.7039 7.05059V7.12602L15.6674 7.42773C15.2638 7.46545 14.8628 7.54087 14.4227 7.6163C12.704 7.99614 11.1285 8.94168 9.92277 10.2671L9.70403 10.1162H9.66757C9.63111 10.1162 9.59466 10.1539 9.52174 10.1539C9.44883 10.1539 9.37591 10.1162 9.303 10.0785C8.97488 9.81449 8.64416 9.51009 8.38895 9.20837C8.3525 9.13295 8.27958 9.09523 8.24312 9.05752C8.13375 8.94438 8.06084 8.83123 7.95146 8.71809C7.91501 8.68038 7.87855 8.68038 7.84209 8.64266C7.80563 8.60495 7.80563 8.60495 7.80563 8.60495C7.6598 8.49181 7.47751 8.41638 7.29262 8.41638C7.07388 8.41638 6.88899 8.49181 6.77961 8.68038C6.56087 9.0198 6.63378 9.47507 6.92544 9.73907C6.9619 9.73907 6.9619 9.77678 6.9619 9.77678C6.9619 9.77678 7.03482 9.85221 7.07127 9.85221C7.18065 9.92764 7.32648 10.0031 7.47491 10.0785C7.54783 10.1162 7.62074 10.1539 7.69366 10.1916C8.06084 10.4179 8.42541 10.6469 8.71707 10.9486C8.78999 11.024 8.8629 11.1749 8.82644 11.288V11.2503L9.04519 11.4766C9.00873 11.552 8.97227 11.5897 8.93582 11.6652C7.80042 13.5212 7.32648 15.7167 7.65459 17.8745L7.36293 17.95C7.36293 17.9877 7.32648 17.9877 7.32648 17.9877C7.29002 18.1008 7.18065 18.1762 7.07127 18.2517C6.66764 18.3648 6.2666 18.4402 5.82651 18.478C5.75359 18.478 5.68068 18.478 5.60776 18.5157C5.46193 18.5157 5.3161 18.5534 5.16767 18.5534C5.13121 18.5534 5.09475 18.5911 5.02184 18.5911C4.98538 18.5911 4.98538 18.5911 4.94892 18.6288C4.54528 18.7042 4.29008 19.0841 4.363 19.4989C4.43591 19.8384 4.76663 20.0673 5.09475 20.0296C5.16767 20.0296 5.20413 20.0296 5.27704 19.9919C5.3135 19.9919 5.3135 19.9919 5.3135 19.9542C5.3135 19.9165 5.42287 19.9542 5.45933 19.9542C5.60516 19.9165 5.75099 19.841 5.86297 19.8033C5.93588 19.7656 6.0088 19.7279 6.08171 19.7279H6.11817C6.52181 19.5771 6.88638 19.4639 7.32648 19.3885H7.36293C7.47231 19.3885 7.58168 19.4262 7.65459 19.5016C7.69105 19.5016 7.69105 19.5393 7.69105 19.5393L8.01917 19.5016C8.56864 21.2419 9.59205 22.7962 11.0191 23.9303C11.3472 24.1943 11.6415 24.4233 12.0061 24.6119L11.8238 24.8759C11.8238 24.9136 11.8602 24.9136 11.8602 24.9136C11.9331 25.0267 11.9331 25.1776 11.8967 25.2934C11.7509 25.6733 11.5295 26.0504 11.3108 26.3925V26.4302C11.2743 26.5057 11.2379 26.5434 11.1649 26.6188C11.092 26.6942 11.0191 26.8451 10.9097 26.9986C10.8733 27.0364 10.8733 27.0741 10.8368 27.1118C10.8368 27.1118 10.8368 27.1495 10.8004 27.1495C10.6181 27.5293 10.7639 27.9819 11.092 28.1705C11.1649 28.2082 11.2743 28.2459 11.3472 28.2459C11.6389 28.2459 11.8967 28.0573 12.0425 27.7906C12.0425 27.7906 12.0425 27.7529 12.079 27.7529C12.079 27.7152 12.1154 27.6775 12.1519 27.6398C12.1884 27.4889 12.2613 27.3758 12.2977 27.2222L12.3706 26.9959C12.48 26.5784 12.6623 26.2013 12.8472 25.8214C12.9201 25.7083 13.0295 25.6329 13.1389 25.5951C13.1753 25.5951 13.1753 25.5951 13.1753 25.5574L13.3211 25.2557C14.3446 25.6733 15.407 25.8618 16.5034 25.8618C17.1622 25.8618 17.821 25.7864 18.4799 25.5978C18.8835 25.5224 19.2846 25.3715 19.6517 25.2584L19.7976 25.5224C19.834 25.5224 19.834 25.5224 19.834 25.5601C19.9434 25.5978 20.0528 25.6733 20.1257 25.7864C20.308 26.1662 20.4929 26.5434 20.6022 26.9609V26.9986L20.6752 27.2249C20.7116 27.3758 20.7481 27.5266 20.821 27.6425C20.8574 27.6802 20.8574 27.7179 20.8939 27.7556C20.8939 27.7556 20.8939 27.7933 20.9304 27.7933C21.0762 28.0573 21.334 28.2486 21.6257 28.2486C21.735 28.2486 21.8079 28.2109 21.9173 28.1732C22.0631 28.0977 22.209 27.9469 22.2454 27.7556C22.2819 27.567 22.2819 27.3758 22.209 27.1872C22.209 27.1495 22.1725 27.1495 22.1725 27.1495C22.1725 27.1118 22.1361 27.0741 22.0996 27.0364C22.0267 26.8855 21.9538 26.7724 21.8444 26.6565C21.8079 26.5811 21.7715 26.5434 21.6986 26.468V26.3925C21.4434 26.0531 21.2585 25.6733 21.1126 25.2934C21.0762 25.1803 21.0762 25.0294 21.1491 24.9136C21.1491 24.8759 21.1856 24.8759 21.1856 24.8759L21.0762 24.5742C22.9433 23.3996 24.3704 21.584 25.0292 19.4262L25.3209 19.4639C25.3573 19.4639 25.3573 19.4262 25.3573 19.4262C25.4303 19.3508 25.5396 19.3131 25.649 19.3131H25.6855C26.0891 19.3885 26.4901 19.5016 26.8573 19.6525H26.8938C26.9667 19.6902 27.0396 19.7279 27.1125 19.7279C27.2583 19.8033 27.3677 19.8788 27.5162 19.9165C27.5526 19.9165 27.5891 19.9542 27.662 19.9542C27.6984 19.9542 27.6984 19.9542 27.7349 19.9919C27.8078 20.0296 27.8443 20.0296 27.9172 20.0296C28.2453 20.0296 28.5396 19.8033 28.6489 19.4989C28.6177 19.0895 28.3234 18.7851 27.9953 18.7096ZM17.42 17.5351L16.4331 18.0281L15.4461 17.5351L15.1909 16.436L15.8862 15.5282H16.9851L17.6804 16.436L17.42 17.5351ZM23.3834 15.0756C23.5657 15.8703 23.6022 16.665 23.5293 17.4597L20.0528 16.4387C19.7247 16.3633 19.5398 16.0212 19.6127 15.6817C19.6491 15.5686 19.6856 15.4932 19.7585 15.4177L22.5032 12.8424C22.9069 13.5239 23.2011 14.2809 23.3834 15.0756ZM21.4069 11.4416L18.407 13.6371C18.1518 13.7879 17.7846 13.7502 17.6023 13.4862C17.5294 13.4108 17.4929 13.3354 17.4929 13.2222L17.2742 9.39964C18.8835 9.58821 20.3106 10.3075 21.4069 11.4416ZM14.7847 9.51009L15.5164 9.35923L15.3341 13.1441C15.3341 13.4835 15.0425 13.7502 14.7117 13.7502C14.6024 13.7502 14.5294 13.7125 14.4201 13.6748L11.3837 11.4416C12.3316 10.496 13.5034 9.81449 14.7847 9.51009ZM10.3212 12.8424L13.0295 15.3396C13.2847 15.5659 13.3211 15.9457 13.1024 16.2097C13.0295 16.3229 12.9566 16.3606 12.8107 16.3983L9.26133 17.457C9.14935 15.8703 9.51393 14.2432 10.3212 12.8424ZM9.69882 19.2403L13.3211 18.5965C13.6128 18.5965 13.9071 18.7851 13.9435 19.0895C13.98 19.2026 13.98 19.3535 13.9071 19.4693L12.5165 22.9525C11.2352 22.0796 10.2092 20.7543 9.69882 19.2403ZM18.0059 23.933C17.4929 24.0462 16.9825 24.1216 16.4331 24.1216C15.6648 24.1216 14.8602 23.9707 14.1284 23.7418L15.9226 20.3717C16.1049 20.1455 16.3992 20.07 16.6544 20.2209C16.7638 20.2963 16.8367 20.3717 16.9461 20.4849L18.7038 23.7795C18.4799 23.8199 18.2611 23.8576 18.0059 23.933ZM22.4694 20.6411C21.9199 21.549 21.1517 22.3436 20.2741 22.9121L18.8471 19.3535C18.7742 19.0517 18.92 18.7473 19.1752 18.6342C19.2846 18.5965 19.3939 18.5588 19.5033 18.5588L23.1621 19.2026C22.9824 19.7306 22.761 20.2236 22.4694 20.6411Z" fill="#EEEEEE"/>
</svg>
