<svg width="32" height="32" viewBox="0 0 32 32" fill="none" xmlns="http://www.w3.org/2000/svg">
<path fill-rule="evenodd" clip-rule="evenodd" d="M7.57032 18.2693C8.57149 17.6912 8.57316 15.8198 7.57403 14.0893C6.57491 12.3588 4.95334 11.4246 3.95217 12.0026C2.95099 12.5807 2.94933 14.4521 3.94845 16.1826C4.94757 17.9131 6.56915 18.8473 7.57032 18.2693ZM7.57631 21.9747C8.57544 23.7051 8.57377 25.5766 7.5726 26.1546C6.5714 26.7327 4.94985 25.7984 3.95072 24.0679C2.9516 22.3375 2.95326 20.466 3.95444 19.888C4.95562 19.3099 6.57719 20.2442 7.57631 21.9747ZM14.399 25.9192C15.3981 27.6497 15.3965 29.521 14.3953 30.0993C13.3941 30.6772 11.7726 29.7429 10.7734 28.0125C9.77433 26.282 9.77599 24.4106 10.7772 23.8325C11.7783 23.2545 13.3999 24.1887 14.399 25.9192ZM14.3968 18.0339C15.3959 19.7644 15.3943 21.6358 14.3931 22.2139C13.3919 22.7919 11.7704 21.8577 10.7712 20.1272C9.7721 18.3967 9.77376 16.5253 10.7749 15.9473C11.7761 15.3692 13.3977 16.3034 14.3968 18.0339Z" fill="#F26E7E"/>
<path fill-rule="evenodd" clip-rule="evenodd" d="M28.0452 16.187C29.0442 14.4565 29.0427 12.5851 28.0415 12.007C27.0403 11.429 25.4188 12.3632 24.4197 14.0937C23.4205 15.8242 23.4222 17.6956 24.4234 18.2736C25.4245 18.8517 27.0461 17.9175 28.0452 16.187ZM28.0454 19.8905C29.0465 20.4686 29.0483 22.34 28.0492 24.0705C27.05 25.801 25.4285 26.7352 24.4273 26.1571C23.4261 25.5791 23.4244 23.7077 24.4236 21.9772C25.4227 20.2467 27.0443 19.3124 28.0454 19.8905ZM21.2241 23.8286C22.2253 24.4066 22.2269 26.278 21.2278 28.0085C20.2287 29.7389 18.6071 30.6732 17.6059 30.0952C16.6048 29.5172 16.6031 27.6457 17.6022 25.9152C18.6013 24.1847 20.2229 23.2505 21.2241 23.8286ZM21.2202 15.945C22.2214 16.5231 22.2231 18.3945 21.2239 20.125C20.2248 21.8555 18.6033 22.7897 17.6021 22.2117C16.6009 21.6336 16.5992 19.7622 17.5984 18.0317C18.5975 16.3012 20.219 15.367 21.2202 15.945Z" fill="#8A3391"/>
<path fill-rule="evenodd" clip-rule="evenodd" d="M19.6142 5.29349C19.6142 6.44958 17.9943 7.38679 15.9961 7.38679C13.9978 7.38679 12.3779 6.44958 12.3779 5.29349C12.3779 4.13739 13.9978 3.2002 15.9961 3.2002C17.9943 3.2002 19.6142 4.13739 19.6142 5.29349ZM12.7929 9.22751C12.7929 10.3836 11.173 11.3208 9.17479 11.3208C7.17654 11.3208 5.55664 10.3836 5.55664 9.22751C5.55664 8.07142 7.17654 7.13421 9.17479 7.13421C11.173 7.13421 12.7929 8.07142 12.7929 9.22751ZM22.8263 11.3208C24.8245 11.3208 26.4444 10.3836 26.4444 9.22751C26.4444 8.07142 24.8245 7.13421 22.8263 7.13421C20.828 7.13421 19.2082 8.07142 19.2082 9.22751C19.2082 10.3836 20.828 11.3208 22.8263 11.3208ZM19.6142 13.1704C19.6142 14.3265 17.9943 15.2636 15.9961 15.2636C13.9978 15.2636 12.3779 14.3265 12.3779 13.1704C12.3779 12.0143 13.9978 11.0771 15.9961 11.0771C17.9943 11.0771 19.6142 12.0143 19.6142 13.1704Z" fill="#F7BF2A"/>
</svg>
