<svg width="16" height="16" viewBox="0 0 16 16" fill="none" xmlns="http://www.w3.org/2000/svg">
<path fill-rule="evenodd" clip-rule="evenodd" d="M8.00007 0.833008C8.2762 0.833008 8.50007 1.05687 8.50007 1.33301V2.79257L9.64647 1.64612C9.84173 1.45086 10.1583 1.45086 10.3536 1.64612C10.5489 1.84138 10.5489 2.15797 10.3536 2.35323L8.50007 4.20678V7.13367L11.0347 5.67026L11.7132 3.13826C11.7847 2.87153 12.0588 2.71323 12.3255 2.78471C12.5923 2.85617 12.7506 3.13035 12.6791 3.39708L12.2595 4.96315L13.5235 4.23337C13.7627 4.0953 14.0684 4.17724 14.2065 4.41639C14.3446 4.65553 14.2627 4.96133 14.0235 5.0994L12.7595 5.82918L14.3255 6.24881C14.5923 6.32028 14.7506 6.59445 14.6791 6.86121C14.6076 7.12794 14.3335 7.28621 14.0667 7.21474L11.5347 6.53629L9.00007 7.99967L11.5349 9.46314L14.0669 8.78467C14.3336 8.71321 14.6077 8.87154 14.6793 9.13827C14.7507 9.40501 14.5924 9.67914 14.3257 9.75061L12.7596 10.1703L14.0236 10.9C14.2628 11.0381 14.3447 11.3439 14.2067 11.5831C14.0685 11.8222 13.7628 11.9041 13.5236 11.7661L12.2596 11.0363L12.6793 12.6023C12.7507 12.8691 12.5924 13.1433 12.3257 13.2147C12.0589 13.2862 11.7848 13.1279 11.7133 12.8612L11.0349 10.3292L8.50007 8.86567V11.7925L10.3536 13.6461C10.5489 13.8414 10.5489 14.1579 10.3536 14.3532C10.1583 14.5485 9.84173 14.5485 9.64647 14.3532L8.50007 13.2068V14.6663C8.50007 14.9425 8.2762 15.1663 8.00007 15.1663C7.72393 15.1663 7.50007 14.9425 7.50007 14.6663V13.2068L6.35361 14.3532C6.15835 14.5485 5.84176 14.5485 5.6465 14.3532C5.45124 14.1579 5.45124 13.8414 5.6465 13.6461L7.50007 11.7925V8.86567L4.96525 10.3292L4.2868 12.8612C4.21533 13.1279 3.94116 13.2862 3.67443 13.2147C3.40769 13.1433 3.2494 12.8691 3.32087 12.6023L3.7405 11.0363L2.47649 11.7661C2.23734 11.9041 1.93154 11.8222 1.79347 11.5831C1.6554 11.3439 1.73734 11.0381 1.97649 10.9L3.2405 10.1703L1.67443 9.75061C1.40769 9.67914 1.2494 9.40501 1.32087 9.13827C1.39234 8.87154 1.66651 8.71321 1.93325 8.78467L4.46525 9.46314L7.00007 7.99967L4.46537 6.53629L1.93337 7.21474C1.66664 7.28621 1.39247 7.12794 1.321 6.86121C1.24953 6.59445 1.40782 6.32028 1.67455 6.24881L3.24063 5.82918L1.97661 5.0994C1.73747 4.96133 1.65553 4.65553 1.7936 4.41639C1.93167 4.17724 2.23747 4.0953 2.47661 4.23337L3.74063 4.96315L3.321 3.39708C3.24953 3.13035 3.40782 2.85617 3.67455 2.78471C3.94129 2.71323 4.21546 2.87153 4.28693 3.13826L4.96537 5.67026L7.50007 7.13367V4.20678L5.6465 2.35323C5.45124 2.15797 5.45124 1.84138 5.6465 1.64612C5.84176 1.45086 6.15835 1.45086 6.35361 1.64612L7.50007 2.79257V1.33301C7.50007 1.05687 7.72393 0.833008 8.00007 0.833008Z" fill="#4064DD"/>
</svg>
