<svg width="112" height="90" fill="none" xmlns="http://www.w3.org/2000/svg">
    <path d="M2 14.866v60.268c0 3.197 1.264 6.263 3.515 8.523A11.973 11.973 0 0 0 14 87.187h84a11.97 11.97 0 0 0 8.485-3.53A12.079 12.079 0 0 0 110 75.134V26.92c0-3.197-1.264-6.263-3.515-8.524A11.97 11.97 0 0 0 98 14.867H62L50 2.813H14c-3.183 0-6.235 1.27-8.485 3.53A12.081 12.081 0 0 0 2 14.866Z" stroke="#434D5B" stroke-width="4" stroke-linecap="round" stroke-linejoin="round"/>
    <path d="M49.764 40.006h-2.233c-.412 0-.682.316-.682.712v16.56c0 .396.27.714.682.714h2.233a.714.714 0 0 0 .729-.714v-16.56a.713.713 0 0 0-.729-.712ZM42.79 53.083a.72.72 0 0 0-1.14-.233 5.272 5.272 0 0 1-3.61 1.423c-3.66 0-6.453-3.696-4.818-7.544a4.777 4.777 0 0 1 2.543-2.528c2.233-.938 4.406-.404 5.847.914.361.33.94.213 1.142-.23l.968-2.113a.788.788 0 0 0-.25-.959c-2.267-1.705-5.36-2.374-8.584-1.28a8.616 8.616 0 0 0-5.428 5.55C27.495 52.293 32.098 58 38.04 58a8.996 8.996 0 0 0 5.49-1.862.778.778 0 0 0 .228-.941l-.968-2.114ZM82.54 46.084a8.615 8.615 0 0 0-5.428-5.551c-1.831-.621-3.62-.673-5.24-.29-2.701.6-4.658 1.875-6.377 5.55l-3.45 7.452-5.858-12.817a.721.721 0 0 0-.654-.42l-2.56-.004a.718.718 0 0 0-.656 1.015l7.596 16.534a.729.729 0 0 0 .655.429l.125.01h2.872a.534.534 0 0 0 .17-.03.752.752 0 0 0 .451-.402s3.803-8.617 3.847-8.721c1.158-2.717 1.86-3.848 3.697-4.625a5.709 5.709 0 0 1 4.621.057 4.773 4.773 0 0 1 2.439 2.527c.293.7.44 1.418.465 2.127.04 2.946-2.345 5.348-5.296 5.348a5.273 5.273 0 0 1-3.608-1.422.72.72 0 0 0-1.141.232l-.968 2.114a.778.778 0 0 0 .227.942A8.996 8.996 0 0 0 73.959 58c5.943 0 10.546-5.708 8.58-11.916Z" fill="#434D5B"/>
</svg>
