<svg width="16" height="16" viewBox="0 0 16 16" fill="none" xmlns="http://www.w3.org/2000/svg">
<path d="M11 1H5C2.79086 1 1 2.79086 1 5V11C1 13.2091 2.79086 15 5 15H11C13.2091 15 15 13.2091 15 11V5C15 2.79086 13.2091 1 11 1Z" fill="url(#paint0_linear_2583_32538)"/>
<path d="M7.78301 8.5881C7.78301 8.7078 7.88048 8.8051 8.00001 8.8051C8.11971 8.8051 8.21701 8.7078 8.21701 8.5881C8.21701 8.4684 8.11971 8.3711 8.00001 8.3711C7.88048 8.3711 7.78301 8.4684 7.78301 8.5881ZM7.43301 8.5881C7.43301 8.27537 7.68728 8.0211 8.00001 8.0211C8.31273 8.0211 8.56701 8.27537 8.56701 8.5881C8.56701 8.77206 8.47848 8.93445 8.34206 9.03738C8.25191 9.1054 8.17501 9.20103 8.17501 9.31397V9.4001C8.17501 9.49675 8.09666 9.5751 8.00001 9.5751C7.90336 9.5751 7.82501 9.49675 7.82501 9.4001V9.31397C7.82501 9.20103 7.7481 9.1054 7.65795 9.03738C7.52154 8.93445 7.43301 8.77206 7.43301 8.5881ZM9.57501 7.9126C9.57501 7.76762 9.45748 7.6501 9.31251 7.6501H7.56251C6.93428 7.6501 6.42501 8.15937 6.42501 8.7876C6.42501 9.41582 6.93428 9.9251 7.56251 9.9251H9.31251C9.45748 9.9251 9.57501 9.80757 9.57501 9.6626C9.57501 9.51762 9.45748 9.4001 9.31251 9.4001H9.22501C9.12836 9.4001 9.05001 9.32175 9.05001 9.2251C9.05001 9.12845 9.12836 9.0501 9.22501 9.0501H9.31251C9.45748 9.0501 9.57501 8.93257 9.57501 8.7876C9.57501 8.64262 9.45748 8.5251 9.31251 8.5251H9.22501C9.12836 8.5251 9.05001 8.44675 9.05001 8.3501C9.05001 8.25345 9.12836 8.1751 9.22501 8.1751H9.31251C9.45748 8.1751 9.57501 8.05757 9.57501 7.9126ZM6.95001 6.42527C6.95001 6.90843 7.34168 7.3001 7.82483 7.3001H8.17483C8.65811 7.3001 9.04991 6.90838 9.05001 6.4251C9.05018 5.9673 8.55003 5.55045 8.00071 5.5501H8.00018C7.73261 5.5501 7.46241 5.65055 7.25853 5.82572C7.06253 5.99407 6.95001 6.21265 6.95001 6.42527ZM9.40001 6.42527L9.3999 6.94992C9.39986 7.14331 9.55662 7.3001 9.75001 7.3001C9.84678 7.3001 9.92501 7.3785 9.92501 7.4751V10.1001C9.92501 10.1967 9.84678 10.2751 9.75001 10.2751H6.25001C6.15323 10.2751 6.07501 10.1967 6.07501 10.1001V7.4751C6.07501 7.3785 6.15323 7.3001 6.25001 7.3001C6.44331 7.3001 6.60001 7.1434 6.60001 6.9501V6.4251C6.60018 6.11045 6.75698 5.79527 7.03033 5.56025C7.29686 5.33135 7.65018 5.2001 8.00018 5.2001H8.00071C8.74638 5.20045 9.40018 5.77287 9.40001 6.42527ZM4.26145 10.49C4.315 10.5704 4.42471 10.5878 4.50302 10.5312C4.58137 10.4745 4.5986 10.3652 4.54529 10.2846C4.17217 9.7201 3.94851 9.07977 3.88485 8.40692C3.8729 8.28067 3.97486 8.1751 4.10168 8.1751H4.15001C4.24666 8.1751 4.32501 8.09675 4.32501 8.0001C4.32501 7.90345 4.24666 7.8251 4.15001 7.8251H4.1023C3.97556 7.8251 3.87378 7.71936 3.88614 7.59322C3.95155 6.92523 4.17467 6.28945 4.5453 5.72872C4.59861 5.64806 4.58141 5.5388 4.50308 5.48212C4.42474 5.42543 4.31497 5.44281 4.26139 5.52331C3.84297 6.15194 3.59591 6.86785 3.53253 7.61972C3.52288 7.73425 3.429 7.8251 3.31407 7.8251H3.27501C3.17836 7.8251 3.10001 7.90345 3.10001 8.0001C3.10001 8.09675 3.17836 8.1751 3.27501 8.1751H3.31349C3.42836 8.1751 3.52209 8.26608 3.5314 8.38057C3.59294 9.1373 3.84051 9.85772 4.26145 10.49ZM10.5242 11.5033C10.4676 11.425 10.3584 11.4078 10.2777 11.4611C9.71612 11.8324 9.07934 12.0556 8.41013 12.1206C8.28217 12.1331 8.17501 12.0298 8.17501 11.9012V11.8501C8.17501 11.7534 8.09666 11.6751 8.00001 11.6751C7.90336 11.6751 7.82501 11.7534 7.82501 11.8501V11.9012C7.82501 12.0298 7.71786 12.1331 7.58991 12.1207C6.92063 12.0558 6.28367 11.8326 5.72176 11.4611C5.64114 11.4078 5.53192 11.425 5.4753 11.5033C5.41874 11.5816 5.4361 11.6912 5.51646 11.7447C6.1477 12.1652 6.86718 12.4126 7.62273 12.4748C7.73549 12.484 7.82501 12.5764 7.82501 12.6896V12.7251C7.82501 12.8217 7.90336 12.9001 8.00001 12.9001C8.09666 12.9001 8.17501 12.8217 8.17501 12.7251V12.6896C8.17501 12.5764 8.26452 12.484 8.37729 12.4747C9.13275 12.4126 9.85193 12.1653 10.4831 11.7448C10.5635 11.6912 10.5809 11.5816 10.5242 11.5033ZM5.47531 4.50982C5.53193 4.58814 5.64114 4.60537 5.72176 4.55209C6.28554 4.1795 6.92487 3.95608 7.59658 3.89199C7.72092 3.88012 7.82501 3.98047 7.82501 4.10538V4.1501C7.82501 4.24675 7.90336 4.3251 8.00001 4.3251C8.09666 4.3251 8.17501 4.24675 8.17501 4.1501V4.10538C8.17501 3.98047 8.27909 3.88012 8.40343 3.89199C9.0751 3.95608 9.71426 4.17949 10.2778 4.55206C10.3584 4.60536 10.4676 4.58817 10.5242 4.50987C10.5809 4.43159 10.5635 4.32192 10.4831 4.26837C9.8537 3.84922 9.13681 3.60212 8.3837 3.5391C8.26737 3.52937 8.17501 3.43406 8.17501 3.31732V3.2751C8.17501 3.17845 8.09666 3.1001 8.00001 3.1001C7.90336 3.1001 7.82501 3.17845 7.82501 3.2751V3.3173C7.82501 3.43405 7.73263 3.52935 7.61629 3.53907C6.86309 3.60196 6.14591 3.84909 5.51647 4.26841C5.4361 4.32195 5.41874 4.43156 5.47531 4.50982ZM12.6858 7.8251C12.5707 7.8251 12.4768 7.73417 12.4671 7.61955C12.4037 6.86772 12.1566 6.15186 11.7381 5.52327C11.6845 5.44279 11.5748 5.42542 11.4964 5.4821C11.4181 5.53879 11.4009 5.64807 11.4542 5.72872C11.825 6.2895 12.0481 6.92535 12.1135 7.5934C12.1259 7.71944 12.0242 7.8251 11.8975 7.8251H11.85C11.7534 7.8251 11.675 7.90345 11.675 8.0001C11.675 8.09675 11.7534 8.1751 11.85 8.1751H11.8981C12.0249 8.1751 12.1267 8.28061 12.1148 8.40677C12.051 9.07967 11.8275 9.72005 11.4542 10.2846C11.4009 10.3652 11.4181 10.4745 11.4965 10.5312C11.5748 10.5878 11.6845 10.5704 11.738 10.49C12.1591 9.85779 12.4065 9.13741 12.4682 8.38072C12.4776 8.26614 12.5714 8.1751 12.6863 8.1751H12.725C12.8217 8.1751 12.9 8.09675 12.9 8.0001C12.9 7.90345 12.8217 7.8251 12.725 7.8251H12.6858ZM10.7438 5.26257C10.8122 5.3309 10.9229 5.3309 10.9913 5.26257L12.1158 4.13802C12.1842 4.06969 12.1842 3.9589 12.1158 3.89057C12.0475 3.82224 11.9367 3.82224 11.8684 3.89057L10.7438 5.01512C10.6755 5.08345 10.6755 5.19424 10.7438 5.26257ZM5.25583 10.7506C5.1875 10.6822 5.07671 10.6822 5.00838 10.7506L3.88383 11.8751C3.8155 11.9435 3.8155 12.0542 3.88383 12.1226C3.95216 12.1909 4.06295 12.1909 4.13128 12.1226L5.25583 10.998C5.32416 10.9297 5.32416 10.8189 5.25583 10.7506ZM5.89283 5.8931C5.96116 5.82477 5.96116 5.71398 5.89282 5.64565L3.54311 3.29609C3.47477 3.22776 3.36399 3.22776 3.29566 3.29609C3.22733 3.36443 3.22733 3.47522 3.29566 3.54355L5.64538 5.89311C5.71371 5.96143 5.8245 5.96143 5.89283 5.8931ZM10.3601 10.3603C10.4284 10.292 10.5392 10.292 10.6075 10.3603L12.7038 12.4566C12.7722 12.525 12.7722 12.6358 12.7038 12.7041C12.6355 12.7724 12.5247 12.7724 12.4564 12.7041L10.3601 10.6078C10.2917 10.5394 10.2917 10.4287 10.3601 10.3603Z" fill="white"/>
<defs>
<linearGradient id="paint0_linear_2583_32538" x1="1" y1="1401" x2="1401" y2="1" gradientUnits="userSpaceOnUse">
<stop stop-color="#BD0816"/>
<stop offset="1" stop-color="#FF5252"/>
</linearGradient>
</defs>
</svg>
