<svg xmlns="http://www.w3.org/2000/svg" xmlns:xlink="http://www.w3.org/1999/xlink" viewBox="0 0 67 81" fill="#fff" fill-rule="evenodd" stroke="#000" stroke-linecap="round" stroke-linejoin="round"><use xlink:href="#A" x=".5" y=".5"/><symbol id="A" overflow="visible"><g stroke="none"><path d="M32.758 0L0 13.646V36.11C0 56.299 13.965 75.212 32.758 80c18.793-4.589 32.758-23.501 32.758-43.691V13.646zm0 15.122c5.006.001 9.315 3.539 10.29 8.449s-1.653 9.826-6.279 11.741-9.96.296-12.74-3.867-2.233-9.711 1.307-13.25c1.968-1.968 4.638-3.073 7.421-3.072zm16.399 44.489c-4.181 5.442-9.891 9.513-16.399 11.691-6.508-2.178-12.218-6.248-16.399-11.691v-8.978c0-6.663 10.933-10.055 16.399-10.055s16.399 3.392 16.399 10.055v8.978z" fill="#669df6"/><path d="M32.758 0v15.122c5.796 0 10.494 4.698 10.494 10.494S38.554 36.11 32.758 36.11v4.469c5.466 0 16.399 3.392 16.399 10.055v8.978c-4.181 5.442-9.891 9.513-16.399 11.691V79.8c18.793-4.589 32.758-23.501 32.758-43.691V13.646z" fill="#4285f4"/></g></symbol></svg>