<?xml version="1.0" encoding="UTF-8" standalone="no"?>
<!-- Created with Inkscape (http://www.inkscape.org/) -->

<svg
   version="1.1"
   id="svg1"
   width="420"
   height="73.333336"
   viewBox="0 0 420 73.333336"
   sodipodi:docname="logo-text.svg"
   inkscape:version="1.3.2 (091e20e, 2023-11-25)"
   xmlns:inkscape="http://www.inkscape.org/namespaces/inkscape"
   xmlns:sodipodi="http://sodipodi.sourceforge.net/DTD/sodipodi-0.dtd"
   xmlns="http://www.w3.org/2000/svg"
   xmlns:svg="http://www.w3.org/2000/svg">
  <defs
     id="defs1" />
  <sodipodi:namedview
     id="namedview1"
     pagecolor="#ffffff"
     bordercolor="#000000"
     borderopacity="0.25"
     inkscape:showpageshadow="2"
     inkscape:pageopacity="0.0"
     inkscape:pagecheckerboard="0"
     inkscape:deskcolor="#d1d1d1"
     inkscape:zoom="2.1904762"
     inkscape:cx="210.22826"
     inkscape:cy="36.521739"
     inkscape:window-width="1408"
     inkscape:window-height="449"
     inkscape:window-x="0"
     inkscape:window-y="38"
     inkscape:window-maximized="0"
     inkscape:current-layer="g1">
    <inkscape:page
       x="0"
       y="0"
       inkscape:label="1"
       id="page1"
       width="420"
       height="73.333336"
       margin="0"
       bleed="0" />
  </sodipodi:namedview>
  <g
     id="g1"
     inkscape:groupmode="layer"
     inkscape:label="1">
    <path
       id="path1"
       d="m 39.8789,312.852 c 9.1406,0 16.6016,7.457 16.6016,16.597 v 55.981 c 0,22.422 1.3711,28.871 29.8906,29.179 188.6289,0 189.2889,0 189.9999,0 59.02,0.352 67.848,23.442 67.848,65.821 0,11.871 0,12.582 0,13.59 C 342.5,530.309 330.98,550 276.371,550 h -1.019 C 82.9688,550 89.7305,550 81.9492,550 33.75,547.621 23.9102,525.898 23.2383,488.238 v -9.488 c 0,-20.699 2.3828,-36.641 11.8828,-47.5 -9.8516,-11.211 -11.8828,-27.5 -11.8828,-48.871 v -52.93 c 0,-9.14 7.4609,-16.597 16.6406,-16.597 z m 16.6016,173.007 c 0,23.75 1.3711,30.551 31.9179,30.903 H 276.02 c 0.351,0 0.66,0 0.66,0 33.281,0 34.3,-6.453 34.3,-31.563 0,-3.398 0,-4.07 0,-4.769 0,-26.09 -0.359,-32.539 -33.949,-32.539 -185.9412,0 -186.6013,0 -187.3005,0 -32.5391,0.308 -33.25,6.757 -33.25,32.23 z"
       style="fill:#7a4183;fill-opacity:1;fill-rule:nonzero;stroke:none"
       transform="matrix(0.13333333,0,0,-0.13333333,0,73.333333)" />
    <path
       id="path2"
       d="m 501.129,312.852 c 9.18,0 16.641,7.457 16.641,16.597 v 55.321 c 0,23.082 1.332,29.531 29.5,29.839 h 22.421 L 792.27,312.852 c 8.121,-3.75 18.32,0.308 22.031,8.789 3.398,8.519 -0.672,18.007 -9.141,21.718 l -156.101,71.25 c 87.191,0 87.89,0 88.562,0 59.059,0.352 67.848,23.442 67.848,65.821 0,11.871 0,11.558 0,13.59 C 804.141,530.309 791.91,550 737.27,550 544.219,550 544.219,550 542.539,550 494.34,547.621 484.84,525.898 484.18,488.238 v -9.488 c 0.308,-20.699 2.699,-36.641 12.191,-47.5 -9.812,-11.211 -12.191,-27.5 -12.191,-48.871 v -52.93 c 0,-9.14 7.808,-16.597 16.949,-16.597 z m 16.641,173.007 c 0,23.75 1.332,30.551 31.531,30.903 187.969,0 188.32,0 188.668,0 33.242,0 33.91,-6.453 33.91,-31.563 0,-3.398 0,-4.07 0,-4.769 0,-26.09 0,-32.539 -33.559,-32.539 -179.84,0 -189.691,0 -187.3,0 -32.579,0.308 -33.25,6.757 -33.25,32.23 z"
       style="fill:#7a4183;fill-opacity:1;fill-rule:nonzero;stroke:none"
       transform="matrix(0.13333333,0,0,-0.13333333,0,73.333333)" />
    <path
       id="path3"
       d="m 1074.38,312.852 h 82.46 c 64.45,0 119.06,5.078 119.06,117.027 0,103.832 -46.8,118.441 -104.14,120.121 h -97.38 c -63.44,0 -118.759,-7.109 -118.759,-120.121 0,-112.969 55.319,-117.027 118.759,-117.027 z m 0,203.91 h 82.46 c 63.08,0 85.46,-11.883 85.82,-85.16 -0.36,-73.633 -22.74,-85.512 -85.82,-85.512 h -82.46 c -62.78,0 -85.161,11.879 -85.509,85.512 0.348,73.277 22.729,85.16 85.509,85.16 z"
       style="fill:#7a4183;fill-opacity:1;fill-rule:nonzero;stroke:none"
       transform="matrix(0.13333333,0,0,-0.13333333,0,73.333333)" />
    <path
       id="path4"
       d="m 1476.25,312.852 h 250.43 c 8.79,0.308 15.59,7.769 15.59,16.597 v 203.91 c 0,9.18 -4.07,16.641 -16.61,16.641 h -168.32 c -8.82,0 -16.6,-5.781 -16.6,-16.641 v -28.48 c 0,-9.18 7.46,-16.641 16.6,-16.641 9.18,0 17,7.461 17,16.641 v 11.883 h 134.68 V 346.09 h -228.67 c -30.55,0.32 -31.21,7.461 -31.21,32.23 v 29.18 c 0,9.488 -7.5,16.949 -16.64,16.949 -9.18,0 -16.64,-7.461 -16.64,-16.949 v -28.52 c 0,-41.05 7.81,-63.781 60.39,-66.128 z"
       style="fill:#7a4183;fill-opacity:1;fill-rule:nonzero;stroke:none"
       transform="matrix(0.13333333,0,0,-0.13333333,0,73.333333)" />
    <path
       id="path5"
       d="m 1951.09,312.852 h 240.9 c 9.18,0 16.64,7.457 16.64,16.597 0,9.18 -7.46,16.641 -16.64,16.641 -241.56,0 -242.22,0 -242.93,0 -33.24,0 -33.59,6.101 -33.59,31.879 v 7.461 c 0,22.422 1.37,28.871 29.88,29.179 h 171.33 c 9.18,0 16.64,7.461 16.64,16.641 0,9.141 -7.46,16.641 -16.64,16.641 -166.6,0 -167.27,0 -167.93,0 -32.58,0.308 -33.28,6.757 -33.28,32.23 v 7.109 c 0,23.75 1.37,29.532 33.59,29.532 l 242.93,-0.352 c 9.18,0 16.64,7.809 16.64,16.641 0,9.14 -7.46,16.949 -16.64,16.949 h -240.9 c -58,0 -68.51,-21.719 -68.86,-61.762 v -9.488 c 0,-20.699 2.38,-36.641 12.22,-47.5 -10.19,-11.211 -12.22,-27.5 -12.22,-48.871 v -4.059 c 0,-42.422 8.82,-65.468 68.86,-65.468 z"
       style="fill:#7a4183;fill-opacity:1;fill-rule:nonzero;stroke:none"
       transform="matrix(0.13333333,0,0,-0.13333333,0,73.333333)" />
    <path
       id="path6"
       d="m 2466.33,312.852 h 185.94 c 9.14,0 16.95,7.457 16.95,16.597 0,9.18 -7.81,16.641 -16.95,16.641 H 2467.7 c -62.47,0 -85.2,15.59 -85.86,87.539 0.66,71.57 23.39,83.133 85.86,83.133 h 184.57 c 9.14,0 16.95,7.457 16.95,16.597 0,9.18 -7.81,16.641 -16.95,16.641 h -202.58 c -68.52,-1.02 -101.1,-12.891 -101.1,-116.719 v -0.351 c 0,-111.602 38.01,-120.078 117.74,-120.078 z"
       style="fill:#7a4183;fill-opacity:1;fill-rule:nonzero;stroke:none"
       transform="matrix(0.13333333,0,0,-0.13333333,0,73.333333)" />
    <path
       id="path7"
       d="m 3126.76,480.43 v 52.929 c 0,11.211 -6.45,16.641 -16.64,16.641 h -284.3 c -7.81,0 -16.64,-7.109 -16.64,-16.641 V 480.43 c 0,-9.141 7.46,-16.602 16.64,-16.602 9.14,0 16.6,7.461 16.6,16.602 v 36.332 h 108.91 V 329.449 c 0,-9.14 7.46,-16.597 16.64,-16.597 9.18,0 16.64,7.457 16.64,16.597 v 187.313 h 108.55 V 480.43 c 0,-9.141 7.82,-16.602 16.96,-16.602 9.18,0 16.64,7.461 16.64,16.602 z"
       style="fill:#7a4183;fill-opacity:1;fill-rule:nonzero;stroke:none"
       transform="matrix(0.13333333,0,0,-0.13333333,0,73.333333)" />
    <path
       id="path8"
       d="m 16.6406,8.71094 c 9.1407,0 16.5977,7.46096 16.5977,16.59766 v 56.0195 c 0,22.3829 1.3711,28.8319 29.8828,29.1839 188.6409,0 189.3009,0 189.9999,0 59.027,0.308 67.859,23.398 67.859,65.816 0,11.871 0,12.543 0,13.551 -1.718,36.293 -13.25,55.98 -67.859,55.98 h -1.012 c -192.3785,0 -185.6285,0 -193.3981,0 C 10.5117,243.48 0.660156,221.801 0,184.102 v -9.493 C 0,153.91 2.37891,137.969 11.8789,127.109 2.03125,115.941 0,99.6484 0,78.2383 V 25.3086 C 0,16.1719 7.46094,8.71094 16.6406,8.71094 Z M 33.2383,181.762 c 0,23.75 1.3711,30.508 31.9219,30.859 H 252.77 c 0.351,0 0.671,0 0.671,0 33.278,0 34.289,-6.449 34.289,-31.57 0,-3.391 0,-4.063 0,-4.723 0,-26.129 -0.351,-32.578 -33.941,-32.578 -185.9374,0 -186.5976,0 -187.3085,0 -32.5313,0.309 -33.2422,6.801 -33.2422,32.23 z"
       style="fill:#7a4183;fill-opacity:1;fill-rule:nonzero;stroke:none"
       transform="matrix(0.13333333,0,0,-0.13333333,0,73.333333)" />
    <path
       id="path9"
       d="M 476.879,8.71094 H 725.23 c 9.18,0 16.649,7.46096 16.649,16.59766 0,9.1797 -7.469,16.6406 -16.649,16.6406 H 494.531 V 229.262 c 0,9.136 -7.461,16.597 -16.64,16.597 -9.493,0 -16.95,-7.461 -16.95,-16.597 V 25.3086 c 0,-8.7891 7.11,-16.28907 15.938,-16.59766 z"
       style="fill:#7a4183;fill-opacity:1;fill-rule:nonzero;stroke:none"
       transform="matrix(0.13333333,0,0,-0.13333333,0,73.333333)" />
    <path
       id="path10"
       d="m 898.441,8.71094 c 9.18,0 16.637,7.46096 16.637,16.59766 V 106.41 h 205.272 c 9.14,0 16.6,7.461 16.6,16.641 0,9.14 -7.46,16.64 -16.6,16.64 H 915.078 c 0,52.219 31.211,72.93 132.302,72.93 101.14,0 128.28,-20.711 128.28,-72.93 V 25.3086 c 0,-9.1367 7.78,-16.59766 16.61,-16.59766 9.53,0 16.99,7.46096 16.99,16.59766 V 139.691 c 0,70.539 -50.59,104.84 -158.13,106.168 -1.36,0 -2.73,0 -3.75,0 -1.33,0 -2.34,0 -3.71,0 C 935.781,244.531 881.84,210.23 881.84,139.691 V 25.3086 c 0,-9.1367 7.461,-16.59766 16.601,-16.59766 z"
       style="fill:#7a4183;fill-opacity:1;fill-rule:nonzero;stroke:none"
       transform="matrix(0.13333333,0,0,-0.13333333,0,73.333333)" />
    <path
       id="path11"
       d="m 1349.22,25.3086 c 0,-9.1367 7.46,-16.59766 16.6,-16.59766 9.18,0 16.64,7.46096 16.64,16.59766 V 200.078 c 311.13,-187.9686 311.8,-188.6678 312.81,-188.9882 2.39,-1.35933 5.43,-2.37886 8.83,-2.37886 9.18,0 16.64,7.46096 16.64,16.59766 V 229.262 c 0,9.136 -7.46,16.597 -16.64,16.597 -9.18,0 -16.95,-7.461 -16.95,-16.597 V 54.1797 L 1377.03,241.801 c -4.06,2.379 -7.15,4.058 -11.21,4.058 -11.17,0 -16.6,-10.859 -16.6,-20.347 z"
       style="fill:#7a4183;fill-opacity:1;fill-rule:nonzero;stroke:none"
       transform="matrix(0.13333333,0,0,-0.13333333,0,73.333333)" />
    <path
       id="path12"
       d="m 2178.28,176.328 v 52.934 c 0,11.168 -6.44,16.597 -16.64,16.597 H 1877.3 c -7.81,0 -16.6,-7.109 -16.6,-16.597 v -52.934 c 0,-9.18 7.46,-16.637 16.6,-16.637 9.18,0 16.65,7.457 16.65,16.637 v 36.293 h 108.9 V 25.3086 c 0,-9.1367 7.46,-16.59766 16.64,-16.59766 9.14,0 16.6,7.46096 16.6,16.59766 V 212.621 h 108.6 v -36.293 c 0,-9.18 7.77,-16.637 16.95,-16.637 9.14,0 16.64,7.457 16.64,16.637 z"
       style="fill:#7a4183;fill-opacity:1;fill-rule:nonzero;stroke:none"
       transform="matrix(0.13333333,0,0,-0.13333333,0,73.333333)" />
    <path
       id="path13"
       d="m 2436.99,8.71094 h 82.42 c 64.5,0 119.11,5.07816 119.11,117.02706 0,103.832 -46.84,118.442 -104.18,120.121 h -97.35 c -63.47,0 -118.79,-7.109 -118.79,-120.121 0,-112.9685 55.32,-117.02706 118.79,-117.02706 z m 0,203.91006 h 82.42 c 63.13,0 85.51,-11.883 85.86,-85.16 -0.35,-73.6329 -22.73,-85.5118 -85.86,-85.5118 h -82.42 c -62.77,0 -85.19,11.8789 -85.51,85.5118 0.32,73.277 22.74,85.16 85.51,85.16 z"
       style="fill:#7a4183;fill-opacity:1;fill-rule:nonzero;stroke:none"
       transform="matrix(0.13333333,0,0,-0.13333333,0,73.333333)" />
    <path
       id="path14"
       d="m 2778.48,25.3086 c 0,-9.1367 7.46,-16.59766 16.64,-16.59766 9.14,0 16.6,7.46096 16.6,16.59766 V 200.078 c 311.13,-187.9686 311.8,-188.6678 312.85,-188.9882 2.34,-1.35933 5.43,-2.37886 8.79,-2.37886 9.18,0 16.64,7.46096 16.64,16.59766 V 229.262 c 0,9.136 -7.46,16.597 -16.64,16.597 -9.14,0 -16.95,-7.461 -16.95,-16.597 V 54.1797 L 2806.29,241.801 c -4.06,2.379 -7.11,4.058 -11.17,4.058 -11.21,0 -16.64,-10.859 -16.64,-20.347 z"
       style="fill:#7a4183;fill-opacity:1;fill-rule:nonzero;stroke:none"
       transform="matrix(0.13333333,0,0,-0.13333333,0,73.333333)" />
  </g>
</svg>
