<?xml version="1.0" encoding="UTF-8" standalone="no"?>
<!-- Created with Inkscape (http://www.inkscape.org/) -->

<svg
   version="1.1"
   id="svg1"
   width="358.66666"
   height="240"
   viewBox="0 0 358.66666 240"
   sodipodi:docname="base_logo_transparent_background.svg"
   inkscape:version="1.3.2 (091e20e, 2023-11-25)"
   xmlns:inkscape="http://www.inkscape.org/namespaces/inkscape"
   xmlns:sodipodi="http://sodipodi.sourceforge.net/DTD/sodipodi-0.dtd"
   xmlns="http://www.w3.org/2000/svg"
   xmlns:svg="http://www.w3.org/2000/svg">
  <defs
     id="defs1" />
  <sodipodi:namedview
     id="namedview1"
     pagecolor="#ffffff"
     bordercolor="#000000"
     borderopacity="0.25"
     inkscape:showpageshadow="2"
     inkscape:pageopacity="0.0"
     inkscape:pagecheckerboard="0"
     inkscape:deskcolor="#d1d1d1"
     inkscape:zoom="0.98333333"
     inkscape:cx="179.49153"
     inkscape:cy="120"
     inkscape:window-width="1728"
     inkscape:window-height="1051"
     inkscape:window-x="0"
     inkscape:window-y="38"
     inkscape:window-maximized="0"
     inkscape:current-layer="g1">
    <inkscape:page
       x="0"
       y="0"
       inkscape:label="1"
       id="page1"
       width="358.66666"
       height="240"
       margin="0"
       bleed="0" />
  </sodipodi:namedview>
  <g
     id="g1"
     inkscape:groupmode="layer"
     inkscape:label="1">
    <path
       id="path1"
       d="m 34.0195,259.41 c 7.8203,0 14.1797,6.371 14.1797,14.18 v 47.781 c 0,19.098 1.1406,24.57 25.4727,24.879 160.8981,0 161.4881,0 162.0661,0 50.352,0.27 57.852,19.961 57.852,56.129 0,10.121 0,10.711 0,11.601 -1.442,30.942 -11.289,47.739 -57.852,47.739 h -0.898 c -164.1017,0 -158.2814,0 -164.9611,0 -41.0898,-2.028 -49.4883,-20.547 -50.0391,-52.66 v -8.118 c 0,-17.66 2,-31.25 10.1211,-40.511 -8.4023,-9.571 -10.1211,-23.442 -10.1211,-41.68 v -45.16 c 0,-7.809 6.3711,-14.18 14.1797,-14.18 z m 14.1797,147.621 c 0,20.239 1.1406,26.02 27.1914,26.328 H 235.43 c 0.308,0 0.59,0 0.59,0 28.359,0 29.21,-5.507 29.21,-26.91 0,-2.898 0,-3.48 0,-4.07 0,-22.258 -0.269,-27.77 -28.941,-27.77 -158.5898,0 -159.1796,0 -159.7304,0 -27.8086,0.27 -28.3594,5.782 -28.3594,27.5 z"
       style="fill:#7a4183;fill-opacity:1;fill-rule:nonzero;stroke:none"
       transform="matrix(0.13333333,0,0,-0.13333333,0,240)" />
    <path
       id="path2"
       d="m 427.461,259.41 c 7.809,0 14.18,6.371 14.18,14.18 v 47.191 c 0,19.688 1.168,25.16 25.199,25.469 h 19.101 l 189.84,-86.84 c 6.949,-3.16 15.629,0.32 18.789,7.539 2.93,7.231 -0.55,15.321 -7.808,18.52 L 553.629,346.25 c 74.383,0 74.961,0 75.551,0 50.351,0.27 57.89,19.961 57.89,56.129 0,10.121 0,9.851 0,11.601 -1.172,30.942 -11.601,47.739 -58.16,47.739 -164.691,0 -164.691,0 -166.14,0 -41.09,-2.028 -49.219,-20.547 -49.758,-52.66 v -8.118 c 0.269,-17.66 2.297,-31.25 10.386,-40.511 -8.398,-9.571 -10.386,-23.442 -10.386,-41.68 v -45.16 c 0,-7.809 6.636,-14.18 14.449,-14.18 z m 14.18,147.621 c 0,20.239 1.168,26.02 26.91,26.328 160.359,0 160.629,0 160.898,0 28.403,0 28.949,-5.507 28.949,-26.91 0,-2.898 0,-3.48 0,-4.07 0,-22.258 0,-27.77 -28.628,-27.77 -153.399,0 -161.801,0 -159.77,0 -27.77,0.27 -28.359,5.782 -28.359,27.5 z"
       style="fill:#7a4183;fill-opacity:1;fill-rule:nonzero;stroke:none"
       transform="matrix(0.13333333,0,0,-0.13333333,0,240)" />
    <path
       id="path3"
       d="m 916.41,259.41 h 70.352 c 54.998,0 101.558,4.34 101.558,99.852 0,88.547 -39.92,101.008 -88.832,102.457 H 916.41 c -54.109,0 -101.289,-6.098 -101.289,-102.457 0,-96.371 47.18,-99.852 101.289,-99.852 z m 0,173.949 h 70.352 c 53.828,0 72.928,-10.121 73.198,-72.66 -0.27,-62.769 -19.37,-72.929 -73.198,-72.929 H 916.41 c -53.519,0 -72.621,10.16 -72.93,72.929 0.309,62.539 19.411,72.66 72.93,72.66 z"
       style="fill:#7a4183;fill-opacity:1;fill-rule:nonzero;stroke:none"
       transform="matrix(0.13333333,0,0,-0.13333333,0,240)" />
    <path
       id="path4"
       d="m 1259.22,259.41 h 213.59 c 7.54,0.32 13.32,6.68 13.32,14.18 v 173.949 c 0,7.813 -3.47,14.18 -14.18,14.18 H 1328.4 c -7.54,0 -14.18,-4.918 -14.18,-14.18 v -24.301 c 0,-7.808 6.37,-14.179 14.18,-14.179 7.81,0 14.49,6.371 14.49,14.179 v 10.121 h 114.88 V 287.77 H 1262.7 c -26.06,0.32 -26.61,6.371 -26.61,27.5 v 24.89 c 0,8.121 -6.36,14.488 -14.18,14.488 -7.81,0 -14.18,-6.367 -14.18,-14.488 v -24.301 c 0,-35.039 6.65,-54.41 51.49,-56.449 z"
       style="fill:#7a4183;fill-opacity:1;fill-rule:nonzero;stroke:none"
       transform="matrix(0.13333333,0,0,-0.13333333,0,240)" />
    <path
       id="path5"
       d="m 1664.26,259.41 h 205.51 c 7.81,0 14.18,6.371 14.18,14.18 0,7.82 -6.37,14.18 -14.18,14.18 -206.1,0 -206.65,0 -207.23,0 -28.36,0 -28.67,5.242 -28.67,27.23 v 6.371 c 0,19.098 1.17,24.57 25.47,24.879 h 146.17 c 7.81,0 14.18,6.371 14.18,14.18 0,7.808 -6.37,14.179 -14.18,14.179 -142.11,0 -142.7,0 -143.28,0 -27.78,0.27 -28.36,5.782 -28.36,27.5 v 6.051 c 0,20.281 1.17,25.199 28.67,25.199 l 207.23,-0.308 c 7.81,0 14.18,6.679 14.18,14.219 0,7.808 -6.37,14.449 -14.18,14.449 h -205.51 c -49.49,0 -58.44,-18.52 -58.75,-52.66 v -8.118 c 0,-17.66 2.03,-31.25 10.43,-40.511 -8.67,-9.571 -10.43,-23.442 -10.43,-41.68 v -3.48 c 0,-36.168 7.54,-55.86 58.75,-55.86 z"
       style="fill:#7a4183;fill-opacity:1;fill-rule:nonzero;stroke:none"
       transform="matrix(0.13333333,0,0,-0.13333333,0,240)" />
    <path
       id="path6"
       d="m 2103.75,259.41 h 158.59 c 7.82,0 14.46,6.371 14.46,14.18 0,7.82 -6.64,14.18 -14.46,14.18 h -157.46 c -53.24,0 -72.61,13.32 -73.2,74.691 0.59,61.059 19.96,70.898 73.2,70.898 h 157.46 c 7.82,0 14.46,6.371 14.46,14.18 0,7.813 -6.64,14.18 -14.46,14.18 h -172.77 c -58.48,-0.86 -86.25,-11.02 -86.25,-99.571 v -0.269 c 0,-95.238 32.42,-102.469 100.43,-102.469 z"
       style="fill:#7a4183;fill-opacity:1;fill-rule:nonzero;stroke:none"
       transform="matrix(0.13333333,0,0,-0.13333333,0,240)" />
    <path
       id="path7"
       d="m 2667.07,402.379 v 45.16 c 0,9.531 -5.51,14.18 -14.18,14.18 h -242.54 c -6.64,0 -14.18,-6.098 -14.18,-14.18 v -45.16 c 0,-7.809 6.37,-14.18 14.18,-14.18 7.81,0 14.18,6.371 14.18,14.18 v 30.98 h 92.93 V 273.59 c 0,-7.809 6.37,-14.18 14.18,-14.18 7.81,0 14.18,6.371 14.18,14.18 v 159.769 h 92.62 v -30.98 c 0,-7.809 6.64,-14.18 14.45,-14.18 7.81,0 14.18,6.371 14.18,14.18 z"
       style="fill:#7a4183;fill-opacity:1;fill-rule:nonzero;stroke:none"
       transform="matrix(0.13333333,0,0,-0.13333333,0,240)" />
    <path
       id="path8"
       d="m 14.1797,0 c 7.8086,0 14.1797,6.37109 14.1797,14.1797 v 47.7695 c 0,19.1016 1.1719,24.5703 25.4687,24.8906 160.9019,0 161.4809,0 162.0699,0 50.352,0.2696 57.891,19.9612 57.891,56.1292 0,10.121 0,10.703 0,11.562 -1.449,30.981 -11.289,47.77 -57.891,47.77 h -0.859 c -164.0976,0 -158.3202,0 -164.9609,0 C 8.98047,200.27 0.589844,181.762 0,149.609 V 141.52 C 0,123.871 2.03125,110.27 10.1211,101.02 1.71875,91.4492 0,77.5781 0,59.3398 V 14.1797 C 0,6.37109 6.37109,0 14.1797,0 Z m 14.1797,147.621 c 0,20.231 1.1719,26.008 27.2304,26.328 H 215.621 c 0.277,0 0.551,0 0.551,0 28.398,0 29.258,-5.508 29.258,-26.918 0,-2.89 0,-3.48 0,-4.062 0,-22.27 -0.309,-27.77 -28.95,-27.77 -158.5894,0 -159.1792,0 -159.7612,0 -27.7696,0.27 -28.3594,5.781 -28.3594,27.5 z"
       style="fill:#7a4183;fill-opacity:1;fill-rule:nonzero;stroke:none"
       transform="matrix(0.13333333,0,0,-0.13333333,0,240)" />
    <path
       id="path9"
       d="m 406.762,0 h 211.867 c 7.82,0 14.18,6.37109 14.18,14.1797 0,7.8086 -6.36,14.1797 -14.18,14.1797 H 421.84 V 188.121 c 0,7.82 -6.371,14.18 -14.18,14.18 -8.129,0 -14.5,-6.36 -14.5,-14.18 V 14.1797 C 393.16,6.64063 399.262,0.269531 406.762,0 Z"
       style="fill:#7a4183;fill-opacity:1;fill-rule:nonzero;stroke:none"
       transform="matrix(0.13333333,0,0,-0.13333333,0,240)" />
    <path
       id="path10"
       d="m 766.371,0 c 7.809,0 14.18,6.37109 14.18,14.1797 v 69.1797 h 175.07 c 7.82,0 14.18,6.3711 14.18,14.1797 0,7.8129 -6.36,14.1799 -14.18,14.1799 h -175.07 c 0,44.57 26.64,62.23 112.847,62.23 86.25,0 109.412,-17.66 109.412,-62.23 V 14.1797 C 1002.81,6.37109 1009.45,0 1016.99,0 c 8.13,0 14.49,6.37109 14.49,14.1797 v 97.5393 c 0,60.191 -43.121,89.41 -134.878,90.582 -1.172,0 -2.301,0 -3.204,0 -1.128,0 -1.988,0 -3.168,0 C 798.199,201.129 752.191,171.91 752.191,111.719 V 14.1797 C 752.191,6.37109 758.551,0 766.371,0 Z"
       style="fill:#7a4183;fill-opacity:1;fill-rule:nonzero;stroke:none"
       transform="matrix(0.13333333,0,0,-0.13333333,0,240)" />
    <path
       id="path11"
       d="M 1150.86,14.1797 C 1150.86,6.37109 1157.23,0 1165.04,0 c 7.81,0 14.18,6.37109 14.18,14.1797 V 163.238 C 1444.61,2.89063 1445.2,2.30078 1446.05,2.03125 1448.09,0.859375 1450.66,0 1453.55,0 c 7.82,0 14.18,6.37109 14.18,14.1797 V 188.121 c 0,7.82 -6.32,14.18 -14.18,14.18 -7.81,0 -14.45,-6.36 -14.45,-14.18 V 38.7891 L 1174.57,198.828 c -3.48,2.031 -6.05,3.473 -9.53,3.473 -9.57,0 -14.18,-9.25 -14.18,-17.379 z"
       style="fill:#7a4183;fill-opacity:1;fill-rule:nonzero;stroke:none"
       transform="matrix(0.13333333,0,0,-0.13333333,0,240)" />
    <path
       id="path12"
       d="m 1858.01,142.969 v 45.152 c 0,9.539 -5.47,14.18 -14.18,14.18 h -242.5 c -6.68,0 -14.18,-6.09 -14.18,-14.18 v -45.152 c 0,-7.809 6.37,-14.18 14.18,-14.18 7.81,0 14.18,6.371 14.18,14.18 v 30.98 h 92.89 V 14.1797 C 1708.4,6.37109 1714.77,0 1722.58,0 c 7.81,0 14.18,6.37109 14.18,14.1797 V 173.949 h 92.62 v -30.98 c 0,-7.809 6.64,-14.18 14.45,-14.18 7.81,0 14.18,6.371 14.18,14.18 z"
       style="fill:#7a4183;fill-opacity:1;fill-rule:nonzero;stroke:none"
       transform="matrix(0.13333333,0,0,-0.13333333,0,240)" />
    <path
       id="path13"
       d="m 2078.71,0 h 70.31 c 55,0 101.6,4.33984 101.6,99.8398 0,88.5582 -39.96,101.0192 -88.86,102.4612 h -83.05 c -54.14,0 -101.29,-6.09 -101.29,-102.4612 C 1977.42,3.48047 2024.57,0 2078.71,0 Z m 0,173.949 h 70.31 c 53.83,0 72.93,-10.16 73.25,-72.66 -0.32,-62.8085 -19.42,-72.9296 -73.25,-72.9296 h -70.31 c -53.55,0 -72.66,10.1211 -72.93,72.9296 0.27,62.5 19.38,72.66 72.93,72.66 z"
       style="fill:#7a4183;fill-opacity:1;fill-rule:nonzero;stroke:none"
       transform="matrix(0.13333333,0,0,-0.13333333,0,240)" />
    <path
       id="path14"
       d="M 2370,14.1797 C 2370,6.37109 2376.37,0 2384.18,0 c 7.81,0 14.18,6.37109 14.18,14.1797 V 163.238 C 2663.75,2.89063 2664.34,2.30078 2665.2,2.03125 2667.23,0.859375 2669.84,0 2672.73,0 c 7.82,0 14.18,6.37109 14.18,14.1797 V 188.121 c 0,7.82 -6.36,14.18 -14.18,14.18 -7.81,0 -14.49,-6.36 -14.49,-14.18 V 38.7891 L 2393.71,198.828 c -3.44,2.031 -6.05,3.473 -9.53,3.473 -9.57,0 -14.18,-9.25 -14.18,-17.379 z"
       style="fill:#7a4183;fill-opacity:1;fill-rule:nonzero;stroke:none"
       transform="matrix(0.13333333,0,0,-0.13333333,0,240)" />
    <path
       id="path15"
       d="m 836.949,1221.64 c -28.078,28.05 -28.078,73.56 0,101.64 l 455.671,455.67 c 28.08,28.08 73.59,28.08 101.64,0 l 455.7,-455.67 c 28.05,-28.08 28.05,-73.59 0,-101.64 l -455.7,-455.699 c -28.05,-28.05 -73.56,-28.05 -101.64,0 z m 374.261,-66.95 c -40.35,-3.32 -68.28,-16.99 -84.06,-41.57 v 138.05 c 3.36,24.3 16.09,40.98 38.87,49.77 14.53,5.78 35.19,8.51 61.87,8.51 l 217.27,0.32 c 38.24,2.69 66.13,20.31 83.75,52.77 16.68,30.35 20.62,63.12 11.83,98.01 -9.1,36.09 -29.45,64.65 -61.01,85.86 46.75,-7.58 85.58,-29.42 116.83,-65.51 31.25,-36.72 47.03,-79.22 47.03,-127.78 0,-53.71 -19.1,-99.8 -57.03,-138.04 -37.93,-38.56 -83.44,-57.66 -137.15,-57.66 -136.87,0 -216.05,-0.9 -238.2,-2.73 z m 237.27,215.15 c 4.88,0 8.82,-1.83 12.14,-5.19 3.36,-3.32 5.16,-7.58 5.16,-12.11 0,-4.57 -1.52,-8.52 -4.53,-11.84 -3.67,-3.63 -8.52,-5.47 -14.88,-5.47 h -57.66 l -57.97,-0.31 v 34.92 z m -242.74,204.81 c -28.83,-0.94 -53.4,-12.15 -73.71,-33.4 -20.35,-20.94 -30.35,-46.09 -30.35,-74.92 v -0.31 c 0,-270.98 0.31,-407.19 0.9,-408.72 0.9,-28.82 11.83,-53.39 32.77,-73.749 20.94,-20.313 45.82,-30.352 74.65,-30.352 29.73,0 55.23,10.629 76.17,31.879 21.21,21.252 31.84,46.722 31.84,76.442 v 70.43 h 131.4 c 60.36,0 112.27,21.53 155.36,64.93 43.08,43.39 64.61,95.27 64.61,156.24 0,61.02 -21.53,113.21 -64.61,156.57 -43.09,43.4 -95,64.96 -155.36,64.96 z"
       style="fill:#7a4183;fill-opacity:1;fill-rule:nonzero;stroke:none"
       transform="matrix(0.13333333,0,0,-0.13333333,0,240)" />
  </g>
</svg>
