<svg width="16" height="16" viewBox="0 0 16 16" fill="none" xmlns="http://www.w3.org/2000/svg">
<path d="M7.30767 3H5.619C3.34415 3 3.50236 4.8347 3.50236 4.8347V11.9663C3.50106 11.9887 3.50019 12.0097 3.50019 12.0317C3.50019 12.0536 3.50019 12.0764 3.50236 12.097C3.51891 12.3476 3.62924 12.5818 3.81007 12.7502C3.9909 12.9185 4.22809 13.0079 4.47161 12.9994C4.71513 12.991 4.94594 12.8853 5.11534 12.7048C5.28475 12.5242 5.37951 12.2829 5.37962 12.0317C5.37962 11.9681 5.36226 6.1266 5.36226 5.96349C5.36226 5.92501 5.36335 5.88787 5.3653 5.85162C5.3653 3.31324 7.30767 3 7.30767 3Z" fill="#4259A1"/>
<path d="M9.38058 3H8.25812C8.25812 3 6.26921 3.30916 6.26921 5.81446C6.33432 4.70391 8.58568 4.8108 8.58568 4.8108H8.81346C9.23689 4.81086 9.6439 4.97359 9.94937 5.26496C10.2548 5.55634 10.4351 5.95379 10.4525 6.37421C10.4699 6.79462 10.3231 7.20543 10.0427 7.52074C9.76232 7.83605 9.37012 8.03143 8.94813 8.06603C8.90369 8.06956 8.85924 8.07199 8.81346 8.07199H8.23568C8.23568 8.07199 6.86388 7.98035 6.86388 9.04872C6.86388 10.1171 8.41946 9.99585 8.41946 9.99585H9.38014C9.4468 9.99585 9.51347 9.99298 9.57903 9.98879C11.2093 9.88676 12.4999 8.38866 12.4999 6.51471C12.4999 4.64076 11.1035 3 9.38058 3Z" fill="#1CAB98"/>
</svg>
