
<svg width="247" height="300" viewBox="0 0 247 300" fill="none" xmlns="http://www.w3.org/2000/svg">
<g clip-path="url(#clip0_16_19)">
<path d="M231 112.36C231.028 103.619 228.352 95.0834 223.339 87.9225C218.327 80.7616 211.222 75.3259 203 72.36C203.747 68.5487 204.122 64.6738 204.12 60.79C204.114 47.9339 200.034 35.4103 192.466 25.0179C184.898 14.6256 174.231 6.89921 161.997 2.94857C149.762 -1.00206 136.591 -0.97369 124.374 3.02961C112.157 7.03291 101.523 14.8051 93.9999 25.23C88.4516 20.919 81.6489 18.5348 74.6233 18.4388C67.5977 18.3428 60.7324 20.5404 55.0685 24.6982C49.4045 28.856 45.2507 34.7473 43.237 41.4788C41.2234 48.2103 41.4596 55.4149 43.9099 62C35.6667 64.9979 28.5399 70.4495 23.4891 77.6208C18.4383 84.7921 15.7059 93.3387 15.6599 102.11C15.6318 110.883 18.325 119.448 23.3684 126.627C28.4118 133.805 35.5571 139.242 43.8199 142.19C43.0859 146.003 42.7143 149.877 42.7099 153.76C42.6833 166.621 46.7462 179.157 54.3116 189.557C61.8769 199.957 72.5528 207.683 84.7968 211.617C97.0407 215.552 110.219 215.492 122.426 211.446C134.634 207.401 145.239 199.578 152.71 189.11C158.242 193.43 165.034 195.827 172.053 195.936C179.071 196.045 185.934 193.86 191.598 189.713C197.261 185.567 201.417 179.685 203.434 172.961C205.45 166.237 205.217 159.039 202.77 152.46C211.007 149.458 218.128 144.006 223.174 136.838C228.221 129.669 230.952 121.127 231 112.36Z" fill="white"/>
<path d="M100.31 92.37L147.42 113.84L195 72.2C195.682 68.7588 196.017 65.258 196 61.75C196.006 50.396 192.375 39.3385 185.639 30.1986C178.903 21.0587 169.416 14.3173 158.568 10.9625C147.721 7.60769 136.085 7.81607 125.365 11.557C114.645 15.298 105.405 22.3748 99.0001 31.75L91.1001 72.75L100.31 92.37Z" fill="#FEC514"/>
<path d="M51.55 142.26C50.8676 145.752 50.5326 149.302 50.55 152.86C50.5402 164.255 54.186 175.352 60.9514 184.521C67.7168 193.691 77.2451 200.448 88.1358 203.799C99.0265 207.151 110.705 206.921 121.456 203.143C132.206 199.365 141.461 192.238 147.86 182.81L155.71 141.93L145.24 121.93L97.9 100.36L51.55 142.26Z" fill="#02BCB7"/>
<path d="M51.25 60.73L83.53 68.35L90.61 31.64C86.2165 28.323 80.8683 26.5155 75.3633 26.4874C69.8584 26.4593 64.4919 28.212 60.0648 31.4839C55.6376 34.7559 52.3872 39.3717 50.7986 44.6426C49.21 49.9134 49.3683 55.5566 51.25 60.73Z" fill="#F04E98"/>
<path d="M48.45 68.42C41.4645 70.7195 35.3626 75.1258 30.9828 81.0336C26.603 86.9414 24.1603 94.0605 23.9905 101.413C23.8206 108.765 25.9318 115.989 30.0341 122.093C34.1363 128.197 40.0282 132.88 46.9 135.5L92.2 94.56L83.88 76.79L48.45 68.42Z" fill="#1BA9F5"/>
<path d="M156.11 182.81C159.869 185.701 164.363 187.48 169.083 187.945C173.802 188.41 178.558 187.543 182.809 185.441C187.06 183.339 190.637 180.088 193.133 176.056C195.629 172.024 196.944 167.372 196.93 162.63C196.943 159.612 196.421 156.616 195.39 153.78L163.13 146.23L156.11 182.81Z" fill="#9ADC30"/>
<path d="M162.67 137.77L198.18 146.08C205.271 143.692 211.44 139.149 215.825 133.086C220.21 127.023 222.592 119.742 222.64 112.26C222.634 105.05 220.435 98.0129 216.336 92.0816C212.237 86.1502 206.432 81.6054 199.69 79.05L153.24 119.75L162.67 137.77Z" fill="#0B64DD"/>
<path d="M35 292.94L37.8 292.65L37.99 298.36C31.749 299.301 25.4511 299.816 19.14 299.9C12.1734 299.9 7.24002 297.9 4.34002 293.9C1.44002 289.9 -0.00664373 283.617 2.29358e-05 275.05C2.29358e-05 258.103 6.73669 249.627 20.21 249.62C26.7167 249.62 31.5834 251.44 34.81 255.08C38.0367 258.72 39.65 264.443 39.65 272.25L39.26 277.76H7.35002C7.35002 283.093 8.31669 287.057 10.25 289.65C12.1834 292.243 15.5534 293.533 20.36 293.52C25.16 293.52 30.04 293.327 35 292.94ZM32.4 272C32.4 266.067 31.4467 261.877 29.54 259.43C27.6334 256.983 24.54 255.757 20.26 255.75C15.9667 255.75 12.7434 257.04 10.59 259.62C8.43669 262.2 7.32336 266.327 7.25002 272H32.4Z" fill="#1C1E23"/>
<path d="M49.7603 299.53V235.88H57.0003V299.53H49.7603Z" fill="#1C1E23"/>
<path d="M102.69 265.19V289.58C102.69 291.99 108.69 291.9 108.69 291.9L108.32 298.31C103.22 298.31 99.01 298.73 96.47 296.31C90.9933 298.74 85.0614 299.974 79.07 299.93C74.6167 299.93 71.2333 298.673 68.92 296.16C66.6067 293.647 65.4533 290.027 65.46 285.3C65.46 280.6 66.6533 277.137 69.04 274.91C71.4267 272.683 75.1633 271.313 80.25 270.8L95.43 269.35V265.19C95.43 261.897 94.7233 259.543 93.31 258.13C92.5376 257.401 91.6253 256.836 90.6284 256.47C89.6314 256.104 88.5706 255.944 87.51 256H68.45V249.6H87C92.48 249.6 96.46 250.857 98.94 253.37C101.42 255.883 102.67 259.823 102.69 265.19ZM72.9 284.91C72.9 290.85 75.35 293.817 80.25 293.81C84.6777 293.81 89.0734 293.06 93.25 291.59L95.47 290.81V274.86L81.16 276.21C78.26 276.47 76.1667 277.31 74.88 278.73C73.55 280.14 72.9 282.21 72.9 284.91Z" fill="#1C1E23"/>
<path d="M131 256.1C123.98 256.1 120.467 258.55 120.46 263.45C120.377 264.393 120.56 265.341 120.987 266.186C121.415 267.031 122.071 267.739 122.88 268.23C124.487 269.17 128.154 270.137 133.88 271.13C139.607 272.123 143.667 273.527 146.06 275.34C148.44 277.147 149.634 280.53 149.64 285.49C149.647 290.45 148.05 294.093 144.85 296.42C141.664 298.74 136.997 299.9 130.85 299.9C126.85 299.9 113.51 298.42 113.51 298.42L113.9 292.14C121.56 292.88 127.11 293.42 130.9 293.42C134.69 293.42 137.49 292.83 139.46 291.64C141.43 290.45 142.41 288.44 142.41 285.64C142.41 282.84 141.57 280.93 139.89 279.93C138.21 278.93 134.54 277.98 128.89 277.08C123.24 276.18 119.18 274.86 116.8 273.08C114.42 271.3 113.22 268.08 113.22 263.41C113.22 258.74 114.88 255.22 118.22 252.96C121.925 250.599 126.26 249.42 130.65 249.58C134.58 249.58 148.22 250.58 148.22 250.58V256.9C141 256.61 135.12 256.1 131 256.1Z" fill="#1C1E23"/>
<path d="M184.64 256.87H169.26V280C169.26 285.547 169.664 289.19 170.47 290.93C171.28 292.67 173.19 293.54 176.22 293.54L184.83 292.96L185.31 298.96C182.054 299.556 178.759 299.91 175.45 300.02C170.417 300.02 166.937 298.797 165.01 296.35C163.084 293.903 162.117 289.237 162.11 282.35V256.87H155.24V250.59H162.11V235.79H169.26V250.59H184.64V256.87Z" fill="#1C1E23"/>
<path d="M194.72 244.41V236H202V244.41H194.72ZM194.72 299.53V250.59H202V299.53H194.72Z" fill="#1C1E23"/>
<path d="M233.39 249.62C237.021 249.773 240.639 250.16 244.22 250.78L246.54 251.07L246.25 256.97C242.464 256.488 238.656 256.198 234.84 256.1C229.36 256.1 225.637 257.403 223.67 260.01C221.703 262.617 220.72 267.453 220.72 274.52C220.72 281.58 221.64 286.497 223.48 289.27C225.32 292.043 229.137 293.427 234.93 293.42L246.35 292.55L246.64 298.55C242.192 299.303 237.699 299.754 233.19 299.9C225.65 299.9 220.447 297.967 217.58 294.1C214.713 290.233 213.277 283.707 213.27 274.52C213.27 265.333 214.82 258.887 217.92 255.18C221.02 251.473 226.177 249.62 233.39 249.62Z" fill="#1C1E23"/>
</g>
<defs>
<clipPath id="clip0_16_19">
<rect width="246.64" height="300" fill="white"/>
</clipPath>
</defs>
</svg>
