<svg xmlns="http://www.w3.org/2000/svg" xmlns:xlink="http://www.w3.org/1999/xlink" viewBox="0 0 81 77" fill="#fff" fill-rule="evenodd" stroke="#000" stroke-linecap="round" stroke-linejoin="round"><use xlink:href="#A" x=".5" y=".5"/><symbol id="A" overflow="visible"><g stroke="none"><path d="M11.76 44.32L38.12 70.4l4.36-4.6L17.2 41.24l-5.44 3.08zM42.28 5.76l-4.36 4.64 24.84 24.88 7.12-1.52-27.6-28z" fill="#669df6"/><path d="M37.52 10.04h5v20h-5zm0 37.48h5v20h-5z" fill="#4285f4" fill-rule="nonzero"/><path d="M32.48 7.52C32.48 3.354 35.834 0 40 0s7.52 3.354 7.52 7.52-3.354 7.52-7.52 7.52-7.52-3.354-7.52-7.52zm0 60c0-4.166 3.354-7.52 7.52-7.52s7.52 3.354 7.52 7.52-3.354 7.52-7.52 7.52-7.52-3.354-7.52-7.52z" fill-rule="nonzero" fill="#aecbfa"/><path d="M2.64 35.04h60.28l14.56 7.48H17.2L2.64 35.04z" fill="#669df6"/><path d="M0 38.76a9.98 9.98 0 0 1 10-10 9.98 9.98 0 0 1 10 10 9.98 9.98 0 0 1-10 10 9.98 9.98 0 0 1-10-10zm60 0a10 10 0 1 1 20 0 10 10 0 1 1-20 0z" fill-rule="nonzero" fill="#aecbfa"/></g></symbol></svg>