<svg width="16" height="16" viewBox="0 0 16 16" fill="none" xmlns="http://www.w3.org/2000/svg">
<path fill-rule="evenodd" clip-rule="evenodd" d="M3.78507 9.13439C4.28566 8.84537 4.28649 7.90965 3.78692 7.04441C3.28736 6.17916 2.47658 5.71204 1.97599 6.00108C1.4754 6.2901 1.47457 7.22581 1.97413 8.09106C2.4737 8.95629 3.28448 9.42341 3.78507 9.13439ZM3.78806 10.9871C4.28763 11.8523 4.28679 12.788 3.78621 13.0771C3.28561 13.3661 2.47483 12.899 1.97527 12.0337C1.47571 11.1685 1.47654 10.2328 1.97713 9.94375C2.47772 9.65472 3.2885 10.1218 3.78806 10.9871ZM7.19942 12.9593C7.69898 13.8246 7.69815 14.7603 7.19756 15.0494C6.69698 15.3384 5.88618 14.8712 5.38662 14.006C4.88707 13.1408 4.8879 12.205 5.38849 11.916C5.88908 11.627 6.69986 12.0941 7.19942 12.9593ZM7.1983 9.01672C7.69787 9.88195 7.69704 10.8177 7.19645 11.1067C6.69586 11.3957 5.88508 10.9286 5.38552 10.0634C4.88596 9.19813 4.88679 8.26241 5.38738 7.97338C5.88796 7.68436 6.69875 8.15148 7.1983 9.01672Z" fill="#F26E7E"/>
<path fill-rule="evenodd" clip-rule="evenodd" d="M14.0226 8.09349C14.5221 7.22825 14.5213 6.29253 14.0207 6.00351C13.5201 5.71449 12.7094 6.18161 12.2098 7.04684C11.7102 7.91209 11.7111 8.8478 12.2117 9.13682C12.7122 9.42585 13.523 8.95874 14.0226 8.09349ZM14.0227 9.94526C14.5232 10.2343 14.5241 11.17 14.0246 12.0352C13.525 12.9005 12.7142 13.3676 12.2136 13.0786C11.713 12.7896 11.7122 11.8538 12.2118 10.9886C12.7113 10.1233 13.5221 9.65622 14.0227 9.94526ZM10.612 11.9143C11.1126 12.2033 11.1134 13.139 10.6139 14.0043C10.1143 14.8694 9.30352 15.3366 8.80294 15.0476C8.30235 14.7586 8.30152 13.8229 8.80108 12.9576C9.30064 12.0924 10.1114 11.6253 10.612 11.9143ZM10.6101 7.97252C11.1107 8.26154 11.1115 9.19726 10.6119 10.0625C10.1124 10.9277 9.3016 11.3949 8.801 11.1058C8.30042 10.8168 8.29958 9.8811 8.79915 9.01585C9.29871 8.15061 10.1095 7.68349 10.6101 7.97252Z" fill="#8A3391"/>
<path fill-rule="evenodd" clip-rule="evenodd" d="M9.80693 2.64674C9.80693 3.22479 8.99699 3.69339 7.99786 3.69339C6.99873 3.69339 6.18879 3.22479 6.18879 2.64674C6.18879 2.0687 6.99873 1.6001 7.99786 1.6001C8.99699 1.6001 9.80693 2.0687 9.80693 2.64674ZM6.39628 4.61375C6.39628 5.1918 5.58634 5.6604 4.58721 5.6604C3.58809 5.6604 2.77814 5.1918 2.77814 4.61375C2.77814 4.03571 3.58809 3.56711 4.58721 3.56711C5.58634 3.56711 6.39628 4.03571 6.39628 4.61375ZM11.413 5.6604C12.4121 5.6604 13.222 5.1918 13.222 4.61375C13.222 4.03571 12.4121 3.56711 11.413 3.56711C10.4138 3.56711 9.60389 4.03571 9.60389 4.61375C9.60389 5.1918 10.4138 5.6604 11.413 5.6604ZM9.80693 6.58518C9.80693 7.16323 8.99699 7.63181 7.99786 7.63181C6.99873 7.63181 6.18879 7.16323 6.18879 6.58518C6.18879 6.00713 6.99873 5.53853 7.99786 5.53853C8.99699 5.53853 9.80693 6.00713 9.80693 6.58518Z" fill="#F7BF2A"/>
</svg>
