<svg width="73" height="90" fill="none" xmlns="http://www.w3.org/2000/svg">
    <path d="M36.176 79.06c-4.595 0-8.75-1.88-11.774-4.922a16.783 16.783 0 0 1-4.886-11.86c0-4.628 1.866-8.814 4.886-11.86 3.023-3.042 7.18-4.92 11.774-4.921 4.596 0 8.752 1.879 11.775 4.922a16.783 16.783 0 0 1 4.886 11.86c0 4.628-1.866 8.814-4.886 11.86-3.023 3.042-7.18 4.92-11.775 4.921ZM56.08 62.278a20.065 20.065 0 0 0-5.836-14.169c-3.598-3.626-8.583-5.878-14.067-5.878-5.483 0-10.468 2.252-14.067 5.878a20.066 20.066 0 0 0-5.835 14.17 20.067 20.067 0 0 0 5.835 14.168c3.599 3.627 8.583 5.88 14.067 5.879 5.484 0 10.469-2.252 14.067-5.879a20.066 20.066 0 0 0 5.836-14.169Z" fill="#434D5B"/>
    <path d="M33.92 56.764c1.1 0 1.65-.553 1.65-1.661 0-1.09-.55-1.634-1.65-1.634h-5.994c-1.137 0-1.705.535-1.705 1.606 0 1.127.568 1.69 1.705 1.69h1.402V67.76h-1.402c-1.137 0-1.705.55-1.705 1.647 0 1.1.568 1.649 1.705 1.649h5.994c1.1 0 1.65-.54 1.65-1.621 0-1.117-.55-1.675-1.65-1.675h-1.347V56.764h1.347ZM44.13 60.462c-.414.415-.926.623-1.534.623h-2.655v-4.348h2.655c.608 0 1.12.212 1.535.637.414.425.622.933.622 1.523 0 .628-.208 1.15-.622 1.565Zm3.441-3.642a5.552 5.552 0 0 0-1.168-1.745 5.506 5.506 0 0 0-1.733-1.177 5.202 5.202 0 0 0-2.089-.43h-3.932c-1.302 0-1.952.647-1.952 1.94v13.985c0 1.108.545 1.663 1.636 1.663 1.072 0 1.608-.555 1.608-1.663v-5.012h2.621c.736 0 1.435-.143 2.097-.43a5.52 5.52 0 0 0 1.738-1.176 5.592 5.592 0 0 0 1.173-1.731 5.256 5.256 0 0 0 .428-2.12c0-.737-.143-1.44-.427-2.104ZM65.456 59.156h-.002v.002l.002-.002ZM68.56 54.355v.002-.002Z" fill="#434D5B"/>
    <path d="M49.338 37.023h5.97c.137 1.474.23 2.97.27 4.485a28.385 28.385 0 0 0-6.24-4.485Zm-32.123 4.076c.044-1.376.132-2.734.257-4.076h5.543a28.35 28.35 0 0 0-5.8 4.076Zm35.968-24.547a87.66 87.66 0 0 0 8.557-1.596 33.434 33.434 0 0 1 7.884 18.801H58.04c-.852-6.218-2.524-12.027-4.858-17.205Zm-15.062 1.09c4.13-.05 8.103-.29 11.841-.695 2.363 4.99 4.08 10.677 4.962 16.81H38.121V17.643Zm-15.29-.716c3.797.416 7.84.665 12.048.716v16.115H17.855c.885-6.142 2.607-11.837 4.976-16.831ZM3.377 33.757a33.455 33.455 0 0 1 7.881-18.8c2.571.622 5.373 1.148 8.355 1.568-2.341 5.184-4.02 11.003-4.873 17.232H3.376Zm48.3-20.298c-1.746-3.3-3.78-6.295-6.056-8.91a33.12 33.12 0 0 1 13.495 7.658c-2.307.494-4.8.915-7.438 1.252ZM38.122 3.309a32.3 32.3 0 0 1 2.117.17c3.072 2.765 5.824 6.27 8.118 10.35-3.25.315-6.681.504-10.235.548V3.308Zm-5.607.2c.78-.094 1.569-.16 2.365-.2v11.068a122.79 122.79 0 0 1-10.44-.567c2.281-4.057 5.018-7.544 8.075-10.3v-.001ZM13.88 12.207a33.202 33.202 0 0 1 13.21-7.574c-2.242 2.588-4.247 5.544-5.97 8.8a89.888 89.888 0 0 1-7.24-1.226Zm.224 32.21a28.51 28.51 0 0 0-5.364 10.79 33.485 33.485 0 0 1-5.493-18.184H14.37a70.988 70.988 0 0 0-.28 6.27c0 .376.008.749.014 1.123Zm44.304-7.394h11.348c0 .128-.002.253-.005.37l-.01.316v.018a13.83 13.83 0 0 1-.017.484l-.002.034c-.006.17-.014.34-.026.511l-.002.04a8.26 8.26 0 0 1-.021.358l-.004.05a18.93 18.93 0 0 1-.048.596l-.003.038a7.722 7.722 0 0 1-.035.348l-.007.074a5.673 5.673 0 0 1-.02.216v-.005c-.013.118-.025.22-.037.309l-.004.03c-.026.22-.05.422-.077.603l-.003.024c-.03.216-.057.414-.087.59h.002c-.002.015-.008.029-.01.044-.023.16-.05.321-.078.473l-.005.031c-.017.104-.031.187-.042.241l-.007.039c-.036.2-.075.403-.117.608l-.006.029c-.018.093-.04.199-.065.314l-.005.021c-.048.24-.1.47-.154.695l-.001.005-.004.013-.004.02c-.052.225-.113.463-.18.721v.005c-.048.188-.105.391-.165.604l-.007.026c-.06.226-.13.457-.203.695l-.002.006c-.067.217-.132.427-.198.632l-.004.011-.042.128-.026.075c-.04.123-.087.257-.14.404l-.004.013c-.03.087-.053.154-.072.204l-.017.049c-.052.148-.107.297-.168.456l-.008.022c-.094.258-.2.53-.31.802l-.006.013c-.061.155-.125.31-.19.459v-.001l-.023.052-.007.017c-.058.136-.112.264-.166.383l-.014.033a7.299 7.299 0 0 1-.093.207l-.013.028c-.052.12-.11.245-.17.373l-.009.019a27.15 27.15 0 0 1-.4.826l-.006.013c-.104.212-.218.43-.339.655l-.014.027c-.052.102-.098.191-.14.268v.001c-.128.234-.248.453-.37.659l-.012.022c-.15.265-.306.53-.463.785l-.016.027c-.081.137-.163.27-.245.397l-.017.026c-.126.203-.255.402-.386.597l-.01.014c-.133.203-.276.4-.415.6a28.5 28.5 0 0 0-5.116-10.96c.013-.552.022-1.105.022-1.66a70.87 70.87 0 0 0-.28-6.27Zm14.574.785.01-.318c.007-.258.007-.5.007-.725a36.763 36.763 0 0 0-9.493-24.728l-.001-.002a36.782 36.782 0 0 0-1.097-1.164C56.795 5.168 49.327 1.306 40.99.276h.001-.002.001A36.204 36.204 0 0 0 36.5 0a36.354 36.354 0 0 0-12.668 2.275 35.988 35.988 0 0 0-2.957 1.254 36.608 36.608 0 0 0-11.386 8.507A36.766 36.766 0 0 0 .028 35.385v.007a36.79 36.79 0 0 0 7.95 24.315 29.024 29.024 0 0 0-.116 2.57c0 6.675 2.283 12.83 6.102 17.688 3.818 4.86 9.175 8.438 15.335 9.986a1.62 1.62 0 0 0 1.966-1.189 1.634 1.634 0 0 0-1.181-1.98c-5.447-1.368-10.194-4.536-13.578-8.843a25.259 25.259 0 0 1-5.402-15.662 25.26 25.26 0 0 1 7.344-17.856c4.542-4.573 10.8-7.397 17.728-7.398 6.928.001 13.187 2.825 17.73 7.398a25.262 25.262 0 0 1 7.345 17.856 25.256 25.256 0 0 1-5.402 15.662c-3.385 4.307-8.133 7.475-13.581 8.843a1.634 1.634 0 0 0-1.181 1.98 1.62 1.62 0 0 0 1.965 1.19c6.162-1.549 11.52-5.127 15.339-9.987a28.54 28.54 0 0 0 6.041-19.53c.191-.229.38-.46.566-.696l.007-.01.011-.014a36.577 36.577 0 0 0 .969-1.274l.002-.002c.308-.426.61-.862.904-1.307l.005-.008.005-.006c.145-.216.285-.435.423-.656.003-.002.004-.006.007-.009a14.527 14.527 0 0 0 .297-.48l.008-.015.008-.013c.17-.277.335-.557.494-.838l.01-.016.003-.006c.146-.25.28-.493.409-.73.068-.124.126-.238.177-.338.127-.236.255-.48.38-.735l-.007.013c.148-.294.296-.596.441-.913l.004-.006a12 12 0 0 0 .316-.697c.066-.15.126-.29.183-.424l.022-.052h.001c.084-.192.163-.383.238-.573l-.005.012c.114-.282.23-.578.341-.88l.001-.002.008-.02c.06-.16.119-.32.177-.486.045-.12.08-.222.109-.305.05-.142.104-.296.159-.464a41.07 41.07 0 0 0 .519-1.694c.062-.218.128-.452.191-.7.062-.245.129-.503.192-.778l.003-.013-.001.005V45.3l.003-.008c.065-.266.122-.528.175-.787.025-.113.052-.24.078-.376l.002-.01.004-.018a25.4 25.4 0 0 0 .123-.639l.003-.018.004-.02c.024-.123.041-.23.055-.314.03-.166.056-.328.08-.488l.01-.05c.042-.247.073-.48.102-.696.036-.24.063-.467.088-.68.017-.133.03-.256.043-.364v-.006a9.4 9.4 0 0 0 .028-.288c.014-.128.03-.275.043-.44.02-.217.041-.45.056-.697.014-.173.021-.33.027-.461.012-.183.022-.366.028-.55l.002-.02v-.016c.01-.183.016-.365.02-.547Z" fill="#434D5B"/>
    <path d="M71.816 46.089v.001l-.002.004.002-.005ZM71.394 47.58l-.001.004.001-.005ZM71.182 48.255l-.001.005-.003.007.004-.012Z" fill="#434D5B"/>
</svg>
