<svg width="16" height="16" viewBox="0 0 16 16" fill="none" xmlns="http://www.w3.org/2000/svg">
<path d="M3.33325 5.33337C4.43782 5.33337 5.33325 4.43794 5.33325 3.33337C5.33325 2.2288 4.43782 1.33337 3.33325 1.33337C2.22868 1.33337 1.33325 2.2288 1.33325 3.33337C1.33325 4.43794 2.22868 5.33337 3.33325 5.33337Z" fill="#6C7A8D"/>
<path d="M12.6667 10C13.7713 10 14.6667 9.10457 14.6667 8C14.6667 6.89543 13.7713 6 12.6667 6C11.5622 6 10.6667 6.89543 10.6667 8C10.6667 9.10457 11.5622 10 12.6667 10Z" fill="#6C7A8D"/>
<path d="M3.33325 14.6666C4.43782 14.6666 5.33325 13.7712 5.33325 12.6666C5.33325 11.5621 4.43782 10.6666 3.33325 10.6666C2.22868 10.6666 1.33325 11.5621 1.33325 12.6666C1.33325 13.7712 2.22868 14.6666 3.33325 14.6666Z" fill="#292D32"/>
<path opacity="0.4" d="M3.33325 11.1667C3.05992 11.1667 2.83325 10.94 2.83325 10.6667V5.33337C2.83325 5.06004 3.05992 4.83337 3.33325 4.83337C3.60659 4.83337 3.83325 5.06004 3.83325 5.33337C3.83325 6.79337 4.53992 7.50004 5.99992 7.50004H10.6666C10.9399 7.50004 11.1666 7.72671 11.1666 8.00004C11.1666 8.27337 10.9399 8.50004 10.6666 8.50004H5.99992C5.09325 8.50004 4.36659 8.2667 3.83325 7.8267V10.6667C3.83325 10.94 3.60659 11.1667 3.33325 11.1667Z" fill="#292D32"/>
</svg>
