<svg width="14" height="14" viewBox="0 0 14 14" fill="none" xmlns="http://www.w3.org/2000/svg">
<g id="Icon feather-trash-2">
<path id="Path 12" d="M1.6001 3.39941H12.4003" stroke="#6C7A8D" stroke-width="1.3" stroke-linecap="round" stroke-linejoin="round"/>
<path id="Path 13" d="M11.1995 3.39969V11.8002C11.1995 12.1184 11.0731 12.4236 10.8481 12.6486C10.6231 12.8736 10.3179 13 9.99967 13H3.99965C3.68143 13 3.37625 12.8736 3.15123 12.6486C2.92622 12.4236 2.7998 12.1184 2.7998 11.8002V3.39969M4.59997 3.39969V2.19985C4.59997 1.88163 4.72638 1.57644 4.9514 1.35143C5.17641 1.12641 5.4816 1 5.79982 1H8.19951C8.51773 1 8.82292 1.12641 9.04793 1.35143C9.27295 1.57644 9.39936 1.88163 9.39936 2.19985V3.39969" stroke="#6C7A8D" stroke-width="1.3" stroke-linecap="round" stroke-linejoin="round"/>
<path id="Path 14" d="M5.7998 6.39941V9.99974" stroke="#6C7A8D" stroke-width="1.3" stroke-linecap="round" stroke-linejoin="round"/>
<path id="Path 15" d="M8.20068 6.39941V9.99974" stroke="#6C7A8D" stroke-width="1.3" stroke-linecap="round" stroke-linejoin="round"/>
</g>
</svg>
