<svg
  width="20"
  height="20"
  viewBox="0 0 20 20"
  fill="none"
  xmlns="http://www.w3.org/2000/svg"
  stroke="black"
>
  <path d="M6.71875 17.5L13.4375 17.5C15.7675 17.5 17.6563 15.6112 17.6563 13.2812L17.6563 6.5625C17.6563 4.23255 15.7675 2.34375 13.4375 2.34375L6.71875 2.34375C4.3888 2.34375 2.5 4.23255 2.5 6.5625L2.5 13.2812C2.5 15.6112 4.3888 17.5 6.71875 17.5Z" />
  <path d="M12.8125 17.3438L12.8125 2.5" strokeLinecap="round" />
  <path
    d="M6.71881 7.65625L7.0161 7.86611C7.70009 8.34892 8.31465 8.92325 8.8426 9.57303C8.97076 9.73077 8.97076 9.95673 8.8426 10.1145C8.31465 10.7643 7.70009 11.3386 7.0161 11.8214L6.71881 12.0312"
    strokeLinecap="round"
    strokeLinejoin="round"
  />
</svg>
