<?xml version="1.0" encoding="UTF-8"?>
<svg version="1.1" xmlns="http://www.w3.org/2000/svg" viewBox="0 0 738 750">
<g transform="translate(-231, -64)">
<path d="M0 0 C0.65777475 0.3285919 1.31554949 0.65718379 1.99325681 0.99573302 C10.50362916 5.64785842 16.81033811 12.25176271 23.57635498 19.06842041 C24.9286762 20.41612785 26.28186732 21.76296286 27.63584733 23.10900378 C31.33900197 26.79550788 35.02963541 30.49432572 38.71825957 34.1953609 C42.70424024 38.19040713 46.70173224 42.17390683 50.69773865 46.15892029 C58.518158 53.96156601 66.32774042 61.77497175 74.13347402 69.59230623 C80.47833658 75.94620734 86.82709868 82.29618736 93.17865753 88.64339447 C94.08311342 89.54723743 94.98756931 90.45108038 95.91943295 91.38231252 C97.75691329 93.21851394 99.5944026 95.05470639 101.43190077 96.89088997 C118.16523749 113.61314924 134.88726974 130.34666348 151.60458081 147.0849404 C166.85566937 162.35501045 182.11706456 177.6147071 197.38720703 192.86572266 C214.5554011 210.01248405 231.71705399 227.16573938 248.86839604 244.32936072 C250.69779082 246.16002968 252.52719395 247.99069029 254.35660553 249.82134247 C255.70671039 251.17237298 255.70671039 251.17237298 257.0840901 252.55069704 C263.42310924 258.89316789 269.76675404 265.23098938 276.11220551 271.56702423 C283.84650057 279.29009362 291.57361323 287.02026418 299.29164544 294.75958714 C303.22863231 298.70707655 307.16873129 302.65131846 311.11758995 306.58693504 C314.73450145 310.19190087 318.34199941 313.80601972 321.94230881 317.42756411 C323.24414599 318.73385804 324.54934059 320.03681669 325.85826096 321.33601311 C338.38153262 333.77338415 346.97454521 345.80725669 347.25 364.125 C347.00974696 387.58971395 332.31661838 400.83408835 316.83656311 416.31060791 C315.51578218 417.63469472 314.1952121 418.95899188 312.87483305 420.28347945 C309.26820984 423.90004675 305.65850888 427.51352799 302.04824317 431.12645864 C298.14663686 435.03199022 294.24785914 438.94034394 290.34864807 442.8482666 C280.94817457 452.26843228 271.54291718 461.68381454 262.13704911 471.09859335 C257.70347918 475.53655424 253.27039624 479.97500153 248.83724785 484.41338348 C234.09703408 499.17059505 219.35558214 513.92656835 204.61048222 528.67889786 C203.65865953 529.63119529 202.70683742 530.58349329 201.75501588 531.53579186 C201.28303051 532.0080136 200.81104514 532.48023535 200.32475719 532.96676684 C197.93370213 535.35902302 195.54265425 537.75128638 193.15161133 540.14355469 C192.67711523 540.61829093 192.20261914 541.09302718 191.71374437 541.58214937 C176.31651314 556.98728017 160.92707788 572.40016853 145.54214303 587.81757893 C129.25750043 604.13653325 112.96555957 620.44817132 96.66539758 636.75162673 C87.78689455 645.63229462 78.9117106 654.51622497 70.04490852 663.40857697 C62.49912509 670.97605461 54.94656427 678.53668448 47.38506181 686.0884569 C43.52863403 689.94033766 39.67550885 693.79537571 35.83106232 697.65921783 C32.30948928 701.19840393 28.77875324 704.72817547 25.24059945 708.25078341 C23.96465957 709.52434459 22.69207021 710.80127362 21.42326678 712.08194473 C14.77998394 718.78348345 8.5349532 724.71794806 0 729 C-0.95648437 729.48210938 -1.91296875 729.96421875 -2.8984375 730.4609375 C-14.76085405 734.83917957 -29.23914595 734.83917957 -41.1015625 730.4609375 C-42.05804687 729.97882812 -43.01453125 729.49671875 -44 729 C-44.98666212 728.50699505 -44.98666212 728.50699505 -45.99325681 728.00403041 C-54.50157447 723.35235899 -60.80973847 716.75185405 -67.57635498 709.93830872 C-68.92867852 708.59131585 -70.28186957 707.24519348 -71.63584733 705.89986342 C-75.33900136 702.215294 -79.02963854 698.51840877 -82.71825957 694.81929815 C-86.70425998 690.82629399 -90.70175116 686.84482141 -94.69773865 682.86181641 C-102.51824442 675.0629358 -110.32784703 667.25322493 -118.13347402 659.43945549 C-124.47850834 653.08811767 -130.82725567 646.7405141 -137.17865753 640.39554405 C-138.08311342 639.49198982 -138.98756931 638.58843558 -139.91943295 637.65750092 C-141.75691658 635.82186852 -143.59440587 633.98624179 -145.43190077 632.15062066 C-157.76534483 619.82904374 -170.09505629 607.50374792 -182.41695786 595.17062855 C-182.89844169 594.68870674 -183.37992553 594.20678494 -183.87599978 593.71025944 C-187.78560536 589.79704728 -191.69509672 585.88372102 -195.60458081 581.97038748 C-210.85438964 566.70573083 -226.11596894 551.45293416 -241.38720703 536.2097168 C-258.55730088 519.07106787 -275.71907805 501.9241705 -292.86839604 484.76472777 C-294.69778519 482.93431609 -296.52718829 481.10391837 -298.35660553 479.27353477 C-299.25667544 478.37298848 -300.15674535 477.47244218 -301.0840901 476.5446066 C-307.42201971 470.20451383 -313.765909 463.87042246 -320.11220551 457.53870583 C-327.84836126 449.8200756 -335.57563188 442.09268188 -343.29164544 434.35391424 C-347.2273776 430.40704244 -351.16698715 426.46426232 -355.11758995 422.53227043 C-358.73668522 418.93000532 -362.343959 415.31631951 -365.94230881 411.69333478 C-367.24327316 410.38749526 -368.54843394 409.08581968 -369.85826096 407.78887007 C-382.13275977 395.62634045 -390.98028388 382.81112182 -391.25 364.875 C-391.00974696 341.41028605 -376.31661838 328.16591165 -360.83656311 312.68939209 C-359.51578218 311.36530528 -358.1952121 310.04100812 -356.87483305 308.71652055 C-353.26820984 305.09995325 -349.65850888 301.48647201 -346.04824317 297.87354136 C-342.14663686 293.96800978 -338.24785914 290.05965606 -334.34864807 286.1517334 C-324.94817457 276.73156772 -315.54291718 267.31618546 -306.13704911 257.90140665 C-301.70347918 253.46344576 -297.27039624 249.02499847 -292.83724785 244.58661652 C-278.09703408 229.82940495 -263.35558214 215.07343165 -248.61048222 200.32110214 C-247.65865953 199.36880471 -246.70683742 198.41650671 -245.75501588 197.46420814 C-245.28303051 196.9919864 -244.81104514 196.51976465 -244.32475719 196.03323316 C-241.93370213 193.64097698 -239.54265425 191.24871362 -237.15161133 188.85644531 C-236.43986719 188.14434095 -236.43986719 188.14434095 -235.71374437 187.41785063 C-220.31651314 172.01271983 -204.92707788 156.59983147 -189.54214303 141.18242107 C-173.25750043 124.86346675 -156.96555957 108.55182868 -140.66539758 92.24837327 C-131.78689455 83.36770538 -122.9117106 74.48377503 -114.04490852 65.59142303 C-106.49912509 58.02394539 -98.94656427 50.46331552 -91.38506181 42.9115431 C-87.52863403 39.05966234 -83.67550885 35.20462429 -79.83106232 31.34078217 C-76.30948928 27.80159607 -72.77875324 24.27182453 -69.24059945 20.74921659 C-67.96465957 19.47565541 -66.69207021 18.19872638 -65.42326678 16.91805527 C-58.77998394 10.21651655 -52.5349532 4.28205194 -44 0 C-42.56527344 -0.72316406 -42.56527344 -0.72316406 -41.1015625 -1.4609375 C-28.42050467 -6.14132793 -12.17178106 -6.13510258 0 0 Z M-149.25 161.625 C-149.90637451 161.96708496 -150.56274902 162.30916992 -151.23901367 162.66162109 C-167.73841212 171.60874654 -181.11135062 187.06412261 -187 205 C-189.45043868 213.71925435 -190.4347867 221.85479663 -190.38095093 230.88949585 C-190.3856309 232.11916915 -190.39031087 233.34884244 -190.39513266 234.61577857 C-190.4049473 237.98950197 -190.4015256 241.36271606 -190.39217401 244.73640728 C-190.38533602 248.39023172 -190.39588817 252.04401431 -190.40411377 255.6978302 C-190.41740384 262.84060956 -190.41459432 269.98329395 -190.40587585 277.12607692 C-190.39907995 282.93609595 -190.3981908 288.74608851 -190.4014473 294.55611038 C-190.401907 295.3854019 -190.40236669 296.21469342 -190.40284032 297.06911499 C-190.40379958 298.75422609 -190.40477222 300.43933717 -190.4057581 302.12444825 C-190.41429843 317.90012422 -190.40449977 333.67574777 -190.388357 349.45141514 C-190.37496002 362.96145145 -190.37727943 376.4714104 -190.39111328 389.98144531 C-190.40720171 405.70046562 -190.41346937 421.41944004 -190.40427649 437.13846743 C-190.40332093 438.81773098 -190.40237781 440.49699453 -190.4014473 442.17625809 C-190.40098447 443.00230976 -190.40052164 443.82836142 -190.40004479 444.67944496 C-190.3974643 450.47544952 -190.4018056 456.27142476 -190.40888596 462.06742477 C-190.41733774 469.14107288 -190.41494428 476.21462124 -190.39904372 483.28825806 C-190.39120937 486.89118653 -190.38798568 490.49394925 -190.39799118 494.09687614 C-190.46922791 522.13489078 -187.55253889 545.13917303 -167 566 C-153.31372253 579.71107145 -135.45258657 587.17883556 -116.0625 587.25 C-95.53250673 587.17889276 -77.17019284 579.77528983 -62.3515625 565.4375 C-45.45514265 547.57702015 -39.79485003 528.17840056 -39.90234375 504.08984375 C-39.9037587 502.88179581 -39.90517365 501.67374786 -39.90663147 500.42909241 C-39.91219605 496.59853563 -39.92474197 492.76803889 -39.9375 488.9375 C-39.94251958 486.32877689 -39.94708168 483.72005286 -39.95117188 481.11132812 C-39.96215387 474.74086519 -39.97885646 468.37043689 -40 462 C-38.0525312 462.00999275 -38.0525312 462.00999275 -36.0657196 462.02018738 C-23.75425149 462.08133847 -11.44281469 462.12613452 0.86877155 462.15543652 C7.19635219 462.17100798 13.52380897 462.19208838 19.85131836 462.22631836 C25.97217695 462.25921841 32.09291737 462.27691684 38.21385765 462.28463173 C40.53431238 462.29012076 42.85476158 462.30083714 45.17516518 462.31719017 C78.73857814 462.54404739 110.33991737 455.97718382 138 436 C138.82927002 435.40977051 138.82927002 435.40977051 139.67529297 434.80761719 C171.14286428 412.13791853 193.24618864 379.75810632 202 342 C202.17789062 341.23816406 202.35578125 340.47632813 202.5390625 339.69140625 C210.81575973 302.31489258 203.52722372 261.19950279 183.96484375 228.5078125 C182.0753346 225.58237124 180.08749931 222.78721975 178 220 C177.61827637 219.4745459 177.23655273 218.9490918 176.84326172 218.40771484 C152.93570469 185.59810302 118.46648004 162.9339247 78.421875 155.5078125 C71.52353029 154.48408554 64.74896537 153.85100774 57.77427673 153.85282898 C56.99791746 153.84915229 56.22155819 153.8454756 55.42167288 153.8416875 C52.84743314 153.83076694 50.27323391 153.82682685 47.69897461 153.82299805 C45.84185664 153.81672461 43.98473991 153.81007704 42.12762451 153.80308533 C36.05253964 153.7821477 29.97745482 153.77169277 23.90234375 153.76171875 C21.80234833 153.75766738 19.70235303 153.75355035 17.60235786 153.74936867 C7.73308554 153.73033983 -2.13617941 153.71610383 -12.00546652 153.7077567 C-23.36011604 153.69799193 -34.71457024 153.67168243 -46.06915098 153.63125581 C-54.8712098 153.60100297 -63.6732129 153.58627917 -72.47532266 153.58297569 C-77.72063199 153.58063579 -82.9657321 153.57181408 -88.21098518 153.54651451 C-93.15150511 153.52306752 -98.09168047 153.51906673 -103.03224182 153.52927589 C-104.83321727 153.52976734 -106.63421068 153.52356423 -108.43513298 153.50971985 C-122.65576929 153.40662256 -136.44692355 154.81157368 -149.25 161.625 Z " fill="#794083" transform="translate(622,69)"/>
<path d="M0 0 C6.81299376 0.47404908 13.09637285 1.56536261 19.625 3.5625 C20.48818848 3.82571045 21.35137695 4.0889209 22.24072266 4.36010742 C30.65009637 7.03539464 38.35736786 10.61174105 46 15 C46.60005859 15.34401855 47.20011719 15.68803711 47.81835938 16.04248047 C57.42799625 21.66207455 65.78392538 28.52144449 74 36 C75.03060547 36.92232422 75.03060547 36.92232422 76.08203125 37.86328125 C94.08394022 54.85337333 106.33925528 79.13930279 112 103 C112.24556641 104.01271973 112.24556641 104.01271973 112.49609375 105.04589844 C120.19822389 138.28918329 114.70521394 176.41716057 96.70654297 205.58984375 C92.55912212 212.06144879 88.01826388 218.17735139 83 224 C82.17886719 224.95519531 81.35773438 225.91039062 80.51171875 226.89453125 C58.21378751 252.28358957 28.62068324 267.72056657 -5 272 C-7.33717815 272.1041117 -9.67656328 272.16488691 -12.01593018 272.18945312 C-12.68637509 272.19776909 -13.35682001 272.20608505 -14.04758143 272.21465302 C-16.27551062 272.24120017 -18.50344875 272.26122081 -20.73144531 272.28125 C-22.33710173 272.29907315 -23.94275356 272.31731333 -25.54840088 272.3359375 C-28.99954255 272.37511789 -32.45069819 272.41144215 -35.90189362 272.44555664 C-41.37693518 272.49978026 -46.85188647 272.56092009 -52.32684326 272.62304688 C-62.98057206 272.7430276 -73.63436573 272.85641408 -84.28817749 272.96875 C-97.80467684 273.11136172 -111.32115134 273.25576734 -124.83754039 273.40851593 C-129.37919232 273.45963766 -133.92084932 273.50906631 -138.46256256 273.55444336 C-160.39879774 273.70265383 -160.39879774 273.70265383 -182.31933594 274.453125 C-183.00721821 274.4883728 -183.69510048 274.52362061 -184.40382767 274.55993652 C-203.39812126 275.72015483 -225.48622001 280.67539321 -239 295 C-240.65265117 297.11172094 -242.22516038 299.24722094 -243.73828125 301.4609375 C-244.15464844 301.96882813 -244.57101562 302.47671875 -245 303 C-245.66 303 -246.32 303 -247 303 C-247.06972449 290.56005554 -247.12292494 278.12015811 -247.15543652 265.68005753 C-247.17104591 259.90268263 -247.19219743 254.12544211 -247.22631836 248.34814453 C-247.25908084 242.7654769 -247.27688851 237.18293798 -247.28463173 231.60018158 C-247.29014503 229.47768887 -247.30091065 227.35520264 -247.31719017 225.2327652 C-247.4249092 210.5976396 -247.27399179 197.64663935 -239 185 C-238.443125 184.13375 -237.88625 183.2675 -237.3125 182.375 C-223.48132693 168.17001144 -203.21908229 165.39495652 -184.2729702 164.90327835 C-179.99967681 164.85906943 -175.72732874 164.84506605 -171.45385742 164.84228516 C-169.82127244 164.83760563 -168.18868875 164.83246023 -166.55610657 164.82688904 C-163.06300672 164.81568808 -159.569915 164.80721589 -156.07680321 164.80076981 C-150.53947745 164.78999839 -145.00221081 164.76973107 -139.46492004 164.74765015 C-123.72655955 164.68602779 -107.98820417 164.63176185 -92.24975586 164.59863281 C-83.5400521 164.5802199 -74.8304493 164.55120691 -66.12081987 164.5106281 C-61.52454875 164.48968154 -56.92840409 164.47411839 -52.33208275 164.47182083 C-48.0054527 164.46965506 -43.67908655 164.45359189 -39.35253716 164.42743111 C-37.77692373 164.42031136 -36.20127808 164.41810093 -34.62565231 164.42153358 C-12.70603946 164.46161515 5.68629097 159.55923115 22.1875 144.3125 C39.25836647 126.37067096 44.87852757 102.39394778 44.34375 78.4609375 C43.35967111 54.41426694 32.72897618 29.5529247 15 13 C11.94834082 10.46237859 8.8285002 8.01670949 5.65917969 5.62792969 C1.09130064 2.18260128 1.09130064 2.18260128 0 0 Z " fill="#794083" transform="translate(695,242)"/>
<path d="M0 0 C11.10936994 -0.09041621 22.21849498 -0.16378249 33.3281498 -0.20724869 C38.48697214 -0.22811166 43.64552942 -0.25640597 48.80419922 -0.30175781 C53.78385392 -0.34526124 58.76325386 -0.36914681 63.74308395 -0.37950897 C65.64168686 -0.38689224 67.54027602 -0.40131014 69.43877029 -0.42292023 C72.10092403 -0.45201408 74.76202893 -0.45595352 77.42431641 -0.45410156 C78.59820419 -0.47567322 78.59820419 -0.47567322 79.79580688 -0.49768066 C84.97901316 -0.45873815 87.86762159 0.61215422 92 4 C94.40897521 6.97106942 94.96512871 8.6745346 95.375 12.5 C94.844436 17.45193063 92.81557562 20.82035365 89 24 C85.22207881 25.25930706 81.69949553 25.13135546 77.76489258 25.11352539 C76.50602486 25.11374443 76.50602486 25.11374443 75.22172546 25.1139679 C72.44596783 25.11327087 69.67027718 25.10548829 66.89453125 25.09765625 C64.97067807 25.09579132 63.04682441 25.09436777 61.12297058 25.09336853 C56.05785818 25.08954924 50.99277442 25.07972394 45.92767334 25.06866455 C40.75972888 25.05843781 35.59177979 25.0538682 30.42382812 25.04882812 C20.28253747 25.03810117 10.1412756 25.0205091 0 25 C0 16.75 0 8.5 0 0 Z " fill="#794082" transform="translate(591,365)"/>
</g>
</svg>
