<svg width="28" height="32" viewBox="0 0 28 32" fill="none" xmlns="http://www.w3.org/2000/svg">
<path d="M11.8462 -0.154297H6.59251C-0.484878 -0.154297 0.00733946 5.77323 0.00733946 5.77323V28.8139C0.00328829 28.8862 0.000587516 28.9542 0.000587516 29.025C0.000587516 29.0959 0.000587516 29.1696 0.00733946 29.2361C0.0588283 30.0458 0.40207 30.8025 0.964657 31.3464C1.52724 31.8904 2.26519 32.1791 3.02282 32.1517C3.78045 32.1244 4.49852 31.783 5.02556 31.1997C5.55261 30.6163 5.84741 29.8366 5.84777 29.025C5.84777 28.8197 5.79376 9.94707 5.79376 9.4201C5.79376 9.29577 5.79713 9.17577 5.80321 9.05867C5.80321 0.857719 11.8462 -0.154297 11.8462 -0.154297Z" fill="#0E131E"/>
<path d="M18.2951 -0.154297H14.803C14.803 -0.154297 8.61523 0.844532 8.61523 8.93862C8.81781 5.35068 15.8221 5.69599 15.8221 5.69599H16.5308C17.8481 5.69618 19.1144 6.22194 20.0647 7.16331C21.0151 8.10468 21.576 9.38876 21.6301 10.747C21.6842 12.1053 21.2274 13.4325 20.3551 14.4512C19.4828 15.4699 18.2626 16.1012 16.9497 16.2129C16.8115 16.2244 16.6732 16.2322 16.5308 16.2322H14.7332C14.7332 16.2322 10.4653 15.9361 10.4653 19.3878C10.4653 22.8395 15.305 22.4478 15.305 22.4478H18.2938C18.5012 22.4478 18.7086 22.4385 18.9125 22.425C23.9844 22.0953 27.9999 17.2553 27.9999 11.201C27.9999 5.14663 23.6553 -0.154297 18.2951 -0.154297Z" fill="#0E131E"/>
</svg>
