<?xml version="1.0" encoding="utf-8"?>
<svg version="1.1"
     xmlns="http://www.w3.org/2000/svg"
     viewBox="0 0 1200 1200"
     aria-label="Temporal logo">
    <style>
        /* Show light-theme path by default */
        .light  { display:inline;  }
        .dark   { display:none;    }

        @media (prefers-color-scheme: dark) {
        .light { display:none;   }
        .dark  { display:inline; }
        }
    </style>

    <!-- Black for light theme -->
    <path class="light" fill="#000"    d="M651.14,517.35C642.02,449.03…"/>

    <!-- White/gray for dark theme -->
    <path class="dark"  fill="#F2F2F2" d="M651.14,517.35C642.02,449.03…"/>

    <path class="logo-fill"
          d="M651.14,517.35C642.02,449.03,618.94,392,583.49,392s-58.53,57.03-67.65,125.35
           c-68.32,9.12-125.35,32.2-125.35,67.65s57.04,58.53,125.35,67.65
           c9.12,68.31,32.2,125.35,67.65,125.35s58.53-57.04,67.65-125.35
           c68.32-9.12,125.35-32.2,125.35-67.65S719.45,526.47,651.14,517.35z
           M513.61,632.75c-65.43-9.45-103.59-31.08-103.59-47.75s38.16-38.3,103.59-47.75
           c-1.44,15.75-2.19,31.83-2.19,47.75c0,15.92,0.75,32.01,2.19,47.75z
           M583.49,411.53c16.67,0,38.3,38.16,47.75,103.59
           c-15.74-1.44-31.83-2.19-47.75-2.19s-32.01,0.75-47.75,2.19
           c9.45-65.43,31.08-103.59,47.75-103.59z
           M653.37,632.75c-3.22,0.47-16.43,2.02-19.77,2.35
           c-0.33,3.35-1.89,16.55-2.35,19.77
           c-9.45,65.43-31.08,103.59-47.75,103.59s-38.3-38.16-47.75-103.59
           c-0.46-3.22-2.02-16.43-2.35-19.77
           c-1.52-15.51-2.44-32.17-2.44-50.1s0.92-34.59,2.44-50.11
           c15.51-1.52,32.17-2.44,50.1-2.44s34.59,0.92,50.1,2.44
           c3.35,0.33,16.55,1.89,19.77,2.35
           c65.43,9.45,103.6,31.09,103.6,47.75S718.8,623.3,653.37,632.75z"/>
</svg>
