<svg width="16" height="16" viewBox="0 0 16 16" fill="none" xmlns="http://www.w3.org/2000/svg">
<path opacity="0.4" d="M7.99998 11.3333V12.92C7.99998 14.1667 7.49998 14.6667 6.24665 14.6667H3.07998C1.83331 14.6667 1.33331 14.1667 1.33331 12.92V9.75333C1.33331 8.5 1.83331 8 3.07998 8H4.66665V9.58C4.66665 10.8333 5.16665 11.3333 6.41331 11.3333H7.99998Z" fill="#292D32"/>
<path opacity="0.6" d="M11.3334 8V9.58C11.3334 10.8333 10.8334 11.3333 9.58002 11.3333H6.41335C5.16669 11.3333 4.66669 10.8333 4.66669 9.58V6.41334C4.66669 5.16667 5.16669 4.66667 6.41335 4.66667H8.00002V6.24667C8.00002 7.5 8.50002 8 9.74669 8H11.3334Z" fill="#292D32"/>
<path d="M14.6667 3.07999V6.24666C14.6667 7.49999 14.1667 7.99999 12.9133 7.99999H9.74667C8.5 7.99999 8 7.49999 8 6.24666V3.07999C8 1.83333 8.5 1.33333 9.74667 1.33333H12.9133C14.1667 1.33333 14.6667 1.83333 14.6667 3.07999Z" fill="#292D32"/>
</svg>
