<svg width="16" height="16" viewBox="0 0 16 16" fill="none" xmlns="http://www.w3.org/2000/svg">
<path opacity="0.4" d="M14.6667 5.68V2.65333C14.6667 1.71333 14.24 1.33333 13.18 1.33333H10.4867C9.42667 1.33333 9 1.71333 9 2.65333V5.67333C9 6.62 9.42667 6.99333 10.4867 6.99333H13.18C14.24 6.99999 14.6667 6.62 14.6667 5.68Z" fill="#292D32"/>
<path d="M14.6667 13.18V10.4867C14.6667 9.42667 14.24 9 13.18 9H10.4867C9.42667 9 9 9.42667 9 10.4867V13.18C9 14.24 9.42667 14.6667 10.4867 14.6667H13.18C14.24 14.6667 14.6667 14.24 14.6667 13.18Z" fill="#292D32"/>
<path d="M6.99998 5.68V2.65333C6.99998 1.71333 6.57331 1.33333 5.51331 1.33333H2.81998C1.75998 1.33333 1.33331 1.71333 1.33331 2.65333V5.67333C1.33331 6.62 1.75998 6.99333 2.81998 6.99333H5.51331C6.57331 6.99999 6.99998 6.62 6.99998 5.68Z" fill="#292D32"/>
<path opacity="0.4" d="M6.99998 13.18V10.4867C6.99998 9.42667 6.57331 9 5.51331 9H2.81998C1.75998 9 1.33331 9.42667 1.33331 10.4867V13.18C1.33331 14.24 1.75998 14.6667 2.81998 14.6667H5.51331C6.57331 14.6667 6.99998 14.24 6.99998 13.18Z" fill="#292D32"/>
</svg>
