<svg xmlns="http://www.w3.org/2000/svg" id="clock-timer" viewBox="0 0 64 64">
    <path d="m50.15,19.83l1.74-2.18h0c.37.29.81.43,1.24.43.59,0,1.17-.26,1.57-.75l1.87-2.35c.68-.86.54-2.12-.32-2.81l-4.7-3.73c-.42-.33-.94-.48-1.47-.42-.53.06-1.01.32-1.34.74l-1.87,2.35c-.33.42-.48.94-.42,1.47.06.53.33,1.01.74,1.34h0s-1.66,2.09-1.66,2.09c-2.84-1.84-6.07-3.11-9.54-3.68v-2.32c1.65,0,3-1.35,3-3v-2c0-1.65-1.35-3-3-3h-8c-1.65,0-3,1.35-3,3v2c0,1.65,1.35,3,3,3v2.32c-3.47.56-6.7,1.84-9.54,3.68l-1.66-2.08h0c.42-.33.68-.81.74-1.34.06-.53-.09-1.05-.42-1.47l-1.87-2.35c-.33-.42-.81-.68-1.34-.74s-1.05.09-1.47.42l-4.7,3.73c-.86.69-1.01,1.95-.32,2.81l1.87,2.35c.39.5.98.75,1.57.75.44,0,.88-.14,1.24-.43h0s1.74,2.18,1.74,2.18c-4.24,4.48-6.85,10.52-6.85,17.17,0,13.79,11.21,25,25,25s25-11.21,25-25c0-6.64-2.61-12.69-6.85-17.17Zm.16-9.83l4.7,3.73-1.87,2.35h0s-.77-.61-.77-.61c0,0,0,0-.01-.01l-3.13-2.49s-.02,0-.02-.01l-.76-.61,1.87-2.35Zm-1.54,5.16l1.56,1.24-1.61,2.02c-.49-.44-1.01-.87-1.53-1.27l1.58-1.99ZM27,7v-2c0-.55.45-1,1-1h8c.55,0,1,.45,1,1v2c0,.55-.45,1-1,1h-8c-.55,0-1-.45-1-1Zm3,3h4v2.09c-.66-.05-1.33-.09-2-.09s-1.34.03-2,.09v-2.09Zm-21,3.73l4.7-3.73,1.87,2.35-.77.61s-.01,0-.02.01l-3.13,2.49s0,0-.01.01l-.77.61.62.78h0l-2.49-3.13Zm6.24,1.43l1.58,1.99c-.53.4-1.04.83-1.53,1.27l-1.61-2.02,1.56-1.24Zm16.76,44.84c-12.68,0-23-10.32-23-23s10.32-23,23-23,23,10.32,23,23-10.32,23-23,23Z"></path>
    <path d="m32,16c-11.58,0-21,9.42-21,21s9.42,21,21,21,21-9.42,21-21-9.42-21-21-21Zm0,40c-10.48,0-19-8.52-19-19s8.52-19,19-19,19,8.52,19,19-8.52,19-19,19Z"></path>
    <circle cx="32" cy="20" r="1"></circle>
    <circle cx="32" cy="54" r="1"></circle>
    <circle cx="49" cy="37" r="1"></circle>
    <circle cx="15" cy="37" r="1"></circle>
    <path d="M43.31 24.27c-.39.39-.39 1.02 0 1.41.39.39 1.02.39 1.41 0 .39-.39.39-1.02 0-1.41s-1.02-.39-1.41 0ZM19.27 48.31c-.39.39-.39 1.02 0 1.41.39.39 1.02.39 1.41 0 .39-.39.39-1.02 0-1.41-.39-.39-1.02-.39-1.41 0ZM43.31 48.31c-.39.39-.39 1.02 0 1.41.39.39 1.02.39 1.41 0 .39-.39.39-1.02 0-1.41-.39-.39-1.02-.39-1.41 0ZM19.27 24.27c-.39.39-.39 1.02 0 1.41.39.39 1.02.39 1.41 0 .39-.39.39-1.02 0-1.41s-1.02-.39-1.41 0ZM43.48 28.52c0-.81-.31-1.56-.87-2.13-1.13-1.13-3.11-1.13-4.25 0l-6.62 6.63c-2.08.14-3.74 1.86-3.74 3.97s1.79 4 4 4 3.84-1.66 3.97-3.74l6.63-6.63c.56-.56.87-1.31.87-2.12Zm-11.48 10.48c-1.1 0-2-.9-2-2s.9-2 2-2 2 .9 2 2-.9 2-2 2Zm9.19-9.78-5.76 5.75c-.34-.58-.83-1.06-1.41-1.41l5.75-5.76c.37-.37 1.04-.38 1.41 0 .24.24.29.52.29.71 0 .27-.1.52-.29.7Z"></path>
</svg>
