<?xml version="1.0" encoding="UTF-8"?>
<!DOCTYPE svg PUBLIC "-//W3C//DTD SVG 1.1//EN" "http://www.w3.org/Graphics/SVG/1.1/DTD/svg11.dtd">
<svg xmlns="http://www.w3.org/2000/svg" version="1.1" width="256px" height="256px" style="shape-rendering:geometricPrecision; text-rendering:geometricPrecision; image-rendering:optimizeQuality; fill-rule:evenodd; clip-rule:evenodd" xmlns:xlink="http://www.w3.org/1999/xlink">
<g><path style="opacity:0.963" fill="#336ce5" d="M 255.5,118.5 C 255.5,124.167 255.5,129.833 255.5,135.5C 252.336,144.181 248.836,152.848 245,161.5C 242.198,170.376 239.864,179.376 238,188.5C 235.809,197.719 230.975,205.219 223.5,211C 206.435,220.397 190.769,231.731 176.5,245C 169.008,249.747 160.842,251.581 152,250.5C 135.667,249.167 119.333,249.167 103,250.5C 92.8048,251.66 83.6381,249.16 75.5,243C 68.7945,236.626 61.7945,230.626 54.5,225C 42.6794,219.341 32.1794,211.841 23,202.5C 17.6377,191.39 13.9711,179.723 12,167.5C 7.70456,156.762 3.5379,146.096 -0.5,135.5C -0.5,129.833 -0.5,124.167 -0.5,118.5C 3.5379,107.904 7.70456,97.2377 12,86.5C 13.8643,77.3761 16.1976,68.3761 19,59.5C 21.6304,52.8652 25.7971,47.3652 31.5,43C 48.5645,33.6026 64.2312,22.2693 78.5,9C 85.8326,4.33384 93.8326,2.50051 102.5,3.5C 119.167,4.83333 135.833,4.83333 152.5,3.5C 162.521,2.42131 171.521,4.92131 179.5,11C 186.206,17.3744 193.206,23.3744 200.5,29C 211.806,34.5681 221.973,41.7347 231,50.5C 232.92,53.3388 234.587,56.3388 236,59.5C 238.802,68.3761 241.136,77.3761 243,86.5C 247.295,97.2377 251.462,107.904 255.5,118.5 Z"/></g>
<g><path style="opacity:1" fill="#f8f9fd" d="M 112.5,18.5 C 168.4,15.0131 207.567,38.6798 230,89.5C 242.718,129.498 236.052,165.831 210,198.5C 176.858,232.661 137.358,243.161 91.5,230C 45.5441,211.117 21.2107,176.784 18.5,127C 21.2107,77.216 45.5441,42.8827 91.5,24C 98.514,21.705 105.514,19.8716 112.5,18.5 Z"/></g>
<g><path style="opacity:1" fill="#356de5" d="M 113.5,28.5 C 164.677,25.2405 200.511,46.9072 221,93.5C 233.396,136.087 223.563,172.587 191.5,203C 158.894,227.654 123.56,232.321 85.5,217C 40.6919,192.211 22.5253,154.378 31,103.5C 43.5222,61.8025 71.0222,36.8025 113.5,28.5 Z"/></g>
<g><path style="opacity:1" fill="#eef0fb" d="M 116.5,43.5 C 118.252,43.4176 119.252,44.2509 119.5,46C 117.585,47.8357 115.252,49.0024 112.5,49.5C 114.655,49.838 116.989,49.838 119.5,49.5C 119.5,50.8333 119.5,52.1667 119.5,53.5C 117.304,53.5652 115.304,54.2319 113.5,55.5C 113.833,55.8333 114.167,56.1667 114.5,56.5C 116.747,55.6258 119.08,55.2924 121.5,55.5C 121.67,56.8221 121.337,57.9887 120.5,59C 116.914,60.1076 113.247,60.6076 109.5,60.5C 109.16,56.1241 108.493,51.7908 107.5,47.5C 107.818,46.3527 108.484,45.5194 109.5,45C 112.036,44.8138 114.369,44.3138 116.5,43.5 Z"/></g>
<g><path style="opacity:1" fill="#eff1fc" d="M 137.5,44.5 C 141.634,43.9429 145.301,44.9429 148.5,47.5C 149.9,50.9038 149.234,53.9038 146.5,56.5C 147.046,58.1347 147.38,59.8014 147.5,61.5C 146.022,61.762 144.689,61.4287 143.5,60.5C 142.514,54.9679 140.848,54.4679 138.5,59C 137.207,59.49 135.873,59.6567 134.5,59.5C 135.121,54.3945 136.121,49.3945 137.5,44.5 Z"/></g>
<g><path style="opacity:1" fill="#4573e6" d="M 140.5,48.5 C 142.346,48.2222 143.68,48.8888 144.5,50.5C 143.311,51.4287 141.978,51.762 140.5,51.5C 140.5,50.5 140.5,49.5 140.5,48.5 Z"/></g>
<g><path style="opacity:1" fill="#f0f2fc" d="M 165.5,53.5 C 169.048,54.6072 172.381,56.2738 175.5,58.5C 176.429,59.6888 176.762,61.0222 176.5,62.5C 174.774,62.1854 173.107,62.0187 171.5,62C 169.333,64.8333 167.167,67.6667 165,70.5C 163.115,69.6867 162.449,68.3533 163,66.5C 164.753,63.9952 166.253,61.3286 167.5,58.5C 164.807,57.4682 164.14,55.8015 165.5,53.5 Z"/></g>
<g><path style="opacity:1" fill="#f0f2fc" d="M 84.5,54.5 C 87.1194,54.2317 89.6194,54.565 92,55.5C 92.6172,56.4491 92.4506,57.2825 91.5,58C 84.3107,57.4787 82.9774,59.8121 87.5,65C 88.7932,65.49 90.1266,65.6567 91.5,65.5C 91.4784,62.0022 92.9784,60.6689 96,61.5C 95.3256,68.8408 91.4922,71.3408 84.5,69C 79.3157,64.0123 79.3157,59.179 84.5,54.5 Z"/></g>
<g><path style="opacity:1" fill="#f8f9fd" d="M 123.5,80.5 C 135.87,79.7002 141.036,85.3668 139,97.5C 137.691,99.9757 135.858,101.976 133.5,103.5C 132.534,105.396 132.201,107.396 132.5,109.5C 137.522,109.218 142.522,109.051 147.5,109C 148.982,111.592 148.648,113.925 146.5,116C 141.864,115.876 137.198,115.71 132.5,115.5C 132.5,128.5 132.5,141.5 132.5,154.5C 141.978,155.018 149.645,151.684 155.5,144.5C 154.189,143.742 153.689,142.742 154,141.5C 156.714,138.449 159.714,135.782 163,133.5C 163.945,133.905 164.612,134.572 165,135.5C 165.771,138.859 166.605,142.192 167.5,145.5C 166.271,146.281 164.938,146.781 163.5,147C 156.587,158.973 146.253,166.306 132.5,169C 130.983,170.685 129.316,172.185 127.5,173.5C 125.684,172.185 124.017,170.685 122.5,169C 108.545,166.041 98.3782,158.207 92,145.5C 90.4905,144.91 88.9905,144.244 87.5,143.5C 88.785,139.304 90.4517,135.304 92.5,131.5C 96.0332,134.199 99.0332,137.366 101.5,141C 101.095,141.945 100.428,142.612 99.5,143C 105.249,151.316 113.249,155.149 123.5,154.5C 123.5,141.5 123.5,128.5 123.5,115.5C 119.132,115.37 114.798,115.703 110.5,116.5C 106.609,115.275 105.609,112.775 107.5,109C 108.5,108.833 109.5,108.667 110.5,108.5C 114.798,109.297 119.132,109.63 123.5,109.5C 123.785,107.712 123.452,106.045 122.5,104.5C 115.961,100.57 113.795,94.9031 116,87.5C 118.015,84.5883 120.515,82.255 123.5,80.5 Z"/></g>
<g><path style="opacity:1" fill="#4071e5" d="M 125.5,86.5 C 131.765,86.3634 134.265,89.3634 133,95.5C 132.5,96.6667 131.667,97.5 130.5,98C 123.562,100.06 120.729,97.5597 122,90.5C 122.69,88.6498 123.856,87.3164 125.5,86.5 Z"/></g>
<g><path style="opacity:1" fill="#ccd3f5" d="M 74.5,112.5 C 85.1042,111.208 95.1042,113.042 104.5,118C 110.167,118.333 115.833,118.667 121.5,119C 116.282,120.563 110.949,120.896 105.5,120C 98.2613,116.309 90.5946,114.143 82.5,113.5C 79.433,113.607 76.433,114.107 73.5,115C 62.1356,121.407 50.469,122.074 38.5,117C 37.3044,116.346 37.3044,115.846 38.5,115.5C 51.0779,120.216 63.0779,119.216 74.5,112.5 Z"/></g>
<g><path style="opacity:1" fill="#d0d6f6" d="M 192.5,112.5 C 200.756,111.787 208.756,112.787 216.5,115.5C 217.833,116.167 217.833,116.833 216.5,117.5C 204.937,111.868 193.604,112.368 182.5,119C 171.04,122.147 160.374,120.48 150.5,114C 155.027,114.415 159.36,115.748 163.5,118C 174.018,119.921 183.685,118.088 192.5,112.5 Z"/></g>
<g><path style="opacity:1" fill="#e7eafa" d="M 76.5,125.5 C 80.8461,125.334 85.1794,125.501 89.5,126C 94.8333,128 100.167,130 105.5,132C 111.26,132.277 116.927,132.444 122.5,132.5C 121.975,133.192 121.308,133.692 120.5,134C 115.167,134.667 109.833,134.667 104.5,134C 97.695,130.62 90.5284,128.454 83,127.5C 79.7928,127.741 76.6262,128.241 73.5,129C 61.8156,135.48 49.8156,136.147 37.5,131C 36.2888,130.107 36.2888,129.274 37.5,128.5C 45.8429,132.64 54.5095,133.473 63.5,131C 67.9227,129.115 72.256,127.281 76.5,125.5 Z"/></g>
<g><path style="opacity:1" fill="#e2e6f9" d="M 135.5,125.5 C 144.915,124.42 153.582,126.42 161.5,131.5C 161,131.833 160.5,132.167 160,132.5C 151.454,128.311 142.62,126.644 133.5,127.5C 134.243,126.818 134.909,126.151 135.5,125.5 Z"/></g>
<g><path style="opacity:1" fill="#e7eafa" d="M 194.5,125.5 C 198.846,125.334 203.179,125.501 207.5,126C 211.188,127.182 214.855,128.348 218.5,129.5C 218.649,130.552 218.483,131.552 218,132.5C 209.677,127.612 200.843,126.445 191.5,129C 183.808,134.167 175.475,135.667 166.5,133.5C 176.562,132.988 185.896,130.321 194.5,125.5 Z"/></g>
<g><path style="opacity:1" fill="#eaedfb" d="M 79.5,142.5 C 81.604,142.201 83.604,142.534 85.5,143.5C 82.3583,144.167 79.3583,144.834 76.5,145.5C 71.5316,147.313 66.5316,149.146 61.5,151C 53.9831,152.073 46.6497,151.406 39.5,149C 38.269,147.817 38.269,146.651 39.5,145.5C 41.1667,146.333 42.8333,147.167 44.5,148C 50.1667,148.667 55.8333,148.667 61.5,148C 67.2621,145.28 73.2621,143.446 79.5,142.5 Z"/></g>
<g><path style="opacity:1" fill="#edeffb" d="M 133.5,142.5 C 139.509,142.334 145.509,142.501 151.5,143C 151.957,143.414 152.291,143.914 152.5,144.5C 146.21,144.249 139.876,144.582 133.5,145.5C 133.5,144.5 133.5,143.5 133.5,142.5 Z"/></g>
<g><path style="opacity:1" fill="#eaedfb" d="M 192.5,142.5 C 198.509,142.334 204.509,142.501 210.5,143C 212.351,143.837 214.184,144.671 216,145.5C 216.432,146.6 215.932,147.267 214.5,147.5C 202.615,142.922 191.282,144.089 180.5,151C 174.804,151.83 169.137,151.663 163.5,150.5C 163.709,149.914 164.043,149.414 164.5,149C 174.67,149.886 184.003,147.719 192.5,142.5 Z"/></g>
<g><path style="opacity:1" fill="#8ca0ec" d="M 79.5,142.5 C 81.6074,141.532 83.9407,141.198 86.5,141.5C 86.5,142.833 86.5,144.167 86.5,145.5C 83.1667,145.5 79.8333,145.5 76.5,145.5C 79.3583,144.834 82.3583,144.167 85.5,143.5C 83.604,142.534 81.604,142.201 79.5,142.5 Z"/></g>
<g><path style="opacity:1" fill="#a4b3ef" d="M 116.5,148.5 C 114.833,149.167 113.167,149.833 111.5,150.5C 110.527,150.013 109.527,149.513 108.5,149C 111.146,148.503 113.813,148.336 116.5,148.5 Z"/></g>
<g><path style="opacity:1" fill="#e1e4f9" d="M 111.5,150.5 C 113.167,149.833 114.833,149.167 116.5,148.5C 118.262,148.643 119.929,148.309 121.5,147.5C 122.731,148.651 122.731,149.817 121.5,151C 118.112,151.659 114.779,151.492 111.5,150.5 Z"/></g>
<g><path style="opacity:1" fill="#f2f3fc" d="M 67.5,165.5 C 69.4841,165.484 70.4841,166.484 70.5,168.5C 70.1252,170.459 69.4585,172.293 68.5,174C 70.8107,173.845 73.144,173.845 75.5,174C 76.3567,174.689 77.0233,175.522 77.5,176.5C 74.1486,179.848 70.4819,182.848 66.5,185.5C 65.354,184.855 64.354,184.022 63.5,183C 64.9842,181.426 66.6508,180.093 68.5,179C 66.8659,178.506 65.1992,178.34 63.5,178.5C 63.33,177.178 63.6634,176.011 64.5,175C 62.5826,175.027 60.916,175.861 59.5,177.5C 58.2801,177.113 57.6135,176.28 57.5,175C 60.6641,171.67 63.9975,168.503 67.5,165.5 Z"/></g>
<g><path style="opacity:1" fill="#f0f2fc" d="M 185.5,166.5 C 189.193,166.186 191.527,167.852 192.5,171.5C 194.287,172.316 195.954,173.316 197.5,174.5C 196.833,175.833 195.833,176.833 194.5,177.5C 192.802,176.319 191.135,176.319 189.5,177.5C 193.21,179.241 193.376,181.241 190,183.5C 186.115,180.661 182.615,177.494 179.5,174C 181.165,171.135 183.165,168.635 185.5,166.5 Z"/></g>
<g><path style="opacity:1" fill="#4a75e6" d="M 185.5,171.5 C 187.048,171.821 187.715,172.821 187.5,174.5C 184.752,174.598 184.086,173.598 185.5,171.5 Z"/></g>
<g><path style="opacity:1" fill="#f1f3fc" d="M 171.5,180.5 C 172.695,180.866 173.361,181.699 173.5,183C 172.43,184.709 171.097,186.209 169.5,187.5C 169.833,187.833 170.167,188.167 170.5,188.5C 171.914,187.376 173.414,186.376 175,185.5C 175.87,186.108 176.37,186.941 176.5,188C 175.43,189.709 174.097,191.209 172.5,192.5C 172.833,192.833 173.167,193.167 173.5,193.5C 175.193,191.973 177.027,190.64 179,189.5C 179.87,190.108 180.37,190.941 180.5,192C 178.329,194.66 175.663,196.827 172.5,198.5C 169.152,195.149 166.152,191.482 163.5,187.5C 166.186,185.144 168.853,182.811 171.5,180.5 Z"/></g>
<g><path style="opacity:1" fill="#f1f2fc" d="M 86.5,184.5 C 88.903,184.695 90.5696,185.862 91.5,188C 90.4178,192.494 89.4178,196.994 88.5,201.5C 87.448,201.649 86.448,201.483 85.5,201C 84.3952,196.294 81.3952,194.294 76.5,195C 76.0426,194.586 75.7093,194.086 75.5,193.5C 79.4207,190.72 83.0874,187.72 86.5,184.5 Z"/></g>
<g><path style="opacity:1" fill="#4875e6" d="M 85.5,190.5 C 86.7125,191.497 86.5458,192.497 85,193.5C 84.5304,192.423 84.6971,191.423 85.5,190.5 Z"/></g>
<g><path style="opacity:1" fill="#eef0fb" d="M 148.5,192.5 C 155.213,191.379 158.88,194.212 159.5,201C 159.15,205.598 156.65,207.764 152,207.5C 149.966,207.646 148.299,206.98 147,205.5C 145.869,203.275 145.036,200.942 144.5,198.5C 145.432,196.235 146.765,194.235 148.5,192.5 Z"/></g>
<g><path style="opacity:1" fill="#f0f1fc" d="M 102.5,192.5 C 103.822,192.33 104.989,192.663 106,193.5C 106.543,195.631 107.376,197.631 108.5,199.5C 109.316,197.713 110.316,196.046 111.5,194.5C 112.902,194.865 113.902,195.699 114.5,197C 113.035,201.083 112.035,205.25 111.5,209.5C 109.856,209.714 108.356,209.38 107,208.5C 106.333,206.5 105.667,204.5 105,202.5C 103.98,203.891 103.147,205.391 102.5,207C 101.207,207.49 99.8734,207.657 98.5,207.5C 99.6811,202.441 101.014,197.441 102.5,192.5 Z"/></g>
<g><path style="opacity:1" fill="#4674e6" d="M 149.5,196.5 C 151.527,196.338 153.527,196.505 155.5,197C 154.552,197.483 153.552,197.649 152.5,197.5C 152.5,198.833 152.5,200.167 152.5,201.5C 156.315,201.712 156.315,202.378 152.5,203.5C 149.908,201.974 148.908,199.641 149.5,196.5 Z"/></g>
<g><path style="opacity:1" fill="#f1f3fc" d="M 127.5,196.5 C 129.722,196.178 131.556,196.845 133,198.5C 134.222,202.61 135.722,206.61 137.5,210.5C 136.833,210.833 136.167,211.167 135.5,211.5C 133.761,210.6 131.928,209.933 130,209.5C 127.73,210.86 125.23,211.527 122.5,211.5C 123.572,206.285 125.238,201.285 127.5,196.5 Z"/></g>
<g><path style="opacity:1" fill="#547ae7" d="M 129.5,202.5 C 130.776,203.386 130.776,204.386 129.5,205.5C 128.438,204.575 128.438,203.575 129.5,202.5 Z"/></g>
</svg>
